<svg width="267" height="122" viewBox="0 0 267 122" fill="none" xmlns="http://www.w3.org/2000/svg">
<path d="M0 28.1606C0 12.6079 12.6407 0 28.2337 0H94.0831C109.676 0 122.317 12.6079 122.317 28.1606V93.8394C122.317 109.392 109.676 122 94.0831 122H28.2337C12.6407 122 0 109.392 0 93.8394V28.1606Z" fill="black"/>
<path d="M97.3896 57.267C96.1115 48.9804 89.0501 42.9614 80.6059 42.9614C79.8201 42.9614 79.0134 43.0137 78.2276 43.1182C77.2114 43.254 76.2266 43.4735 75.2837 43.7661C73.7436 44.2468 72.6855 45.6679 72.6855 47.2771V53.0349C74.5817 51.0076 77.2742 49.7537 80.323 49.7537C83.1622 49.7537 85.8128 50.83 87.772 52.7841C89.7416 54.7486 90.8207 57.4133 90.8207 60.266C90.8207 66.1491 86.2004 70.7679 80.323 70.7783C77.5047 70.7783 74.8751 69.6915 72.9264 67.727C70.9777 65.7625 69.8987 63.1187 69.8987 60.2764V35.9738C69.8987 34.209 68.468 32.7783 66.7032 32.7783V32.7783C64.6707 32.7783 63.0259 32.7783 63.0259 32.7783V57.267C63.0259 57.267 63.1145 60.0068 63.3942 61.7352C63.8335 64.4501 64.1308 66.0702 65.3637 68.4975C66.612 70.9552 69.9092 73.9027 69.9092 73.9027C72.916 76.2852 76.6771 77.6019 80.6373 77.6019C84.0213 77.6019 87.2586 76.6196 90.0035 74.7491C95.9962 70.6738 98.563 64.6235 97.421 57.267H97.3896Z" fill="#FF5100"/>
<path d="M25.2038 57.2147C26.4819 48.9282 33.5433 42.9092 41.9875 42.9092C42.7733 42.9092 43.58 42.9614 44.3658 43.0659C45.382 43.2018 46.3668 43.4212 47.3097 43.7138C48.8498 44.1945 49.9079 45.6156 49.9079 47.2249V52.9826C48.0116 50.9554 45.3191 49.7014 42.2704 49.7014C39.4312 49.7014 36.7805 50.7777 34.8214 52.7318C32.8518 54.6963 31.7727 57.361 31.7727 60.2137C31.7727 66.0969 36.393 70.7156 42.2704 70.726C45.0887 70.726 47.7183 69.6393 49.667 67.6747C51.6157 65.7102 52.6947 63.0665 52.6947 60.2242V43.5571H55.8902C57.9227 43.5571 59.5675 45.1976 59.5675 47.2249V88.5322H56.3616C54.3291 88.5322 52.6842 86.8916 52.6842 84.8644V73.8505C49.6774 76.233 45.9163 77.5496 41.9561 77.5496C38.5721 77.5496 35.3347 76.5674 32.5898 74.6969C26.5971 70.6215 24.0304 64.5712 25.1724 57.2147H25.2038Z" fill="#FF5100"/>
<path d="M157.696 72.6564C156.932 73.2803 155.994 73.7482 154.882 74.0601C153.804 74.372 152.658 74.528 151.441 74.528C148.384 74.528 146.021 73.7309 144.353 72.1365C142.685 70.5422 141.851 68.22 141.851 65.17V51.8089H137.264V46.61H141.851V40.2674H148.366V46.61H155.82V51.8089H148.366V65.0141C148.366 66.3658 148.696 67.4055 149.357 68.1334C150.017 68.8266 150.972 69.1732 152.223 69.1732C153.683 69.1732 154.899 68.7919 155.872 68.0294L157.696 72.6564Z" fill="black"/>
<path d="M174.65 74.528C171.835 74.528 169.298 73.9215 167.04 72.7084C164.781 71.4953 163.009 69.8144 161.723 67.6655C160.472 65.482 159.846 63.0212 159.846 60.2831C159.846 57.545 160.472 55.1015 161.723 52.9526C163.009 50.8038 164.781 49.1228 167.04 47.9097C169.298 46.6967 171.835 46.0901 174.65 46.0901C177.499 46.0901 180.053 46.6967 182.312 47.9097C184.571 49.1228 186.325 50.8038 187.576 52.9526C188.862 55.1015 189.505 57.545 189.505 60.2831C189.505 63.0212 188.862 65.482 187.576 67.6655C186.325 69.8144 184.571 71.4953 182.312 72.7084C180.053 73.9215 177.499 74.528 174.65 74.528ZM174.65 68.9652C177.047 68.9652 179.028 68.168 180.592 66.5737C182.155 64.9794 182.937 62.8825 182.937 60.2831C182.937 57.6836 182.155 55.5867 180.592 53.9924C179.028 52.3981 177.047 51.6009 174.65 51.6009C172.252 51.6009 170.271 52.3981 168.707 53.9924C167.179 55.5867 166.414 57.6836 166.414 60.2831C166.414 62.8825 167.179 64.9794 168.707 66.5737C170.271 68.168 172.252 68.9652 174.65 68.9652Z" fill="black"/>
<path d="M208.245 74.528C205.43 74.528 202.894 73.9215 200.635 72.7084C198.376 71.4953 196.604 69.8144 195.318 67.6655C194.067 65.482 193.442 63.0212 193.442 60.2831C193.442 57.545 194.067 55.1015 195.318 52.9526C196.604 50.8038 198.376 49.1228 200.635 47.9097C202.894 46.6967 205.43 46.0901 208.245 46.0901C211.094 46.0901 213.649 46.6967 215.907 47.9097C218.166 49.1228 219.921 50.8038 221.172 52.9526C222.457 55.1015 223.1 57.545 223.1 60.2831C223.1 63.0212 222.457 65.482 221.172 67.6655C219.921 69.8144 218.166 71.4953 215.907 72.7084C213.649 73.9215 211.094 74.528 208.245 74.528ZM208.245 68.9652C210.643 68.9652 212.623 68.168 214.187 66.5737C215.751 64.9794 216.533 62.8825 216.533 60.2831C216.533 57.6836 215.751 55.5867 214.187 53.9924C212.623 52.3981 210.643 51.6009 208.245 51.6009C205.847 51.6009 203.867 52.3981 202.303 53.9924C200.774 55.5867 200.009 57.6836 200.009 60.2831C200.009 62.8825 200.774 64.9794 202.303 66.5737C203.867 68.168 205.847 68.9652 208.245 68.9652Z" fill="black"/>
<path d="M229.331 35.5884H235.846V74.1641H229.331V35.5884Z" fill="black"/>
<path d="M252.998 74.528C250.74 74.528 248.533 74.2334 246.379 73.6442C244.224 73.055 242.504 72.3098 241.218 71.4087L243.72 66.4697C244.971 67.3016 246.465 67.9774 248.203 68.4973C249.975 68.9825 251.713 69.2252 253.415 69.2252C257.307 69.2252 259.253 68.2027 259.253 66.1578C259.253 65.1874 258.749 64.5115 257.742 64.1302C256.769 63.749 255.187 63.3851 252.998 63.0385C250.705 62.6919 248.828 62.2933 247.369 61.8427C245.944 61.3922 244.693 60.6123 243.616 59.5032C242.573 58.3595 242.052 56.7825 242.052 54.7723C242.052 52.1382 243.147 50.0413 245.336 48.4816C247.56 46.8873 250.548 46.0901 254.301 46.0901C256.213 46.0901 258.124 46.3154 260.035 46.766C261.946 47.1819 263.51 47.7538 264.726 48.4816L262.224 53.4205C259.861 52.0342 257.203 51.341 254.249 51.341C252.338 51.341 250.879 51.6356 249.871 52.2248C248.898 52.7794 248.411 53.5245 248.411 54.4603C248.411 55.5001 248.933 56.2453 249.975 56.6958C251.052 57.1118 252.703 57.5103 254.927 57.8916C257.151 58.2382 258.975 58.6368 260.4 59.0873C261.825 59.5379 263.041 60.3004 264.049 61.3748C265.091 62.4493 265.612 63.9743 265.612 65.9499C265.612 68.5493 264.483 70.6288 262.224 72.1885C259.965 73.7482 256.89 74.528 252.998 74.528Z" fill="black"/>
</svg>
