<svg width="35" height="35" viewBox="0 0 35 35" fill="none" xmlns="http://www.w3.org/2000/svg">
<path d="M5.83329 29.1666C5.03121 29.1666 4.34434 28.8808 3.77267 28.3091C3.201 27.7374 2.91566 27.051 2.91663 26.2499V8.74992C2.91663 7.94784 3.20246 7.26096 3.77413 6.6893C4.34579 6.11763 5.03218 5.83228 5.83329 5.83325H29.1666C29.9687 5.83325 30.6556 6.11909 31.2272 6.69075C31.7989 7.26242 32.0843 7.94881 32.0833 8.74992V26.2499C32.0833 27.052 31.7974 27.7389 31.2258 28.3105C30.6541 28.8822 29.9677 29.1676 29.1666 29.1666H5.83329ZM17.5 18.9583L5.83329 11.6666V26.2499H29.1666V11.6666L17.5 18.9583ZM17.5 16.0416L29.1666 8.74992H5.83329L17.5 16.0416ZM5.83329 11.6666V8.74992V26.2499V11.6666Z" fill="white"/>
</svg>
