<svg width="140" height="140" viewBox="0 0 140 140" fill="none" xmlns="http://www.w3.org/2000/svg">
<g filter="url(#filter0_di_414_216)">
<rect x="20" y="20" width="100" height="100" rx="50" fill="url(#paint0_linear_414_216)" shape-rendering="crispEdges"/>
<path d="M73.96 66.6C77.64 67.2 80.46 68.58 82.42 70.74C84.38 72.86 85.36 75.5 85.36 78.66C85.36 81.1 84.72 83.36 83.44 85.44C82.16 87.48 80.2 89.12 77.56 90.36C74.96 91.6 71.76 92.22 67.96 92.22C65 92.22 62.08 91.84 59.2 91.08C56.36 90.28 53.94 89.16 51.94 87.72L55.72 80.28C57.32 81.48 59.16 82.42 61.24 83.1C63.36 83.74 65.52 84.06 67.72 84.06C70.16 84.06 72.08 83.6 73.48 82.68C74.88 81.72 75.58 80.38 75.58 78.66C75.58 75.22 72.96 73.5 67.72 73.5H63.28V67.08L71.92 57.3H54.04V49.5H83.44V55.8L73.96 66.6Z" fill="white"/>
</g>
<defs>
<filter id="filter0_di_414_216" x="0" y="0" width="140" height="140" filterUnits="userSpaceOnUse" color-interpolation-filters="sRGB">
<feFlood flood-opacity="0" result="BackgroundImageFix"/>
<feColorMatrix in="SourceAlpha" type="matrix" values="0 0 0 0 0 0 0 0 0 0 0 0 0 0 0 0 0 0 127 0" result="hardAlpha"/>
<feOffset/>
<feGaussianBlur stdDeviation="10"/>
<feComposite in2="hardAlpha" operator="out"/>
<feColorMatrix type="matrix" values="0 0 0 0 1 0 0 0 0 0.368627 0 0 0 0 0.0745098 0 0 0 0.4 0"/>
<feBlend mode="normal" in2="BackgroundImageFix" result="effect1_dropShadow_414_216"/>
<feBlend mode="normal" in="SourceGraphic" in2="effect1_dropShadow_414_216" result="shape"/>
<feColorMatrix in="SourceAlpha" type="matrix" values="0 0 0 0 0 0 0 0 0 0 0 0 0 0 0 0 0 0 127 0" result="hardAlpha"/>
<feOffset dx="4" dy="4"/>
<feGaussianBlur stdDeviation="7.5"/>
<feComposite in2="hardAlpha" operator="arithmetic" k2="-1" k3="1"/>
<feColorMatrix type="matrix" values="0 0 0 0 1 0 0 0 0 1 0 0 0 0 1 0 0 0 0.2 0"/>
<feBlend mode="normal" in2="shape" result="effect2_innerShadow_414_216"/>
</filter>
<linearGradient id="paint0_linear_414_216" x1="20" y1="73.0752" x2="120.266" y2="75.5556" gradientUnits="userSpaceOnUse">
<stop stop-color="#FF5B29"/>
<stop offset="1" stop-color="#FFA917"/>
</linearGradient>
</defs>
</svg>
