<svg width="140" height="140" viewBox="0 0 140 140" fill="none" xmlns="http://www.w3.org/2000/svg">
<g filter="url(#filter0_di_414_3571)">
<rect x="20" y="20" width="100" height="100" rx="50" fill="url(#paint0_linear_414_3571)" shape-rendering="crispEdges"/>
<path d="M85.72 83.58V91.5H53.98V85.2L70.18 69.9C71.9 68.26 73.06 66.86 73.66 65.7C74.26 64.5 74.56 63.32 74.56 62.16C74.56 60.48 73.98 59.2 72.82 58.32C71.7 57.4 70.04 56.94 67.84 56.94C66 56.94 64.34 57.3 62.86 58.02C61.38 58.7 60.14 59.74 59.14 61.14L52.06 56.58C53.7 54.14 55.96 52.24 58.84 50.88C61.72 49.48 65.02 48.78 68.74 48.78C71.86 48.78 74.58 49.3 76.9 50.34C79.26 51.34 81.08 52.78 82.36 54.66C83.68 56.5 84.34 58.68 84.34 61.2C84.34 63.48 83.86 65.62 82.9 67.62C81.94 69.62 80.08 71.9 77.32 74.46L67.66 83.58H85.72Z" fill="white"/>
</g>
<defs>
<filter id="filter0_di_414_3571" x="0" y="0" width="140" height="140" filterUnits="userSpaceOnUse" color-interpolation-filters="sRGB">
<feFlood flood-opacity="0" result="BackgroundImageFix"/>
<feColorMatrix in="SourceAlpha" type="matrix" values="0 0 0 0 0 0 0 0 0 0 0 0 0 0 0 0 0 0 127 0" result="hardAlpha"/>
<feOffset/>
<feGaussianBlur stdDeviation="10"/>
<feComposite in2="hardAlpha" operator="out"/>
<feColorMatrix type="matrix" values="0 0 0 0 1 0 0 0 0 0.368627 0 0 0 0 0.0745098 0 0 0 0.4 0"/>
<feBlend mode="normal" in2="BackgroundImageFix" result="effect1_dropShadow_414_3571"/>
<feBlend mode="normal" in="SourceGraphic" in2="effect1_dropShadow_414_3571" result="shape"/>
<feColorMatrix in="SourceAlpha" type="matrix" values="0 0 0 0 0 0 0 0 0 0 0 0 0 0 0 0 0 0 127 0" result="hardAlpha"/>
<feOffset dx="4" dy="4"/>
<feGaussianBlur stdDeviation="7.5"/>
<feComposite in2="hardAlpha" operator="arithmetic" k2="-1" k3="1"/>
<feColorMatrix type="matrix" values="0 0 0 0 1 0 0 0 0 1 0 0 0 0 1 0 0 0 0.2 0"/>
<feBlend mode="normal" in2="shape" result="effect2_innerShadow_414_3571"/>
</filter>
<linearGradient id="paint0_linear_414_3571" x1="20" y1="73.0752" x2="120.266" y2="75.5556" gradientUnits="userSpaceOnUse">
<stop stop-color="#FF5B29"/>
<stop offset="1" stop-color="#FFA917"/>
</linearGradient>
</defs>
</svg>
