<svg width="150" height="150" viewBox="0 0 150 150" fill="none" xmlns="http://www.w3.org/2000/svg">
<g clip-path="url(#clip0_395_318)">
<g clip-path="url(#clip1_395_318)">
<path d="M18.359 91.1109C27.8847 91.1109 35.6068 83.4003 35.6068 73.8887C35.6068 64.3772 27.8847 56.6665 18.359 56.6665C8.83339 56.6665 1.11133 64.3772 1.11133 73.8887C1.11133 83.4003 8.83339 91.1109 18.359 91.1109Z" fill="#282525"/>
<path d="M28.8812 76.3087C28.3022 76.8187 27.5585 77.1032 26.7864 77.1102C26.2658 77.1148 25.7519 76.9929 25.2889 76.755C24.826 76.5171 24.4279 76.1704 24.1291 75.7447C23.8302 75.319 23.6395 74.8272 23.5735 74.3115C23.5074 73.7958 23.5679 73.2718 23.7498 72.7847C23.9317 72.2976 24.2295 71.862 24.6176 71.5154C25.0056 71.1688 25.4723 70.9216 25.9773 70.7952C26.4823 70.6688 27.0105 70.667 27.5164 70.7898C28.0223 70.9126 28.4907 71.1565 28.8812 71.5003L29.5072 70.779C28.9045 70.2582 28.1647 69.9213 27.3757 69.8085C26.5867 69.6957 25.7819 69.8117 25.0571 70.1428C24.3323 70.4738 23.7181 71.0059 23.2876 71.6757C22.8571 72.3454 22.6285 73.1247 22.629 73.9205C22.6251 74.7178 22.8517 75.4993 23.2815 76.1713C23.7114 76.8432 24.3262 77.377 25.0524 77.7087C25.7785 78.0403 26.5851 78.1557 27.3752 78.041C28.1654 77.9263 28.9057 77.5864 29.5072 77.0621L28.8812 76.3087ZM20.2453 72.6303C20.2432 71.8976 19.9508 71.1956 19.432 70.6776C18.9131 70.1595 18.21 69.8675 17.4763 69.8654H7.84521V77.8795H8.8003V75.3631H11.6013V74.4094H8.8003V70.787H13.6159V77.8795H14.5709V75.3631H17.5164C17.6888 75.3633 17.8608 75.3472 18.0301 75.315L19.1377 77.8795H20.149L18.8969 74.9784C19.3049 74.7358 19.6434 74.3923 19.8796 73.9809C20.1158 73.5696 20.2417 73.1044 20.2453 72.6303ZM17.4763 74.4415H14.5308V70.8191H17.4763C17.9574 70.8191 18.4188 71.0099 18.7589 71.3496C19.0991 71.6892 19.2902 72.1499 19.2902 72.6303C19.2902 73.1106 19.0991 73.5713 18.7589 73.911C18.4188 74.2506 17.9574 74.4415 17.4763 74.4415Z" fill="white"/>
<path d="M24.1446 67.3795L23.2749 66.9854L21.0095 71.9696L21.8792 72.3638L24.1446 67.3795Z" fill="#DB0A88"/>
<path d="M125.939 76.3328C124.799 76.3366 123.674 76.0645 122.663 75.5398C121.651 75.0151 120.782 74.2534 120.129 73.3199C119.477 72.3864 119.061 71.3089 118.917 70.1797C118.772 69.0505 118.904 67.9033 119.301 66.8361C119.698 65.769 120.348 64.8138 121.195 64.0523C122.043 63.2908 123.062 62.7457 124.167 62.4637C125.271 62.1817 126.428 62.1711 127.537 62.4329C128.647 62.6948 129.676 63.2212 130.537 63.9671L131.91 62.3643C130.583 61.2168 128.954 60.4743 127.216 60.2252C125.479 59.976 123.706 60.2308 122.109 60.9592C120.513 61.6875 119.159 62.8587 118.21 64.3332C117.262 65.8078 116.757 67.5236 116.757 69.2764C116.757 71.0291 117.262 72.745 118.21 74.2195C119.159 75.6941 120.513 76.8653 122.109 77.5936C123.706 78.3219 125.479 78.5767 127.216 78.3276C128.954 78.0785 130.583 77.336 131.91 76.1885L130.537 74.5857C129.266 75.7034 127.632 76.324 125.939 76.3328ZM111.042 74.5216L100.609 60.4409H98.5139V78.1359H100.609V64.0632L111.042 78.1359H113.137V60.4409H111.042V74.5216ZM43.1431 78.1359H45.2459V70.3383H54.5319V68.2466H45.2699V62.5406H56.1611V60.4409H43.1671L43.1431 78.1359ZM80.5759 78.1359H93.5619V76.0443H82.6948V70.3383H91.9808V68.2466H82.6948V62.5406H93.586V60.4409H80.6L80.5759 78.1359ZM147.568 60.4409V68.2466H137.721V60.4409H135.626V78.1359H137.721V70.3383H147.568V78.1359H149.663V60.4409H147.568ZM75.0943 66.5236C75.0921 64.911 74.4496 63.3651 73.3077 62.2248C72.1657 61.0845 70.6175 60.443 69.0026 60.4409H60.0938V78.1359H62.1886V72.6063H69.0267C69.4096 72.6032 69.7913 72.5629 70.1663 72.486L72.5741 78.0959H74.7893L72.0364 71.6846C72.9552 71.1663 73.7228 70.4176 74.2633 69.5125C74.8037 68.6074 75.0985 67.5772 75.1183 66.5236H75.0943ZM69.0026 70.5306H62.1645V62.5726H69.0026C69.5656 62.5058 70.1364 62.5588 70.6775 62.7282C71.2185 62.8976 71.7174 63.1796 72.1413 63.5556C72.5653 63.9315 72.9046 64.3929 73.137 64.9093C73.3694 65.4257 73.4895 65.9854 73.4895 66.5516C73.4895 67.1177 73.3694 67.6775 73.137 68.1939C72.9046 68.7103 72.5653 69.1717 72.1413 69.5477C71.7174 69.9236 71.2185 70.2056 70.6775 70.375C70.1364 70.5444 69.5656 70.5975 69.0026 70.5306Z" fill="#282525"/>
<path d="M82.8153 83.1047C82.477 83.1029 82.1422 83.1723 81.8325 83.3083C81.5229 83.4444 81.2455 83.644 81.0183 83.8943C80.7912 84.1446 80.6194 84.4398 80.5141 84.7608C80.4089 85.0818 80.3726 85.4214 80.4075 85.7573C80.3774 86.0838 80.4157 86.4129 80.5202 86.7237C80.6247 87.0345 80.793 87.32 81.0144 87.5621C81.2357 87.8042 81.5052 87.9976 81.8056 88.1298C82.1061 88.262 82.4308 88.3301 82.7591 88.3299C84.2359 88.3299 85.1669 87.288 85.1669 85.6692C85.1997 85.3426 85.163 85.0129 85.0594 84.7014C84.9558 84.3899 84.7875 84.1038 84.5655 83.8617C84.3436 83.6197 84.0729 83.4271 83.7713 83.2967C83.4697 83.1662 83.144 83.1008 82.8153 83.1047ZM82.8153 87.3682C82.0127 87.3682 81.6114 86.5668 81.6114 85.7654C81.6114 84.964 81.9244 84.0984 82.8153 84.0984C83.7062 84.0984 84.0192 84.9479 84.0192 85.7012C83.9871 86.727 83.5135 87.3762 82.7832 87.3762L82.8153 87.3682ZM77.8151 88.2577H78.9388V83.1928H77.8071L77.8151 88.2577ZM51.4981 87.1117L51.4099 86.7751C51.3483 86.4194 51.1602 86.0979 50.8801 85.8696C51.0774 85.7613 51.246 85.6079 51.3722 85.4218C51.4984 85.2357 51.5785 85.0224 51.606 84.7993C51.6334 84.5763 51.6073 84.3499 51.53 84.1389C51.4526 83.9279 51.3262 83.7382 51.1611 83.5855C50.7056 83.2653 50.1507 83.1176 49.596 83.1688C49.1414 83.1656 48.6875 83.2031 48.2396 83.281H48.1353V88.2577H49.2429V86.3103H49.5559C49.9572 86.3103 50.1578 86.4305 50.3023 87.0556C50.3751 87.4524 50.4853 87.8415 50.6313 88.2177V88.2898H51.8192L51.7229 88.1055C51.6269 87.7793 51.5519 87.4474 51.4981 87.1117ZM49.6602 85.3967H49.2429V84.1145C49.3818 84.1037 49.5213 84.1037 49.6602 84.1145C50.0294 84.1145 50.4628 84.2267 50.4628 84.7556C50.4628 85.2845 50.1659 85.3887 49.6602 85.3887V85.3967ZM74.9579 85.2284C74.2998 84.972 74.1553 84.8277 74.1553 84.5552C74.1553 84.2828 74.3319 84.1065 74.8215 84.1065C75.136 84.1034 75.4468 84.1748 75.7284 84.3148L75.8729 84.3949L76.1458 83.4332L76.0574 83.3852C75.6799 83.204 75.2643 83.1161 74.8456 83.1288C73.7621 83.1288 73.0076 83.7458 73.0076 84.6434C73.0076 85.3246 73.4651 85.8215 74.3961 86.1581C75.0382 86.3905 75.1987 86.5828 75.1987 86.8392C75.1987 87.0957 74.9178 87.3682 74.4523 87.3682C74.0597 87.3761 73.6713 87.2881 73.3206 87.1117L73.1762 87.0236L72.9113 88.0013L72.9916 88.0574C73.4169 88.2721 73.8874 88.382 74.364 88.378C75.8087 88.378 76.3143 87.5285 76.3143 86.7751C76.3143 86.0218 75.8729 85.557 74.9258 85.2204L74.9579 85.2284ZM55.3425 83.1047C55.0043 83.1029 54.6694 83.1723 54.3598 83.3083C54.0502 83.4444 53.7728 83.644 53.5456 83.8943C53.3185 84.1446 53.1467 84.4398 53.0414 84.7608C52.9362 85.0818 52.8998 85.4214 52.9348 85.7573C52.9046 86.0838 52.943 86.4129 53.0475 86.7237C53.152 87.0345 53.3203 87.32 53.5417 87.5621C53.763 87.8042 54.0325 87.9976 54.3329 88.1298C54.6333 88.262 54.9581 88.3301 55.2864 88.3299C56.7632 88.3299 57.6942 87.288 57.6942 85.6692C57.727 85.3426 57.6903 85.0129 57.5867 84.7014C57.4831 84.3899 57.3148 84.1038 57.0928 83.8617C56.8709 83.6197 56.6002 83.4271 56.2986 83.2967C55.997 83.1662 55.6712 83.1008 55.3425 83.1047ZM55.3425 87.3682C54.5399 87.3682 54.1386 86.5668 54.1386 85.7654C54.1386 84.964 54.4517 84.0984 55.3425 84.0984C56.2334 84.0984 56.5464 84.9479 56.5464 85.7012C56.5143 86.727 56.0408 87.3762 55.3105 87.3762L55.3425 87.3682ZM64.9736 86.118H66.7875V85.1563H64.9736V84.1706H66.8919V83.1928H63.842V88.2577H67.0042V87.28H64.9736V86.118ZM59.2351 88.2577H60.3668V86.2061H62.0843V85.2364H60.3106V84.1706H62.2208V83.1928H59.179L59.2351 88.2577ZM70.343 85.2124C69.6849 84.9559 69.5003 84.8117 69.5003 84.5392C69.5003 84.2667 69.6769 84.0904 70.1664 84.0904C70.481 84.0873 70.7918 84.1587 71.0734 84.2988L71.2178 84.379L71.4907 83.4173L71.4024 83.3692C71.0014 83.1723 70.5565 83.0812 70.1103 83.1047C69.0268 83.1047 68.2723 83.7218 68.2723 84.6194C68.2723 85.3006 68.7298 85.7974 69.6608 86.134C70.3109 86.3664 70.4634 86.5588 70.4634 86.8152C70.4634 87.0717 70.1825 87.3441 69.717 87.3441C69.3327 87.337 68.9556 87.2381 68.6174 87.0556L68.473 86.9675L68.2081 87.9452L68.2884 88.0013C68.7137 88.216 69.1843 88.3259 69.6608 88.3219C71.1055 88.3219 71.6111 87.4724 71.6111 86.719C71.6111 85.9657 71.1938 85.557 70.2788 85.2204L70.343 85.2124ZM44.7082 83.1528C44.2512 83.1462 43.7945 83.1811 43.3438 83.257H43.2314V88.2417H44.3631V86.4385C44.4619 86.4472 44.5612 86.4472 44.66 86.4385C45.2469 86.4709 45.8232 86.2724 46.2652 85.8856C46.416 85.7297 46.5336 85.545 46.6108 85.3425C46.6881 85.14 46.7234 84.924 46.7147 84.7075C46.7196 84.4873 46.6754 84.2687 46.5851 84.0677C46.4949 83.8667 46.361 83.6883 46.193 83.5455C45.74 83.235 45.1899 83.0984 44.644 83.1608L44.7082 83.1528ZM44.66 85.557H44.3631V84.1465H44.7403C45.1336 84.1465 45.5911 84.2668 45.5911 84.8277C45.5911 85.3887 45.2299 85.5089 44.5959 85.5089L44.66 85.557ZM89.7095 85.0201C89.7095 85.4448 89.7095 85.8936 89.7095 86.3584C89.541 86.0218 89.3564 85.6772 89.1638 85.3406L87.8797 83.2169H86.6758V88.2818H87.7432V86.4305C87.7432 85.8696 87.7432 85.3967 87.7432 84.9479C87.9198 85.3005 88.1204 85.6772 88.3692 86.0939L89.6614 88.2818H90.777V83.2169H89.7095V85.0201ZM99.148 83.2169H98.0164V88.2818H101.13V87.272H99.0838L99.148 83.2169ZM95.0307 83.2169H93.7225L92.1173 88.1135L92.0692 88.2818H93.241L93.6583 86.9194H94.9906L95.3999 88.1936V88.2818H96.5958L94.9906 83.305L95.0307 83.2169ZM93.9151 85.9978L94.2362 84.972C94.2362 84.8357 94.3084 84.6834 94.3486 84.5392L94.4689 84.98L94.798 85.9978H93.9151ZM144.206 84.1225C144.511 84.1162 144.814 84.1735 145.096 84.2908L145.233 84.3549L145.482 83.4092L145.393 83.3611C145.009 83.1963 144.592 83.1196 144.174 83.1367C143.814 83.1124 143.454 83.1645 143.117 83.2894C142.779 83.4144 142.472 83.6095 142.216 83.8617C141.959 84.1139 141.76 84.4176 141.629 84.7527C141.499 85.0877 141.442 85.4465 141.461 85.8054C141.439 86.1492 141.491 86.4936 141.615 86.8154C141.738 87.1372 141.929 87.4287 142.174 87.6704C142.42 87.912 142.715 88.0981 143.039 88.2161C143.363 88.334 143.709 88.381 144.053 88.3539C144.497 88.3682 144.94 88.2919 145.353 88.1295H145.442L145.257 87.1839L145.104 87.248C144.814 87.3553 144.507 87.4096 144.198 87.4082C143.985 87.4236 143.772 87.3921 143.574 87.3162C143.375 87.2402 143.195 87.1216 143.048 86.9687C142.9 86.8159 142.787 86.6324 142.719 86.4314C142.65 86.2304 142.626 86.0167 142.649 85.8054C142.614 85.5923 142.627 85.3742 142.687 85.1667C142.747 84.9592 142.852 84.7675 142.995 84.6052C143.137 84.4429 143.314 84.314 143.512 84.2278C143.71 84.1416 143.925 84.1002 144.141 84.1065L144.206 84.1225ZM138.86 88.2818H139.936V83.2169H138.796L138.86 88.2818ZM133.692 84.2026H135.064V88.2818H136.196V84.2026H137.528V83.2169H133.635L133.692 84.2026ZM148.748 85.2364C148.082 84.98 147.906 84.8357 147.906 84.5633C147.906 84.2908 148.082 84.1145 148.572 84.1145C148.886 84.1114 149.197 84.1828 149.479 84.3228L149.615 84.403L149.896 83.4413L149.8 83.3932C149.425 83.2109 149.012 83.1229 148.596 83.1367C147.512 83.1367 146.758 83.7538 146.758 84.6514C146.758 85.3326 147.215 85.8295 148.146 86.1661C148.788 86.3985 148.949 86.5908 148.949 86.8472C148.949 87.1037 148.668 87.3762 148.203 87.3762C147.818 87.3719 147.44 87.2728 147.103 87.0877L146.958 86.9995L146.694 87.9773L146.766 88.0334C147.194 88.2481 147.667 88.358 148.146 88.3539C149.583 88.3539 150.097 87.5044 150.097 86.7511C150.097 85.9978 149.567 85.557 148.684 85.2204L148.748 85.2364ZM109.365 84.1225C109.67 84.1162 109.974 84.1735 110.256 84.2908L110.392 84.3549L110.641 83.4092L110.553 83.3611C110.168 83.1963 109.751 83.1196 109.333 83.1367C108.974 83.1124 108.614 83.1645 108.276 83.2894C107.939 83.4144 107.632 83.6095 107.375 83.8617C107.119 84.1139 106.919 84.4176 106.789 84.7527C106.659 85.0877 106.601 85.4465 106.62 85.8054C106.598 86.1492 106.651 86.4936 106.774 86.8154C106.897 87.1372 107.088 87.4287 107.334 87.6704C107.58 87.912 107.875 88.0981 108.199 88.2161C108.523 88.334 108.869 88.381 109.213 88.3539C109.657 88.3698 110.1 88.2934 110.513 88.1295H110.609L110.416 87.1839L110.264 87.248C109.974 87.356 109.667 87.4104 109.357 87.4082C109.145 87.4236 108.932 87.3921 108.733 87.3162C108.534 87.2402 108.355 87.1216 108.207 86.9687C108.059 86.8159 107.947 86.6324 107.878 86.4314C107.809 86.2304 107.785 86.0167 107.808 85.8054C107.774 85.5923 107.787 85.3742 107.847 85.1667C107.907 84.9592 108.011 84.7675 108.154 84.6052C108.297 84.4429 108.473 84.314 108.672 84.2278C108.87 84.1416 109.085 84.1002 109.301 84.1065L109.365 84.1225ZM114.036 83.1288C113.698 83.127 113.363 83.1963 113.053 83.3323C112.744 83.4684 112.466 83.6681 112.239 83.9183C112.012 84.1686 111.84 84.4639 111.735 84.7849C111.63 85.1059 111.593 85.4455 111.628 85.7814C111.598 86.1072 111.636 86.4356 111.74 86.7458C111.844 87.056 112.012 87.3412 112.233 87.5832C112.453 87.8252 112.722 88.0187 113.021 88.1514C113.32 88.2841 113.644 88.3531 113.972 88.3539C115.449 88.3539 116.38 87.3121 116.38 85.6932C116.417 85.36 116.382 85.0226 116.276 84.7042C116.171 84.3858 115.998 84.0938 115.77 83.8481C115.541 83.6024 115.262 83.4088 114.952 83.2805C114.642 83.1522 114.308 83.0923 113.972 83.1047L114.036 83.1288ZM114.036 87.3922C113.234 87.3922 112.824 86.5908 112.824 85.7894C112.824 84.988 113.145 84.1225 114.036 84.1225C114.927 84.1225 115.232 84.972 115.232 85.7253C115.144 86.7271 114.678 87.3762 113.948 87.3762L114.036 87.3922ZM119.743 85.2364C119.076 84.98 118.9 84.8357 118.9 84.5633C118.9 84.2908 119.076 84.1145 119.566 84.1145C119.881 84.1114 120.191 84.1828 120.473 84.3228L120.609 84.403L120.89 83.4413L120.794 83.3932C120.42 83.2109 120.006 83.1229 119.59 83.1367C118.507 83.1367 117.752 83.7538 117.752 84.6514C117.752 85.3326 118.21 85.8295 119.141 86.1661C119.783 86.3985 119.943 86.5908 119.943 86.8472C119.943 87.1037 119.662 87.3762 119.197 87.3762C118.812 87.3719 118.434 87.2728 118.097 87.0877L117.953 86.9995L117.688 87.9773L117.768 88.0334C118.193 88.2481 118.664 88.3579 119.141 88.3539C120.585 88.3539 121.091 87.5044 121.091 86.7511C121.091 85.9978 120.561 85.557 119.654 85.2204L119.743 85.2364ZM130.578 86.142H132.391V85.1804H130.578V84.1946H132.496V83.2169H129.446V88.2818H132.608V87.3041H130.578V86.142ZM127.552 83.2169H126.195L125.505 85.2284C125.353 85.6772 125.232 86.1019 125.136 86.4546C125.04 86.0539 124.927 85.6531 124.807 85.2364L124.173 83.305V83.2169H122.808L122.479 88.1455V88.2818H123.563L123.675 86.2222C123.675 85.8776 123.675 85.4849 123.731 85.0681C123.82 85.4047 123.916 85.7494 124.012 86.0779L124.687 88.2177H125.545L126.276 86.0539C126.404 85.7093 126.525 85.3406 126.629 84.98C126.629 85.3326 126.629 85.6852 126.677 86.0138L126.781 88.2818H127.897L127.608 83.3371L127.552 83.2169Z" fill="#282525"/>
</g>
</g>
<defs>
<clipPath id="clip0_395_318">
<rect width="150" height="150" rx="30" fill="white"/>
</clipPath>
<clipPath id="clip1_395_318">
<rect width="148.889" height="34.4444" fill="white" transform="translate(1.11133 56.6665)"/>
</clipPath>
</defs>
</svg>
