<svg width="150" height="150" viewBox="0 0 150 150" fill="none" xmlns="http://www.w3.org/2000/svg">
<path d="M58.4617 78.1419C58.0606 78.2179 57.6978 78.3058 57.3732 78.4052C56.9132 78.5461 56.5223 78.7653 56.2003 79.0628C55.8783 79.3603 55.6407 79.7517 55.4873 80.2371C55.334 80.7224 55.2573 81.3722 55.2573 82.1864V89.0441C54.46 89.0754 53.5478 89.1459 52.5204 89.2555C51.4932 89.3651 50.1517 89.6078 48.4957 89.9835C47.0851 90.328 45.8201 90.6021 44.7009 90.8056C43.5815 91.0091 42.332 91.1109 40.9521 91.1109C38.3455 91.1109 36.0763 90.6255 34.1444 89.6548C32.2124 88.6841 30.6026 87.4314 29.3146 85.8971C28.0266 84.3627 27.0684 82.6404 26.4397 80.7303C26.296 80.2935 26.1687 79.8575 26.0579 79.4224L26.1376 79.3467L26.1256 79.3336L26.1259 79.3331L26.1419 79.3506C26.1638 79.3298 26.1846 79.3082 26.2044 79.2861C26.2388 79.2522 26.2756 79.2154 26.315 79.1752L26.3017 79.1616L26.3029 79.1598L26.3187 79.176L26.3221 79.1725L26.3229 79.1718L26.3256 79.1689L26.3265 79.1679C26.3376 79.1563 26.3486 79.1446 26.3592 79.1327L26.4801 79.0032C26.5278 78.9526 26.499 78.9806 26.6418 78.8248C26.7934 78.6593 26.7846 78.673 26.8205 78.6322C26.8346 78.6162 26.8898 78.5518 26.9949 78.4283L26.9975 78.4306C27.0263 78.3968 27.0528 78.3618 27.077 78.3258L27.1286 78.2632L27.1308 78.2651L27.1329 78.2625L27.1349 78.2642C27.1527 78.2425 27.1694 78.2205 27.1855 78.1981L27.3097 78.0442L27.2874 78.0254L27.2875 78.0252L27.3131 78.0468C27.3327 78.0224 27.3512 77.9975 27.3686 77.9721L27.3944 77.9392L27.3967 77.9411C27.4161 77.9167 27.4341 77.8917 27.4513 77.8663C27.4909 77.8159 27.5278 77.7689 27.5609 77.7252L27.5637 77.7275C27.5834 77.7014 27.602 77.6748 27.6191 77.6477C27.686 77.5619 27.6977 77.5464 27.7082 77.5326L27.7592 77.4654L27.76 77.4661L27.7693 77.4539L27.7711 77.4554C27.7886 77.4323 27.8052 77.4088 27.8207 77.3848L27.9603 77.1955L27.9625 77.1973L27.9635 77.196L27.9648 77.1972C27.9775 77.1801 27.9895 77.1627 28.0011 77.1452L28.0071 77.137L28.0065 77.1366L28.0068 77.1362L28.0086 77.1376C28.0626 77.0647 28.1069 76.9874 28.1417 76.9071C28.1588 76.8717 28.1752 76.8348 28.191 76.796C28.2319 76.695 28.2618 76.5923 28.2811 76.4843L28.2389 76.4764V76.4761L28.2848 76.4847C28.2989 76.406 28.3049 76.3276 28.3034 76.2505C28.3045 76.1912 28.3021 76.1321 28.296 76.073L28.2869 76.074L28.2868 76.0732L28.2984 76.0719C28.2909 76 28.2772 75.9303 28.2577 75.8633C28.2431 75.8077 28.2248 75.7515 28.2027 75.6946L28.201 75.6901L28.2053 75.6885C28.1858 75.6388 28.1635 75.5915 28.1385 75.5462C28.0421 75.3527 27.9078 75.1917 27.7355 75.0626C27.534 74.9117 27.3048 74.822 27.0489 74.7903C26.9155 74.7743 26.7778 74.7789 26.6349 74.8049L26.6343 74.8012L26.6263 74.8028L26.6262 74.8019C26.6116 74.8047 26.597 74.8077 26.5826 74.811L26.5818 74.8011H26.5821L26.5779 74.7576L26.5784 74.7575L26.5757 74.7363C26.5689 74.6776 26.5592 74.6157 26.5471 74.5514L26.5363 74.5535L26.5356 74.5514L26.5487 74.5489C26.5436 74.5223 26.5377 74.4962 26.5309 74.4703C26.5184 74.415 26.5031 74.3584 26.4856 74.3014L26.4749 74.3049L26.4738 74.3023L26.4866 74.2982C26.4704 74.2453 26.4507 74.1945 26.428 74.1458C26.4112 74.1022 26.3941 74.0622 26.3771 74.0259C26.334 73.9353 26.29 73.8545 26.2452 73.7846L26.2431 73.7861L26.2427 73.7854L26.2458 73.7834C26.2257 73.752 26.2043 73.7221 26.1818 73.6933C26.1264 73.6127 26.0704 73.5398 26.0142 73.4755C25.9273 73.3761 25.8308 73.2831 25.7257 73.1975L25.727 73.1958C25.6977 73.172 25.6676 73.15 25.6369 73.1296L25.5968 73.1003C25.7629 71.5203 26.1358 70.0319 26.7158 68.6353C27.5283 66.6781 28.64 64.9714 30.0506 63.5154C31.4612 62.0593 33.1017 60.9242 34.9724 60.1099C36.8429 59.2958 38.8514 58.8887 40.998 58.8887C41.4886 58.8887 42.0789 58.92 42.7689 58.9826C43.4589 59.0453 44.2255 59.2175 45.0688 59.4993C45.9122 59.7811 46.8398 60.2038 47.8517 60.7675C48.8637 61.3312 49.9369 62.114 51.0716 63.1162C51.4702 62.3646 51.7538 61.7461 51.9225 61.2607C52.0912 60.7754 52.2216 60.3134 52.3136 59.8752H53.2795L53.4634 69.0345H52.5894C52.2828 67.9697 51.9225 67.046 51.5085 66.2631C51.0946 65.4803 50.6346 64.8071 50.1287 64.2435C49.6226 63.6798 49.0936 63.2023 48.5416 62.8107C47.9897 62.4194 47.4377 62.0827 46.8858 61.8009C46.3032 61.4878 45.7511 61.2529 45.2298 61.0963C44.7085 60.9397 44.2332 60.8301 43.8039 60.7675C43.3746 60.705 43.0219 60.6736 42.7459 60.6736C42.47 60.6736 42.286 60.6736 42.1939 60.6736C41.0593 60.6736 39.8711 60.8693 38.6291 61.2607C37.3872 61.6522 36.2526 62.3802 35.2253 63.4448C34.198 64.5096 33.347 65.95 32.6725 67.7662C31.9978 69.5825 31.6605 71.9309 31.6605 74.8119C31.6605 76.1271 31.7602 77.6302 31.9595 79.321C32.1588 81.012 32.6112 82.6248 33.3164 84.1592C34.0217 85.6936 35.0643 86.9852 36.4442 88.0343C37.8241 89.0833 39.6794 89.6078 42.01 89.6078C43.8193 89.6078 45.2528 89.3729 46.3108 88.9033C47.3687 88.4335 48.1661 87.8464 48.7026 87.1418C49.2393 86.4372 49.5843 85.6544 49.7376 84.7932C49.8442 84.1944 49.9138 83.6222 49.9462 83.0762C50.0406 83.0287 50.1176 82.9857 50.1777 82.9474C50.2363 82.91 50.3094 82.8578 50.3982 82.7899C50.4637 82.7396 50.53 82.6847 50.5964 82.6246L50.5971 82.6254L50.6111 82.6131L50.6133 82.6156C50.6369 82.594 50.6595 82.5718 50.6809 82.5486C50.7239 82.5077 50.7646 82.4668 50.8028 82.4261C50.8578 82.3675 50.9179 82.2976 50.9817 82.2186C51.0282 82.1607 51.0818 82.0874 51.1404 82.0028L51.1452 82.0063C51.1613 81.9828 51.1767 81.9589 51.1911 81.9347C51.2234 81.886 51.2544 81.8372 51.2837 81.7891L51.2853 81.7901C51.3128 81.7449 51.3369 81.6985 51.3578 81.6512C51.5907 81.1957 51.7233 80.6491 51.7547 80.0122C51.7731 79.6394 51.7569 79.2318 51.7059 78.7898C52.0693 78.5465 52.3912 78.3073 52.6711 78.0723C53.1489 77.6712 53.5075 77.273 53.7461 76.8787H58.7315C58.6485 77.2109 58.5748 77.5425 58.5095 77.8746L58.5092 77.8745C58.5055 77.8933 58.5024 77.9123 58.4996 77.931C58.4861 78.0022 58.4735 78.0725 58.4617 78.1419ZM22.5387 74.6802C20.6876 76.1437 18.8332 77.5073 14.8988 75.0286C14.8232 74.981 14.7478 74.9341 14.6724 74.8881C12.4751 73.544 10.4488 72.8978 8.46575 72.936C6.41016 72.9755 4.41524 73.7479 2.33869 75.2376C2.21474 75.3265 2.18501 75.5015 2.27211 75.628C2.3593 75.7545 2.53052 75.785 2.65447 75.6959C2.77611 75.6087 2.89738 75.524 3.01837 75.4419C4.87308 74.1832 6.65473 73.5301 8.47434 73.4952C10.1288 73.4635 11.8253 73.9411 13.6468 74.9368C13.9644 75.1103 14.2855 75.2995 14.6111 75.5045C17.9859 77.6308 19.9438 77.1415 21.6077 76.0589L21.5798 76.1211C21.4145 76.502 21.3035 76.8999 21.2492 77.31C21.1925 77.7175 21.1996 78.0937 21.2704 78.4338C21.3389 78.7714 21.49 79.0681 21.7262 79.3236C21.8442 79.4491 21.9813 79.5551 22.137 79.6372C22.2929 79.7192 22.4701 79.7794 22.6662 79.818C22.7818 79.8398 22.8975 79.8494 23.0157 79.8445C23.1337 79.8421 23.2541 79.8252 23.3793 79.7964C23.5045 79.7698 23.625 79.7312 23.743 79.6878C23.8612 79.642 23.9745 79.5889 24.0855 79.5286C24.3074 79.4105 24.5412 79.2465 24.7916 79.0414C24.9143 78.9402 25.0324 78.8389 25.1434 78.74C25.2545 78.6388 25.3583 78.5399 25.4552 78.441C25.5519 78.3421 25.6512 78.236 25.7551 78.1227C25.8589 78.0093 25.9676 77.8864 26.0786 77.7561C26.1873 77.6235 26.2865 77.5053 26.3738 77.3968C26.4612 77.2858 26.5392 77.1894 26.6029 77.1051C26.669 77.0206 26.7375 76.9289 26.8107 76.8325C26.8839 76.7384 26.9595 76.6348 27.0398 76.5262C27.0729 76.4708 27.0942 76.4201 27.1036 76.367C27.1106 76.314 27.1059 76.2633 27.0869 76.2151C27.054 76.1139 26.9784 76.0584 26.8603 76.0439C26.8013 76.0366 26.7493 76.0464 26.7021 76.0728C26.6572 76.097 26.617 76.1404 26.584 76.2007C26.5368 76.273 26.4872 76.3527 26.4281 76.4346C26.3691 76.5166 26.303 76.6034 26.2298 76.695C26.1565 76.7867 26.0787 76.8831 25.9912 76.9869C25.9062 77.0881 25.8141 77.1966 25.7172 77.31C25.6205 77.4233 25.5236 77.5342 25.422 77.6427C25.3229 77.7513 25.219 77.8574 25.115 77.9612C25.0111 78.0624 24.9049 78.1637 24.7962 78.2625C24.6853 78.3614 24.5743 78.4578 24.4585 78.5544C24.3452 78.6507 24.2319 78.7351 24.1232 78.8075C24.0123 78.8823 23.9059 78.9427 23.8021 78.9933C23.6981 79.0414 23.5966 79.0824 23.495 79.1138C23.3935 79.1452 23.292 79.1669 23.1927 79.1765C22.992 79.1982 22.8197 79.1404 22.6732 79.0076C22.3497 78.7448 22.2458 78.2287 22.3615 77.4596C22.3874 77.2931 22.4346 77.1074 22.5079 76.9073C22.5787 76.7047 22.6732 76.4828 22.7912 76.2417C22.9684 75.8824 23.1455 75.5785 23.3227 75.3348C23.4997 75.0913 23.6769 74.9056 23.8563 74.7778C24.0855 74.6114 24.2815 74.5728 24.4444 74.6621C24.774 74.8424 24.7223 75.3435 24.9994 75.3808C25.056 75.388 25.1198 75.3662 25.1931 75.3156C25.2639 75.2674 25.3158 75.2143 25.3489 75.1613C25.3796 75.1083 25.3938 75.0503 25.3867 74.9901C25.3796 74.9031 25.363 74.8188 25.3394 74.7416C25.3135 74.6621 25.2781 74.5873 25.2332 74.5173C25.1552 74.3943 25.0631 74.2883 24.9592 74.2039C24.8553 74.1171 24.7396 74.052 24.612 74.0013C24.4822 73.953 24.3547 73.9216 24.2272 73.9097C24.0973 73.9001 23.9674 73.9048 23.8351 73.9315C23.7052 73.9554 23.5777 73.9941 23.4525 74.0424C23.3274 74.093 23.207 74.158 23.0888 74.2351C22.9616 74.316 22.8406 74.4066 22.7263 74.5052L22.5387 74.6802ZM93.4261 70.1718C93.3836 70.273 93.3316 70.4081 93.2656 70.5745C93.2017 70.7409 93.1238 70.941 93.0388 71.175C92.9513 71.4089 92.8546 71.6789 92.7483 71.9901C92.642 72.3012 92.5263 72.6484 92.4012 73.0319C92.2783 73.4177 92.1603 73.8011 92.0494 74.1822C91.9359 74.5632 91.832 74.9394 91.7305 75.3156C91.6312 75.6894 91.5416 76.068 91.466 76.449C91.3881 76.8277 91.3219 77.211 91.2676 77.5969C91.1566 78.3663 91.1353 78.9884 91.2062 79.4611C91.225 79.6034 91.2534 79.7384 91.2888 79.8638C91.3219 79.9916 91.3715 80.1267 91.4329 80.2666C91.4967 80.4088 91.5793 80.5221 91.6832 80.6065C91.7351 80.65 91.7895 80.6838 91.8486 80.7078C91.9076 80.7319 91.9689 80.7441 92.0351 80.7489C92.25 80.7561 92.5193 80.6283 92.8451 80.3654C93.008 80.2353 93.164 80.0953 93.3175 79.9482C93.4709 79.7988 93.6198 79.6395 93.7638 79.4683C94.0542 79.1307 94.366 78.7279 94.6989 78.2601C94.8642 78.0286 95.0083 77.8212 95.1312 77.6404C95.2516 77.4619 95.3531 77.3076 95.4311 77.1797C95.5114 77.0544 95.5893 76.9289 95.6649 76.8084C95.7428 76.6878 95.816 76.5696 95.8893 76.4514C95.9105 76.4176 95.9246 76.3839 95.9318 76.3526C95.9388 76.3213 95.9412 76.2947 95.9365 76.2682C95.9294 76.2151 95.9057 76.1766 95.8609 76.1524C95.816 76.1259 95.7546 76.1139 95.6743 76.1139C95.5846 76.109 95.509 76.1235 95.4476 76.1548C95.3862 76.1862 95.339 76.2344 95.3083 76.2971C95.2965 76.314 95.2704 76.355 95.2303 76.4176C95.1879 76.4804 95.1312 76.5648 95.0579 76.6709C94.9847 76.777 94.9115 76.8831 94.836 76.9893C94.7603 77.0978 94.6849 77.2038 94.6092 77.3147C94.4557 77.5342 94.2763 77.7874 94.0685 78.0768C93.9646 78.2216 93.8654 78.3614 93.7685 78.4964C93.6694 78.6292 93.5749 78.7593 93.4804 78.8823C93.3883 79.0053 93.2962 79.1258 93.2041 79.244C93.1143 79.3598 93.0246 79.4731 92.9349 79.5816C92.8451 79.6926 92.7625 79.7915 92.6845 79.8783C92.609 79.9652 92.5357 80.0423 92.472 80.1049C92.4059 80.1677 92.3492 80.2159 92.2996 80.2473C92.2524 80.281 92.2146 80.2955 92.1862 80.2955C92.1603 80.2955 92.1366 80.281 92.1154 80.2545C92.0965 80.2256 92.08 80.1822 92.0705 80.1267C92.0588 80.0689 92.0516 80.0085 92.0494 79.941C92.0446 79.8734 92.0421 79.8011 92.0421 79.724C92.0421 79.6468 92.0421 79.5865 92.0421 79.5479C92.0421 79.5093 92.0421 79.4876 92.0421 79.4828C92.1248 78.3469 92.4507 76.8615 93.0176 75.0335C93.3009 74.1171 93.5867 73.2682 93.8748 72.482C94.1605 71.6983 94.4487 70.9773 94.7415 70.3189C94.9824 70.343 95.2375 70.3574 95.509 70.3647C95.7782 70.372 96.1112 70.3647 96.5056 70.343C96.7016 70.3333 96.893 70.3164 97.0818 70.2948C97.2684 70.2755 97.4526 70.2489 97.632 70.2152C97.8116 70.1839 97.9933 70.1428 98.1776 70.0898C98.3618 70.0367 98.5483 69.974 98.7396 69.8992C99.1199 69.7497 99.4528 69.5665 99.7363 69.347C99.878 69.2385 100.008 69.1131 100.131 68.9708C100.251 68.8285 100.362 68.6694 100.461 68.4933C100.563 68.3172 100.643 68.1268 100.702 67.9266C100.761 67.7264 100.801 67.5142 100.823 67.2924C100.832 67.2321 100.83 67.179 100.816 67.1332C100.801 67.0874 100.773 67.0488 100.733 67.0175C100.69 66.9837 100.645 66.9644 100.598 66.9571C100.551 66.9499 100.501 66.9571 100.449 66.974C100.397 66.9908 100.353 67.0199 100.32 67.0584C100.284 67.0994 100.258 67.15 100.242 67.2152C100.227 67.4129 100.194 67.5986 100.142 67.7746C100.09 67.9507 100.02 68.1147 99.9299 68.2666C99.8401 68.4186 99.7386 68.5559 99.63 68.679C99.519 68.802 99.4008 68.9105 99.271 69.0022C99.1435 69.0938 99.0065 69.1758 98.8577 69.2505C98.709 69.3253 98.5483 69.3928 98.3807 69.4531C98.0406 69.5737 97.7147 69.6581 97.403 69.7088C97.0936 69.7569 96.7677 69.786 96.4276 69.7932C96.26 69.7956 96.1041 69.798 95.9671 69.798C95.8303 69.7956 95.7098 69.7932 95.6059 69.786C95.5019 69.7787 95.4004 69.7714 95.3059 69.7618C95.209 69.7546 95.1169 69.745 95.032 69.7354C95.1382 69.5206 95.2469 69.3108 95.3579 69.1106C95.4688 68.9105 95.5799 68.7176 95.6956 68.5344C95.7405 68.4716 95.7616 68.404 95.757 68.3365C95.7546 68.269 95.7262 68.1991 95.6743 68.1243C95.6223 68.0496 95.5609 67.9918 95.4878 67.9484C95.4169 67.9049 95.3366 67.876 95.2445 67.864C95.1548 67.8494 95.065 67.8566 94.9705 67.8832C94.8785 67.9121 94.7864 67.9627 94.6919 68.0328C94.5454 68.175 94.4085 68.3438 94.2763 68.5416C94.1463 68.7393 94.0495 68.9008 93.9858 69.0286C93.955 69.0914 93.915 69.1733 93.8678 69.2723C93.8182 69.3735 93.7614 69.4917 93.6953 69.6292C93.5441 69.6218 93.2465 69.5858 92.8026 69.5231C92.5807 69.4917 92.3728 69.4651 92.1768 69.4434C91.9807 69.4218 91.7966 69.4049 91.6265 69.3905C91.4566 69.3759 91.2746 69.3687 91.0787 69.3687C90.8826 69.3687 90.6724 69.3735 90.4505 69.3832C90.0088 69.4049 89.5861 69.4965 89.1847 69.6582C88.9839 69.7401 88.795 69.8366 88.6155 69.9523C88.4337 70.0657 88.266 70.1958 88.1054 70.3454C88.0771 70.3647 88.0534 70.3888 88.0346 70.4153C88.0133 70.4394 87.9992 70.4683 87.9874 70.4997C87.9614 70.5697 87.9542 70.6371 87.9661 70.6999C87.9803 70.7626 88.0133 70.8205 88.0653 70.8734C88.1173 70.9266 88.1692 70.9532 88.2236 70.9483C88.2802 70.9459 88.3345 70.9146 88.3889 70.8542C88.4904 70.7505 88.6014 70.6565 88.7266 70.5745C88.8516 70.4901 88.9887 70.4153 89.1374 70.3526C89.2863 70.2875 89.4327 70.2345 89.5767 70.1935C89.7207 70.1501 89.8624 70.1187 90.0018 70.097C90.2781 70.0561 90.604 70.0343 90.977 70.0343C91.1637 70.0343 91.3337 70.0367 91.4872 70.0439C91.6383 70.0488 91.7753 70.0585 91.8958 70.0681C92.0186 70.08 92.1509 70.0922 92.2973 70.1091C92.4412 70.1259 92.5995 70.1428 92.7696 70.1645C92.9372 70.1862 93.0766 70.2031 93.1829 70.2176C93.2914 70.2296 93.3671 70.2392 93.4119 70.2417L93.4261 70.1718ZM130.94 76.4732C130.801 76.6202 130.65 76.7602 130.484 76.8928C130.319 77.023 130.135 77.1557 129.934 77.2883C129.733 77.4233 129.514 77.5632 129.275 77.703C129.178 77.2762 129.1 76.8953 129.044 76.56C128.989 76.2248 128.952 75.9378 128.935 75.6966C128.928 75.605 128.928 75.5062 128.935 75.4C128.938 75.347 128.945 75.2915 128.949 75.2361C128.956 75.1782 128.966 75.1179 128.975 75.0527C128.997 74.9273 129.039 74.8212 129.1 74.7368C129.164 74.6501 129.24 74.6091 129.33 74.6091C129.353 74.6091 129.372 74.6138 129.389 74.6234C129.403 74.6332 129.412 74.6476 129.419 74.6644C129.434 74.7007 129.434 74.7513 129.419 74.814C129.412 74.8454 129.405 74.8767 129.398 74.9081C129.391 74.9418 129.382 74.9732 129.372 75.0045C129.351 75.0673 129.33 75.1251 129.308 75.1733C129.299 75.1998 129.292 75.2192 129.287 75.2312C129.282 75.2457 129.28 75.2554 129.28 75.2578C129.278 75.2914 129.28 75.3228 129.285 75.3542C129.292 75.3855 129.301 75.4169 129.315 75.4507C129.33 75.482 129.346 75.5109 129.363 75.5351C129.382 75.5615 129.403 75.5833 129.426 75.6049C129.476 75.6483 129.537 75.6556 129.613 75.6267C129.651 75.6123 129.689 75.5881 129.726 75.5519C129.766 75.5158 129.804 75.4675 129.842 75.4072L129.889 75.4434C129.977 75.3205 130.038 75.1951 130.076 75.0673C130.114 74.9394 130.128 74.8068 130.118 74.6741C130.109 74.539 130.078 74.4209 130.031 74.3173C129.981 74.2159 129.915 74.1268 129.828 74.052C129.724 73.9603 129.599 73.8977 129.455 73.8614C129.382 73.8421 129.306 73.8349 129.23 73.8349C129.155 73.8349 129.079 73.847 129.004 73.8687C128.928 73.888 128.85 73.9169 128.777 73.953C128.701 73.9892 128.626 74.0351 128.553 74.0858C128.409 74.1918 128.283 74.3486 128.18 74.5535C128.128 74.6548 128.083 74.7658 128.045 74.8863C128.009 75.007 127.979 75.1372 127.958 75.2746C127.927 75.5037 127.943 75.8727 128.005 76.3815C128.068 76.8903 128.18 77.5391 128.34 78.3253C128.196 78.4241 128.054 78.5302 127.915 78.6435C127.773 78.7569 127.634 78.8775 127.495 79.0029C127.355 79.1308 127.218 79.2706 127.086 79.4225C126.952 79.5744 126.819 79.7384 126.692 79.9144C126.564 80.0929 126.463 80.2617 126.387 80.4233C126.311 80.5873 126.264 80.7416 126.243 80.8912C126.226 81.0142 126.222 81.1299 126.226 81.2408C126.234 81.3517 126.252 81.4555 126.286 81.5542C126.316 81.6532 126.356 81.7424 126.404 81.8196C126.453 81.8968 126.512 81.9643 126.581 82.0197C126.649 82.0776 126.725 82.1259 126.805 82.1692C126.883 82.2126 126.968 82.2488 127.058 82.2826C127.237 82.3454 127.433 82.367 127.639 82.3454C127.743 82.3357 127.846 82.3163 127.948 82.2923C128.047 82.2682 128.149 82.2368 128.248 82.1958C128.35 82.1573 128.446 82.109 128.541 82.0487C128.635 81.9885 128.727 81.9184 128.817 81.8365C128.907 81.7569 128.989 81.6677 129.068 81.5712C129.143 81.4772 129.214 81.3735 129.28 81.2649C129.632 80.6355 129.682 79.6468 129.426 78.2987C130.128 77.8764 130.707 77.388 131.25 76.8665C131.504 76.6225 131.751 76.3777 132.001 76.1435C133.049 75.163 134.151 74.367 136.037 74.5814C137.153 74.7081 138.346 75.1368 139.571 75.7728C140.206 76.102 140.849 76.4866 141.494 76.9136C142.709 77.7171 144.037 77.9309 145.404 77.6936C146.888 77.436 148.416 76.6434 149.892 75.4983C150.012 75.4051 150.036 75.2296 149.944 75.1067C149.853 74.9839 149.681 74.9598 149.561 75.053C149.452 75.1373 149.343 75.2196 149.234 75.2997C147.931 76.2584 146.599 76.9177 145.314 77.1409C144.078 77.3553 142.882 77.1647 141.793 76.4442C141.405 76.1874 141.017 75.9456 140.631 75.7209C139.067 74.8111 137.53 74.1869 136.097 74.0243C133.362 73.7136 132.517 74.752 130.94 76.4732ZM103.32 76.3116C103.265 76.3574 103.209 76.4249 103.15 76.5118C103.091 76.5986 103.029 76.7072 102.968 76.8349C102.906 76.9603 102.847 77.0977 102.791 77.2424C102.734 77.3872 102.68 77.5415 102.63 77.703C102.526 78.0286 102.455 78.3687 102.422 78.7208C102.403 78.8968 102.396 79.0681 102.396 79.2296C102.396 79.3912 102.403 79.5431 102.422 79.6902C102.439 79.8349 102.474 79.9675 102.526 80.0857C102.578 80.2063 102.647 80.31 102.732 80.404C102.819 80.4956 102.921 80.5631 103.039 80.609C103.157 80.6549 103.289 80.6741 103.438 80.6717C103.681 80.6645 104.13 80.3606 104.786 79.7601C105.445 79.1596 106.066 78.523 106.654 77.8526C107.242 77.1797 107.589 76.7215 107.693 76.4732C107.703 76.449 107.712 76.4249 107.719 76.4008C107.726 76.3767 107.731 76.355 107.733 76.3332C107.745 76.2586 107.733 76.2007 107.703 76.1621C107.67 76.1236 107.618 76.1018 107.54 76.0994C107.462 76.097 107.386 76.109 107.318 76.1404C107.249 76.1717 107.186 76.2199 107.126 76.2826C107.004 76.4563 106.791 76.724 106.484 77.0833C106.175 77.4426 105.776 77.8984 105.285 78.4458C104.793 78.9933 104.401 79.4055 104.108 79.6805C103.816 79.9554 103.622 80.0929 103.528 80.0929C103.494 80.0929 103.464 80.0857 103.44 80.0712C103.416 80.0567 103.398 80.0327 103.383 80.0013C103.369 79.9699 103.36 79.9314 103.355 79.8855C103.353 79.8398 103.35 79.7867 103.355 79.7263C103.362 79.6058 103.376 79.4779 103.398 79.3429C103.416 79.2102 103.452 79.0536 103.499 78.8775C103.525 78.7883 103.549 78.7039 103.572 78.6219C103.596 78.5398 103.622 78.4603 103.646 78.3831C103.669 78.306 103.695 78.2239 103.723 78.1419C103.752 78.0599 103.78 77.9755 103.811 77.8887C103.844 77.7995 103.872 77.7199 103.898 77.6477C103.927 77.5776 103.95 77.5126 103.971 77.4571L104.101 77.1098C104.123 77.0543 104.139 77.0085 104.149 76.9772C104.16 76.9459 104.168 76.9266 104.172 76.9193C104.203 76.8228 104.219 76.7384 104.224 76.6612C104.229 76.584 104.219 76.5166 104.198 76.4611C104.179 76.4033 104.149 76.355 104.111 76.3116C104.075 76.2705 104.03 76.2368 103.979 76.2127C103.927 76.1885 103.87 76.1717 103.813 76.1645C103.754 76.1573 103.695 76.1548 103.631 76.1621C103.57 76.1693 103.511 76.1838 103.454 76.2055C103.398 76.2248 103.343 76.2513 103.294 76.2826L103.32 76.3116ZM104.255 75.6412C104.264 75.6363 104.276 75.6316 104.29 75.6243C104.302 75.6195 104.316 75.6122 104.33 75.6049C104.484 75.523 104.593 75.429 104.661 75.3228C104.73 75.2167 104.755 75.0987 104.739 74.9683C104.725 74.8671 104.692 74.7778 104.64 74.7031C104.585 74.6283 104.515 74.5704 104.42 74.5222C104.191 74.404 103.971 74.445 103.757 74.6501C103.683 74.7151 103.629 74.7876 103.591 74.8695C103.551 74.9515 103.532 75.0431 103.528 75.1444C103.525 75.248 103.539 75.3374 103.57 75.4169C103.603 75.4941 103.653 75.5615 103.721 75.6195C103.792 75.675 103.87 75.7063 103.96 75.7087C104.049 75.7111 104.151 75.6847 104.262 75.6339L104.255 75.6412ZM118.411 75.2818C118.449 75.3397 118.496 75.3734 118.55 75.3808C118.607 75.388 118.671 75.3662 118.744 75.3156C118.815 75.2674 118.867 75.2143 118.9 75.1613C118.931 75.1083 118.945 75.0503 118.938 74.9901C118.931 74.9031 118.914 74.8188 118.89 74.7416C118.864 74.6621 118.829 74.5873 118.784 74.5173C118.706 74.3943 118.614 74.2883 118.51 74.2039C118.406 74.1171 118.291 74.052 118.163 74.0013C118.033 73.953 117.906 73.9216 117.778 73.9097C117.648 73.9001 117.518 73.9048 117.386 73.9315C117.256 73.9554 117.129 73.9941 117.004 74.0424C116.878 74.093 116.758 74.158 116.64 74.2351C116.484 74.3341 116.333 74.4499 116.189 74.5849C116.045 74.7175 115.908 74.8695 115.776 75.0407C115.511 75.3784 115.299 75.74 115.131 76.1211C114.966 76.502 114.855 76.8999 114.8 77.31C114.744 77.7175 114.751 78.0937 114.821 78.4338C114.89 78.7714 115.041 79.0681 115.277 79.3236C115.395 79.4491 115.532 79.5551 115.688 79.6372C115.844 79.7192 116.021 79.7794 116.217 79.818C116.333 79.8398 116.449 79.8494 116.567 79.8445C116.685 79.8421 116.805 79.8252 116.93 79.7964C117.056 79.7698 117.176 79.7312 117.294 79.6878C117.412 79.642 117.525 79.5889 117.636 79.5286C117.858 79.4105 118.092 79.2465 118.343 79.0414C118.465 78.9402 118.583 78.8389 118.694 78.74C118.805 78.6388 118.909 78.5399 119.006 78.441C119.103 78.3421 119.202 78.236 119.306 78.1227C119.41 78.0093 119.519 77.8864 119.63 77.7561C119.738 77.6235 119.837 77.5053 119.925 77.3968C120.012 77.2858 120.09 77.1894 120.154 77.1051C120.22 77.0206 120.288 76.9289 120.362 76.8325C120.435 76.7384 120.511 76.6348 120.591 76.5262C120.624 76.4708 120.645 76.4201 120.655 76.367C120.662 76.314 120.657 76.2633 120.638 76.2151C120.605 76.1139 120.529 76.0584 120.411 76.0439C120.352 76.0366 120.3 76.0464 120.253 76.0728C120.208 76.097 120.168 76.1404 120.135 76.2007C120.088 76.273 120.038 76.3527 119.979 76.4346C119.92 76.5166 119.854 76.6034 119.781 76.695C119.708 76.7867 119.63 76.8831 119.542 76.9869C119.457 77.0881 119.365 77.1966 119.268 77.31C119.171 77.4233 119.075 77.5342 118.973 77.6427C118.874 77.7513 118.77 77.8574 118.666 77.9612C118.562 78.0624 118.456 78.1637 118.347 78.2625C118.236 78.3614 118.125 78.4578 118.01 78.5544C117.896 78.6507 117.783 78.7351 117.674 78.8075C117.563 78.8823 117.457 78.9427 117.353 78.9933C117.249 79.0414 117.148 79.0824 117.046 79.1138C116.945 79.1452 116.843 79.1669 116.744 79.1765C116.543 79.1982 116.371 79.1404 116.224 79.0076C115.901 78.7448 115.797 78.2287 115.913 77.4596C115.938 77.2931 115.986 77.1074 116.059 76.9073C116.13 76.7047 116.224 76.4828 116.342 76.2417C116.519 75.8824 116.697 75.5785 116.874 75.3348C117.051 75.0913 117.228 74.9056 117.407 74.7778C117.636 74.6114 117.833 74.5728 117.995 74.6621C118.158 74.7513 118.291 74.9659 118.39 75.3084L118.411 75.2818ZM128.409 78.9185C128.411 78.933 128.418 78.9715 128.423 79.0318C128.43 79.092 128.439 79.1765 128.449 79.2876C128.461 79.3959 128.468 79.4853 128.475 79.5575C128.482 79.6275 128.484 79.6781 128.484 79.7094V80.0567C128.484 80.2183 128.47 80.3606 128.444 80.4812C128.43 80.5414 128.413 80.6018 128.394 80.6597C128.378 80.7199 128.357 80.7803 128.333 80.8405C128.314 80.8935 128.295 80.9442 128.274 80.99C128.255 81.0358 128.231 81.0817 128.208 81.1226C128.007 81.4698 127.75 81.646 127.438 81.6532C127.315 81.658 127.207 81.6339 127.112 81.5833C127.018 81.5326 126.94 81.4555 126.878 81.3493C126.798 81.2047 126.772 81.0454 126.796 80.8719C126.819 80.6982 126.895 80.5078 127.025 80.3051C127.169 80.0712 127.358 79.8398 127.591 79.6107C127.823 79.3791 128.099 79.1524 128.423 78.9257L128.409 78.9185ZM36.1729 74.3703C35.8399 74.4403 35.5424 74.6163 35.2803 74.8984C35.148 75.0407 35.0275 75.1902 34.9213 75.3518C34.815 75.5109 34.7229 75.6797 34.6426 75.8607C34.4726 76.2248 34.3545 76.5961 34.2908 76.9723C34.2246 77.3485 34.2128 77.7321 34.2554 78.1203C34.2836 78.3517 34.3356 78.5616 34.4159 78.7497C34.4962 78.9402 34.6001 79.109 34.7323 79.2585C34.9946 79.5551 35.3558 79.7167 35.8117 79.7457C36.2036 79.7746 36.5815 79.6685 36.9498 79.4297C37.316 79.1886 37.6701 78.8173 38.0125 78.3108C38.2133 78.3494 38.414 78.3638 38.6148 78.3542C38.8155 78.3446 39.0186 78.3084 39.2241 78.2481C39.6302 78.1275 39.9917 77.9514 40.3034 77.7175C40.4569 77.6018 40.6009 77.486 40.7331 77.3678C40.8654 77.2497 40.9882 77.1315 41.0992 77.011C41.2079 76.8928 41.3071 76.7746 41.3944 76.6589C41.4794 76.5431 41.5551 76.4298 41.6164 76.3189C41.6377 76.273 41.6471 76.2319 41.6471 76.1958C41.6471 76.1596 41.6377 76.1283 41.6164 76.1018C41.5975 76.0729 41.5692 76.0512 41.5385 76.0366C41.5054 76.0222 41.4677 76.0126 41.4228 76.0078C41.3779 76.0054 41.3377 76.0101 41.2975 76.0246C41.2599 76.0366 41.2267 76.0584 41.196 76.0873C40.6623 76.7119 40.1594 77.1628 39.687 77.4378C39.2123 77.7127 38.7706 77.814 38.3574 77.7393C38.5723 77.3365 38.7471 76.9531 38.8769 76.584C39.0092 76.2151 39.1013 75.8631 39.1533 75.5278C39.2855 74.5247 39.0706 73.8397 38.5109 73.4731C38.2937 73.3358 38.0693 73.2561 37.8402 73.2344C37.6111 73.2127 37.375 73.2489 37.1341 73.3454C36.8932 73.4394 36.6878 73.572 36.5225 73.7433C36.3548 73.9145 36.2273 74.1219 36.1375 74.3703H36.1729ZM37.7646 77.5993C37.6347 77.5656 37.5166 77.5198 37.4057 77.4547C37.297 77.392 37.1955 77.3124 37.1057 77.2159C37.016 77.1219 36.9381 77.0181 36.8744 76.9097C36.8082 76.8012 36.7562 76.6878 36.7185 76.5672C36.6807 76.4467 36.6476 76.3213 36.6217 76.191C36.5956 76.0608 36.5744 75.9282 36.5602 75.7906C36.5461 75.6509 36.5413 75.5182 36.5461 75.388C36.5484 75.2578 36.5626 75.1324 36.5886 75.0117C36.6193 74.8044 36.6807 74.6187 36.7705 74.4546C36.8602 74.2931 36.983 74.1509 37.1341 74.0302C37.4388 73.7891 37.7646 73.7891 38.1094 74.0302C38.5038 74.2979 38.6479 74.7995 38.544 75.5351C38.4921 75.8293 38.4022 76.1475 38.27 76.4949C38.1402 76.8397 37.9701 77.2087 37.7646 77.6067V77.5993ZM37.3963 78.1709C37.3277 78.277 37.2592 78.3759 37.1884 78.4676C37.1553 78.5134 37.1129 78.5616 37.0656 78.6146C37.0185 78.6677 36.964 78.7255 36.905 78.7859C36.7893 78.9064 36.6783 78.998 36.5744 79.0608C36.5225 79.0921 36.4658 79.1162 36.4091 79.1331C36.35 79.15 36.291 79.1596 36.2273 79.1596C36.1659 79.1596 36.1069 79.1452 36.0525 79.1162C35.9982 79.0897 35.9485 79.0463 35.9037 78.9908C35.7006 78.7569 35.5849 78.4241 35.5494 77.9949C35.5306 77.7778 35.5283 77.5656 35.54 77.3582C35.5519 77.1508 35.5779 76.9459 35.618 76.7432C35.7006 76.3405 35.8117 76.0029 35.9509 75.7257C35.9676 76.0101 36.01 76.2754 36.0761 76.5262C36.1422 76.7746 36.2343 77.0085 36.3524 77.2232C36.5886 77.6549 36.9404 77.9588 37.4103 78.1347L37.3963 78.1709ZM50.8676 75.4434C50.9551 75.3205 51.0165 75.1951 51.0542 75.0673C51.092 74.9394 51.1062 74.8068 51.0968 74.6741C51.0874 74.539 51.0566 74.4209 51.0093 74.3173C50.9597 74.2159 50.8937 74.1268 50.8062 74.052C50.7023 73.9603 50.5773 73.8977 50.4332 73.8614C50.3599 73.8421 50.2844 73.8349 50.2088 73.8349C50.1332 73.8349 50.0577 73.847 49.9821 73.8687C49.9064 73.888 49.8286 73.9169 49.7553 73.953C49.6798 73.9892 49.6042 74.0351 49.531 74.0858C49.3869 74.1918 49.2618 74.3486 49.1579 74.5535C49.1059 74.6548 49.0611 74.7658 49.0233 74.8863C48.9878 75.007 48.9571 75.1372 48.9359 75.2746C48.9051 75.5037 48.9218 75.8727 48.9832 76.3815C49.0468 76.8903 49.1579 77.5391 49.3185 78.3253C49.1744 78.4241 49.0327 78.5302 48.8933 78.6435C48.7516 78.7569 48.6124 78.8775 48.4731 79.0029C48.3337 79.1308 48.1967 79.2706 48.0644 79.4225C47.9299 79.5744 47.7976 79.7384 47.6701 79.9144C47.5426 80.0929 47.4409 80.2617 47.3655 80.4233C47.2898 80.5873 47.2426 80.7416 47.2214 80.8912C47.2049 81.0142 47.2002 81.1299 47.2049 81.2408C47.212 81.3517 47.2308 81.4555 47.2639 81.5542C47.2946 81.6532 47.3347 81.7424 47.3819 81.8196C47.4315 81.8968 47.4906 81.9643 47.5591 82.0197C47.6275 82.0776 47.7032 82.1259 47.7834 82.1692C47.8614 82.2126 47.9463 82.2488 48.0361 82.2826C48.2157 82.3454 48.4117 82.367 48.6171 82.3454C48.721 82.3357 48.8249 82.3163 48.9264 82.2923C49.0256 82.2682 49.1272 82.2368 49.2264 82.1958C49.3279 82.1573 49.4247 82.109 49.5192 82.0487C49.6136 81.9885 49.7057 81.9184 49.7955 81.8365C49.8852 81.7569 49.9679 81.6677 50.0459 81.5712C50.1214 81.4772 50.1922 81.3735 50.2584 81.2649C50.6102 80.6355 50.6599 79.6468 50.4048 78.2987C51.6139 77.5705 52.3885 76.9193 52.7286 76.3477C52.7759 76.2272 52.7759 76.1355 52.7286 76.0728C52.7051 76.0391 52.6743 76.015 52.6364 75.9932C52.5988 75.974 52.5562 75.9595 52.5066 75.9522C52.4594 75.9451 52.4145 75.9451 52.379 75.9522C52.3413 75.9595 52.3106 75.9764 52.2846 76.0004C52.1783 76.1669 52.0556 76.3236 51.9185 76.4732C51.7792 76.6202 51.6281 76.7602 51.4628 76.8928C51.2975 77.023 51.1132 77.1557 50.9125 77.2883C50.7118 77.4233 50.4922 77.5632 50.2536 77.703C50.1568 77.2762 50.0789 76.8953 50.0223 76.56C49.9679 76.2248 49.9301 75.9378 49.9136 75.6966C49.9064 75.605 49.9064 75.5062 49.9136 75.4C49.916 75.347 49.9231 75.2915 49.9278 75.2361C49.9349 75.1782 49.9443 75.1179 49.9537 75.0527C49.9751 74.9273 50.0174 74.8212 50.0789 74.7368C50.1426 74.6501 50.2182 74.6091 50.308 74.6091C50.3317 74.6091 50.3505 74.6138 50.367 74.6234C50.3812 74.6332 50.3907 74.6476 50.3977 74.6644C50.4119 74.7007 50.4119 74.7513 50.3977 74.814C50.3907 74.8454 50.3836 74.8767 50.3765 74.9081C50.3693 74.9418 50.3599 74.9732 50.3505 75.0045C50.3293 75.0673 50.308 75.1251 50.2867 75.1733C50.2773 75.1998 50.2702 75.2192 50.2654 75.2312C50.2607 75.2457 50.2584 75.2554 50.2584 75.2578C50.256 75.2914 50.2584 75.3228 50.263 75.3542C50.2702 75.3855 50.2797 75.4169 50.2938 75.4507C50.308 75.482 50.3245 75.5109 50.3411 75.5351C50.3599 75.5615 50.3812 75.5833 50.4048 75.6049C50.4544 75.6483 50.5158 75.6556 50.5914 75.6267C50.6292 75.6123 50.6669 75.5881 50.7047 75.5519C50.7449 75.5158 50.7827 75.4675 50.8204 75.4072L50.8676 75.4434ZM49.3869 78.9185C49.3893 78.933 49.3964 78.9715 49.4011 79.0318C49.4082 79.092 49.4177 79.1765 49.4271 79.2876C49.4389 79.3959 49.4459 79.4853 49.4531 79.5575C49.4601 79.6275 49.4626 79.6781 49.4626 79.7094V80.0567C49.4626 80.2183 49.4483 80.3606 49.4224 80.4812C49.4082 80.5414 49.3917 80.6018 49.3729 80.6597C49.3562 80.7199 49.335 80.7803 49.3114 80.8405C49.2924 80.8935 49.2736 80.9442 49.2523 80.99C49.2334 81.0358 49.2098 81.0817 49.1862 81.1226C48.9854 81.4698 48.7281 81.646 48.4164 81.6532C48.2935 81.658 48.1849 81.6339 48.0904 81.5833C47.9959 81.5326 47.9181 81.4555 47.8567 81.3493C47.7764 81.2047 47.7504 81.0454 47.774 80.8719C47.7976 80.6982 47.8732 80.5078 48.003 80.3051C48.147 80.0712 48.336 79.8398 48.5699 79.6107C48.8012 79.3791 49.0776 79.1524 49.4011 78.9257L49.3869 78.9185ZM61.4461 76.0343C61.465 75.9812 61.4674 75.933 61.458 75.8872C61.4461 75.8438 61.4226 75.8027 61.3847 75.7665C61.3233 75.7015 61.2383 75.6533 61.1296 75.6291C61.0234 75.6026 60.8934 75.5978 60.7423 75.6123C60.4447 75.6412 60.263 75.7328 60.2016 75.8872C59.9654 76.502 59.7599 77.2714 59.5781 78.1974C59.3987 79.1234 59.3774 79.8107 59.5167 80.2545C59.5332 80.3076 59.5639 80.3533 59.6041 80.3896C59.6443 80.4257 59.6962 80.4546 59.7599 80.474C59.8827 80.5174 60.015 80.5174 60.152 80.474C60.2228 80.4522 60.2818 80.4209 60.3314 80.38C60.3787 80.3364 60.4189 80.2834 60.4496 80.2208C60.4944 80.146 60.5534 80.0398 60.6219 79.9024C60.6927 79.765 60.7754 79.5937 60.8722 79.3935C60.9691 79.191 61.0588 79.0174 61.1368 78.8679C61.2171 78.7183 61.2879 78.5954 61.3493 78.4964C61.4012 78.3976 61.4721 78.2673 61.5619 78.1081C61.6539 77.9466 61.7626 77.7562 61.8901 77.5342C62.3151 76.7843 62.6742 76.1813 62.9693 75.7257C63.2622 75.2698 63.4912 74.9587 63.6542 74.7948C63.7581 74.6838 63.8171 74.6621 63.8313 74.7248C63.8455 74.7898 63.8171 74.9394 63.744 75.1758C63.7369 75.1951 63.6826 75.3784 63.5787 75.7257C63.4747 76.0704 63.3991 76.3332 63.3495 76.5093C63.3259 76.5986 63.2952 76.7095 63.2598 76.8469C63.2244 76.9844 63.1842 77.146 63.1347 77.3293C63.0875 77.5126 63.0473 77.6813 63.0142 77.8333C62.9835 77.9852 62.9575 78.1203 62.941 78.2409C62.9079 78.482 62.8726 78.7497 62.8371 79.0463C62.8206 79.1958 62.8111 79.3333 62.8111 79.4611C62.8111 79.5865 62.8158 79.7047 62.83 79.8107C62.8442 79.9145 62.8631 80.0109 62.889 80.1002C62.9126 80.1869 62.9458 80.2641 62.9835 80.3316C63.0166 80.3992 63.0638 80.4498 63.1229 80.4836C63.182 80.5197 63.2528 80.5367 63.3355 80.5367C63.418 80.5367 63.489 80.5221 63.5503 80.4932C63.6093 80.4644 63.6565 80.4209 63.6943 80.3606C63.7061 80.3462 63.7345 80.2906 63.7842 80.1966C63.8337 80.1002 63.9022 79.9652 63.9919 79.7867C64.1666 79.4419 64.3037 79.1669 64.4076 78.9619C65.0333 77.7344 65.5222 76.8879 65.8741 76.4225C66.226 75.9571 66.4409 75.8703 66.5164 76.1621C66.5376 76.2369 66.5471 76.3357 66.5448 76.4586C66.5424 76.584 66.5282 76.7311 66.5047 76.9049C66.481 77.0784 66.455 77.2545 66.4267 77.4329C66.3983 77.6139 66.3701 77.7947 66.3393 77.9804C66.2756 78.3469 66.2354 78.7135 66.2142 79.0824C66.1929 79.4491 66.2424 79.7674 66.3606 80.0375C66.4763 80.3052 66.6771 80.474 66.9605 80.5438C67.1021 80.5824 67.2462 80.5849 67.3926 80.5511C67.5367 80.515 67.6831 80.445 67.8319 80.3389C67.9948 80.2232 68.1743 80.064 68.3727 79.8614C68.5687 79.6613 68.7836 79.4153 69.015 79.1234C69.2464 78.8341 69.4613 78.5568 69.6573 78.2866C69.8558 78.019 70.0328 77.7634 70.1911 77.5198C70.3517 77.2762 70.4887 77.0616 70.602 76.8783C70.7154 76.695 70.8051 76.5407 70.8689 76.4176C70.8877 76.3815 70.9019 76.3478 70.9113 76.3164C70.9208 76.2851 70.9255 76.2537 70.9255 76.2272C70.9208 76.1693 70.9019 76.1259 70.8689 76.0922C70.8334 76.0608 70.7838 76.0391 70.7177 76.0295C70.6373 76.0174 70.5619 76.0295 70.4911 76.0608C70.4178 76.0945 70.3517 76.1475 70.2879 76.2272C70.2643 76.2586 70.2194 76.3189 70.1556 76.4129C70.0896 76.5046 70.0045 76.6252 69.9006 76.777C69.7968 76.9289 69.6905 77.0856 69.5795 77.2498C69.4684 77.4113 69.3551 77.5753 69.237 77.7464C69.1189 77.9153 68.9985 78.0866 68.8757 78.2553C68.7505 78.4265 68.6254 78.5978 68.4979 78.7714C68.3679 78.945 68.2451 79.1042 68.1295 79.2465C68.0113 79.3912 67.9027 79.5214 67.7988 79.6322C67.6949 79.7457 67.6051 79.8324 67.5343 79.8928C67.4634 79.9506 67.4068 79.9844 67.369 79.9868C67.3147 79.9891 67.2699 79.9748 67.2391 79.941C67.206 79.9047 67.1848 79.8517 67.1754 79.7818C67.1659 79.7119 67.1636 79.6275 67.1706 79.531C67.1777 79.4345 67.1918 79.3261 67.2179 79.2031C67.2391 79.0777 67.2651 78.9523 67.2934 78.8196C67.3218 78.6894 67.3547 78.5544 67.3879 78.4169C67.4234 78.2794 67.4563 78.1347 67.487 77.9827C67.5201 77.8308 67.5508 77.6717 67.5815 77.5053C67.6429 77.1726 67.6784 76.8831 67.6854 76.6371C67.6996 76.1355 67.5815 75.7738 67.3335 75.5568C67.2085 75.4459 67.0714 75.3759 66.9227 75.3446C66.7738 75.3132 66.6109 75.3205 66.4337 75.3662C66.3559 75.3855 66.2756 75.4146 66.1953 75.4507C66.1173 75.4868 66.037 75.5302 65.9568 75.5833C65.8764 75.6363 65.8009 75.6966 65.7229 75.7642C65.6474 75.8317 65.5742 75.9088 65.501 75.9932C65.4277 76.0777 65.3593 76.1597 65.2979 76.2369C65.2341 76.314 65.1751 76.3887 65.1207 76.4586C65.0098 76.601 64.8846 76.7916 64.7476 77.0327C64.6767 77.1532 64.6177 77.2545 64.5705 77.3414C64.5209 77.4258 64.483 77.4957 64.4572 77.5487C64.4288 77.6017 64.3934 77.6693 64.3509 77.7489C64.3083 77.8308 64.2587 77.9274 64.1997 78.0359C64.3674 77.4739 64.5067 76.9555 64.6201 76.4828C64.7334 76.0101 64.8184 75.581 64.8775 75.1951C64.9366 74.8116 64.9105 74.515 64.7949 74.3076C64.6815 74.1002 64.4831 73.9821 64.1997 73.953C64.1407 73.9458 64.0793 73.9483 64.0155 73.9579C63.9494 73.97 63.8833 73.9892 63.8124 74.0158C63.744 74.0448 63.6755 74.0834 63.6046 74.1315C63.5338 74.1798 63.4629 74.2401 63.3921 74.3052C63.3188 74.3727 63.248 74.4427 63.1772 74.5125C63.1087 74.5825 63.0379 74.6524 62.9693 74.7224C62.9008 74.7923 62.8277 74.8743 62.7544 74.9659C62.6813 75.0576 62.6056 75.1613 62.5254 75.2746C62.3672 75.4989 62.2278 75.6966 62.1121 75.8654C62.053 75.9498 61.9893 76.0488 61.9232 76.1573C61.8594 76.2657 61.7886 76.3863 61.7178 76.5166C61.5713 76.777 61.4603 76.9747 61.3847 77.1098C61.3469 77.1774 61.3021 77.2594 61.2501 77.3534C61.2005 77.4475 61.1438 77.5559 61.0801 77.6765C61.0187 77.7947 60.9691 77.8912 60.9313 77.9612C60.8934 78.0335 60.8699 78.0793 60.8581 78.0985C60.8392 78.1419 60.7896 78.2409 60.7141 78.3976C60.7754 78.1395 60.8462 77.8743 60.9266 77.6067C61.0045 77.3389 61.0895 77.064 61.184 76.7842L61.4461 76.0343ZM79.2014 77.351C79.2179 77.3485 79.2391 77.3438 79.2675 77.3365C79.2959 77.3292 79.3289 77.3245 79.3667 77.3172C79.5084 77.281 79.6406 77.2449 79.7681 77.2111C79.8933 77.1774 80.0115 77.1436 80.1201 77.1122C80.231 77.0784 80.3467 77.0423 80.4648 76.9989C80.5829 76.9579 80.7057 76.9097 80.8332 76.8566C80.9631 76.8035 81.0836 76.7408 81.1969 76.6709C81.3127 76.6034 81.419 76.5238 81.5205 76.4394C81.6197 76.355 81.7094 76.2633 81.7897 76.1645C81.87 76.068 81.9385 75.9619 81.9975 75.8534C82.0873 75.6773 82.1415 75.5085 82.1581 75.3494C82.177 75.1902 82.1604 75.0407 82.1084 74.8984C82.0518 74.7465 81.9739 74.6163 81.8747 74.5077C81.7755 74.3993 81.6551 74.3124 81.5134 74.2497C81.3718 74.1846 81.2229 74.1436 81.0718 74.1219C80.9207 74.1002 80.7648 74.1002 80.6064 74.1219C80.4459 74.1436 80.2948 74.1798 80.1531 74.2328C80.0115 74.2859 79.8744 74.3509 79.7469 74.433C79.5037 74.5849 79.2793 74.7706 79.0692 74.9876C78.8567 75.207 78.6653 75.4579 78.4882 75.74C78.1363 76.3043 77.9143 76.8856 77.8245 77.4788C77.8104 77.6018 77.801 77.7247 77.794 77.8502C77.7867 77.9731 77.7868 78.0962 77.7892 78.2216C77.794 78.3446 77.8057 78.4651 77.8293 78.5808C77.853 78.699 77.886 78.8148 77.9284 78.9281C78.0111 79.1524 78.115 79.3502 78.2378 79.5213C78.3017 79.6058 78.3748 79.683 78.4622 79.7529C78.5473 79.8228 78.6441 79.8831 78.7504 79.9385C78.8589 79.9891 78.9723 80.0302 79.0927 80.0543C79.2132 80.0809 79.343 80.0929 79.4777 80.0929C79.7186 80.0929 79.9689 80.0496 80.224 79.9652C80.3538 79.9242 80.4766 79.8735 80.5994 79.818C80.7199 79.7626 80.838 79.6998 80.9513 79.6347C81.067 79.5673 81.1828 79.49 81.3008 79.4056C81.419 79.3188 81.5393 79.2248 81.6645 79.1187C81.9148 78.9064 82.1345 78.7015 82.3281 78.5038C82.5217 78.3061 82.7296 78.0793 82.9516 77.8261C83.0625 77.6983 83.1617 77.5801 83.2538 77.4692C83.3437 77.3606 83.4263 77.2593 83.4972 77.1677C83.5702 77.076 83.6459 76.9796 83.7261 76.876C83.8065 76.7721 83.8892 76.6612 83.9765 76.5455C84.0143 76.4852 84.0379 76.4297 84.0474 76.3743C84.0592 76.3213 84.0545 76.2705 84.0379 76.2199C84.0025 76.1211 83.9269 76.0656 83.8088 76.0512C83.7498 76.0439 83.6979 76.0535 83.6483 76.0776C83.601 76.1018 83.5608 76.1428 83.5254 76.2007C83.2917 76.5744 82.9658 76.9989 82.5501 77.4715C82.1345 77.9442 81.6645 78.3831 81.1378 78.7859C80.8758 78.9884 80.6349 79.138 80.4176 79.2416C80.2003 79.3429 80.0067 79.3935 79.8367 79.3935C79.7327 79.3935 79.6382 79.3743 79.5533 79.3357C79.4659 79.2972 79.3902 79.2392 79.3242 79.1596C79.2581 79.0824 79.2061 78.998 79.1637 78.904C79.1234 78.8123 79.0927 78.7111 79.0762 78.6026C79.0574 78.4916 79.0479 78.3832 79.0431 78.2747C79.0384 78.1637 79.0408 78.0552 79.0478 77.9442C79.062 77.7247 79.0974 77.5342 79.1518 77.3726L79.2014 77.351ZM79.3667 76.7095C79.5462 76.2103 79.7541 75.81 79.9902 75.5109C80.2264 75.2095 80.4908 75.0093 80.786 74.9057C80.8663 74.8743 80.9395 74.8574 81.0079 74.8525C81.0765 74.8478 81.1378 74.8574 81.1946 74.8792C81.2489 74.8984 81.2985 74.9273 81.3386 74.9611C81.3812 74.9973 81.4166 75.0359 81.4426 75.0841C81.4709 75.1299 81.4874 75.1806 81.4945 75.2384C81.5016 75.294 81.4945 75.359 81.478 75.429C81.4614 75.4989 81.4308 75.5712 81.3906 75.6412C81.3481 75.7111 81.2937 75.7787 81.23 75.8462C81.1568 75.9282 81.0718 76.0029 80.9749 76.0753C80.8781 76.1452 80.7718 76.2103 80.6537 76.2705C80.5356 76.3309 80.4271 76.3815 80.3255 76.4249C80.224 76.4659 80.1319 76.4997 80.0444 76.5238C79.9595 76.5504 79.858 76.5768 79.7445 76.6082C79.6288 76.6396 79.5013 76.6734 79.3596 76.7095H79.3667ZM47.5914 78.2062C47.099 78.0969 46.4959 78.0302 45.7819 78.006V76.8787H47.9652C47.9896 77.0458 48.0154 77.2083 48.0426 77.3658C48.0622 77.4791 48.0849 77.6041 48.1106 77.7409C48.0632 77.7794 48.0277 77.8089 48.0028 77.8302C47.9014 77.9172 47.8269 77.9824 47.7711 78.0326L47.8716 78.1491L47.8713 78.15L47.7698 78.0324C47.7484 78.0517 47.728 78.0717 47.7083 78.0921C47.6721 78.1265 47.6332 78.1645 47.5914 78.2062ZM87.8237 67.6252C87.6092 65.997 87.2411 64.7444 86.7198 63.8676C86.1985 62.9908 85.6158 62.3411 84.9719 61.9184C84.3279 61.4956 83.6609 61.2451 82.971 61.1668C82.281 61.0886 81.6753 61.0493 81.1541 61.0493H76.8763V76.6087C76.8236 76.805 76.7819 77.0047 76.7512 77.2077L76.7468 77.2072C76.7414 77.2427 76.7377 77.2783 76.7356 77.3134C76.7286 77.3784 76.7234 77.4312 76.7198 77.4746C76.7188 77.4883 76.7144 77.565 76.7075 77.6888H76.7072L76.707 77.6912L76.7046 77.691C76.7026 77.7261 76.7022 77.7609 76.7034 77.7955C76.7024 77.8355 76.7017 77.8815 76.7012 77.9328C76.7005 78.0081 76.7011 78.0786 76.7024 78.1469L76.7675 78.1459L76.7688 78.1499L76.6981 78.1513C76.6989 78.1945 76.7021 78.2372 76.7074 78.2791C76.7108 78.3385 76.7149 78.3922 76.7199 78.4389L76.7203 78.4388L76.7204 78.4396L76.7179 78.4399C76.7215 78.4729 76.7264 78.5055 76.7325 78.5375C76.7413 78.5999 76.7521 78.6628 76.765 78.7255L76.7659 78.7253L76.766 78.7262L76.7623 78.7269C76.77 78.7649 76.7795 78.8018 76.7906 78.838C76.8024 78.8878 76.8155 78.9377 76.8298 78.9878C76.8464 79.0462 76.8618 79.0981 76.8763 79.143V84.7697C76.8763 85.4273 76.9222 86.0223 77.0143 86.5546C77.1063 87.087 77.3132 87.5568 77.6353 87.9638C77.9572 88.3709 78.4249 88.6841 79.0382 88.9033C79.6514 89.1224 80.464 89.2633 81.4761 89.326V90.5472H66.9407V89.326C67.922 89.2633 68.7194 89.1303 69.3327 88.9268C69.9459 88.7232 70.4136 88.4256 70.7355 88.0343C71.0576 87.6428 71.2722 87.1731 71.3796 86.6252C71.4868 86.0771 71.5406 85.4587 71.5406 84.7697V77.5398L71.6229 77.4068C71.7008 77.2808 71.7579 77.1868 71.7929 77.1265C71.8406 77.044 71.8864 76.9611 71.9298 76.8776L71.93 76.8776L71.9338 76.8705L71.9359 76.8716C71.9553 76.8341 71.9724 76.7959 71.9876 76.7574L71.9987 76.7313L72.0012 76.7325C72.0221 76.6825 72.0393 76.632 72.053 76.5811L72.0562 76.5703L72.0575 76.5707L72.0581 76.5688L72.06 76.5693C72.0777 76.5106 72.0908 76.4517 72.0993 76.3928L72.1039 76.3652C72.1184 76.2752 72.1254 76.1971 72.1254 76.1343C72.1254 76.0699 72.1202 76.0066 72.1104 75.9451C72.0928 75.823 72.0606 75.7071 72.0138 75.5961L72.0001 75.6021L71.9997 75.6011L72.0142 75.5947C71.9839 75.5231 71.9475 75.4561 71.9058 75.3941C71.8548 75.3113 71.7971 75.2375 71.7332 75.1721L71.7333 75.172C71.6736 75.1111 71.6089 75.0583 71.5406 75.0135V61.0493H67.9068C67.2014 61.0493 66.4502 61.0886 65.6528 61.1668C64.8555 61.2451 64.1043 61.4878 63.3989 61.8949C62.6937 62.3019 62.0879 62.9517 61.582 63.8441C61.076 64.7366 60.7464 65.997 60.5931 67.6252H59.6272V59.4523H88.7897V67.6252H87.8237ZM115.974 90.5472V89.326C116.894 89.2633 117.63 89.1224 118.182 88.9033C118.734 88.6841 119.156 88.3787 119.447 87.9874C119.738 87.5959 119.93 87.1262 120.022 86.5782C120.114 86.0302 120.16 85.4273 120.16 84.7697V78.8606L120.193 78.8248C120.344 78.6593 120.336 78.673 120.372 78.6322C120.386 78.6162 120.441 78.5517 120.546 78.4283L120.548 78.4306C120.577 78.3968 120.604 78.3618 120.628 78.3258L120.68 78.2632L120.682 78.2651L120.684 78.2625L120.686 78.2642C120.704 78.2425 120.72 78.2205 120.737 78.1981L120.861 78.0442L120.838 78.0254L120.839 78.0252L120.864 78.0468C120.884 78.0224 120.902 77.9975 120.92 77.9721L120.945 77.9392L120.948 77.9411C120.967 77.9167 120.985 77.8917 121.002 77.8663C121.042 77.8159 121.079 77.7689 121.112 77.7252L121.115 77.7275C121.135 77.7013 121.153 77.6745 121.17 77.6473C121.237 77.5619 121.249 77.5464 121.259 77.5326L121.31 77.4654L121.311 77.4661L121.32 77.4539L121.322 77.4554C121.34 77.4323 121.356 77.4088 121.372 77.3848L121.511 77.1955L121.514 77.1973L121.515 77.196L121.516 77.1972C121.529 77.1801 121.541 77.1627 121.552 77.1452L121.558 77.137L121.557 77.1366L121.558 77.1362L121.56 77.1376C121.613 77.0652 121.657 76.9885 121.692 76.9088C121.709 76.8728 121.726 76.8354 121.742 76.796C121.782 76.6974 121.812 76.5933 121.832 76.48L121.836 76.4809C121.849 76.4069 121.855 76.3333 121.854 76.2609C121.856 76.1981 121.853 76.1355 121.847 76.073C121.834 75.9483 121.803 75.8228 121.754 75.6968L121.752 75.6901L121.756 75.6885C121.737 75.639 121.715 75.5918 121.69 75.5466C121.593 75.353 121.459 75.1919 121.287 75.0626C121.085 74.9119 120.857 74.822 120.6 74.7903C120.467 74.7743 120.329 74.7789 120.186 74.8049L120.185 74.8012L120.177 74.8027L120.177 74.8019L120.16 74.8052V62.8813L115.757 73.3898C115.649 73.4745 115.555 73.553 115.478 73.6243L115.478 73.6238L115.469 73.6317L115.468 73.6305C115.452 73.6457 115.436 73.6612 115.421 73.6771C115.345 73.75 115.27 73.8326 115.193 73.9172C115.165 73.9485 115.138 73.9812 115.111 74.0127C115.05 74.0837 114.99 74.1538 114.935 74.2257L114.935 74.2262L114.931 74.2226C114.906 74.2551 114.883 74.2887 114.861 74.3229C114.728 74.5012 114.606 74.6831 114.496 74.8685C114.361 75.0949 114.244 75.3224 114.144 75.5502L114.14 75.5487C114.13 75.5712 114.121 75.5939 114.113 75.6168C114.022 75.8331 113.944 76.0588 113.878 76.293L113.877 76.2927L113.877 76.2935L113.876 76.2932C113.871 76.3107 113.867 76.3282 113.863 76.3457C113.803 76.5703 113.756 76.808 113.723 77.0572L113.722 77.0571L113.722 77.0605L113.719 77.0602C113.716 77.0874 113.713 77.1143 113.711 77.1412C113.684 77.3686 113.672 77.596 113.676 77.8226C113.679 77.9822 113.69 78.1354 113.708 78.2818L108.569 90.5472H107.465L103.645 81.7382C103.679 81.7336 103.712 81.7275 103.745 81.7199C104.025 81.6681 104.324 81.5343 104.642 81.3188C104.905 81.1415 105.223 80.8809 105.599 80.5374L105.601 80.54L105.604 80.5373L105.605 80.5383C105.619 80.5258 105.632 80.5129 105.645 80.4999C105.961 80.2106 106.283 79.8976 106.611 79.5622C106.923 79.2432 107.239 78.9009 107.559 78.5369L107.562 78.54C107.575 78.5248 107.588 78.5095 107.601 78.4937L107.703 78.3746L109.811 83.2667L119.838 59.4523H129.498V60.6736C128.578 60.705 127.842 60.838 127.29 61.0728C126.738 61.3077 126.324 61.613 126.048 61.9888C125.772 62.3646 125.588 62.8264 125.496 63.3744C125.404 63.9225 125.358 64.5408 125.358 65.2298V79.9495C125.317 80.0462 125.283 80.1373 125.257 80.2224C125.216 80.3572 125.185 80.493 125.166 80.6304L125.164 80.6301C125.158 80.6708 125.154 80.7112 125.153 80.7512C125.147 80.8091 125.143 80.8679 125.14 80.9272C125.136 81.0185 125.136 81.109 125.14 81.1981L125.219 81.1947L125.22 81.1954L125.136 81.1991C125.138 81.2414 125.142 81.2831 125.148 81.3241C125.155 81.3939 125.165 81.4621 125.177 81.5285L125.178 81.5283L125.178 81.5293L125.176 81.5299C125.183 81.5679 125.192 81.605 125.202 81.6413C125.216 81.7006 125.232 81.7576 125.249 81.8128L125.248 81.8132L125.256 81.8386L125.256 81.8388C125.261 81.8539 125.266 81.8689 125.272 81.8836C125.293 81.942 125.319 82.0075 125.352 82.0798L125.35 82.0808L125.351 82.0849L125.35 82.0857L125.358 82.1041V84.7697C125.358 85.4273 125.396 86.0223 125.473 86.5546C125.55 87.087 125.726 87.5489 126.002 87.9403C126.278 88.3317 126.692 88.6448 127.244 88.8798C127.796 89.1147 128.547 89.2633 129.498 89.326V90.5472H115.974ZM101.64 77.1138L98.9807 70.981C99.052 70.9555 99.1256 70.9281 99.2011 70.8985V70.8939L99.2023 70.8934L99.2042 70.8985C99.2428 70.8834 99.28 70.8663 99.3161 70.8476C99.5214 70.7628 99.7062 70.6752 99.8701 70.5846L99.874 70.5852L99.9025 70.5689C100.089 70.4636 100.28 70.3361 100.475 70.1856L100.475 70.1863L100.48 70.1825L100.483 70.186C100.513 70.1626 100.542 70.1378 100.569 70.112C100.645 70.0505 100.714 69.9894 100.778 69.9286C100.878 69.8324 100.966 69.7401 101.044 69.6508L101.044 69.6515C101.07 69.6213 101.095 69.5901 101.117 69.5581C101.181 69.4791 101.24 69.4007 101.293 69.3235L101.295 69.3247C101.321 69.2875 101.344 69.2492 101.365 69.2103C101.413 69.1369 101.458 69.0633 101.5 68.9896L101.5 68.9898L101.505 68.9814L101.509 68.9836C101.528 68.9501 101.544 68.9161 101.56 68.8817C101.609 68.7888 101.655 68.6912 101.698 68.5893C101.764 68.4352 101.815 68.2941 101.853 68.1672C101.892 68.0344 101.926 67.8932 101.954 67.7447C101.976 67.6285 101.995 67.4957 102.01 67.3477L102.014 67.313L102.017 67.3133C102.02 67.2809 102.022 67.2487 102.022 67.2168C102.025 67.1652 102.025 67.1143 102.023 67.0642H102.023L102.023 67.0611L102.027 67.0609C102.023 66.9849 102.013 66.911 101.996 66.8398C101.986 66.7889 101.973 66.7384 101.957 66.6885C101.913 66.5461 101.847 66.4142 101.762 66.2943L101.765 66.2922L101.762 66.2886L101.764 66.2876C101.729 66.2386 101.69 66.193 101.65 66.1512C101.598 66.096 101.542 66.0447 101.481 65.9975L101.483 65.9953C101.427 65.9514 101.368 65.9134 101.307 65.8817C101.265 65.8584 101.222 65.8367 101.177 65.8168L101.178 65.8152L101.175 65.8139L101.177 65.8109C101.127 65.7887 101.076 65.7706 101.025 65.7563C100.956 65.7342 100.889 65.7183 100.823 65.7082C100.696 65.6886 100.57 65.6879 100.446 65.7029L100.446 65.7018C100.422 65.7047 100.398 65.7084 100.375 65.7128C100.301 65.7255 100.229 65.7435 100.159 65.7662C100.038 65.8051 99.9238 65.8599 99.8186 65.9282C99.7108 65.998 99.6094 66.0885 99.5169 66.1953L99.5148 66.1933L99.5139 66.1943L99.5131 66.1936C99.4734 66.2398 99.438 66.2881 99.4066 66.3384C99.3742 66.3886 99.3428 66.4435 99.3127 66.5035L99.3084 66.5013C99.2854 66.5472 99.2657 66.5939 99.249 66.6411C99.2278 66.6982 99.2085 66.7603 99.1913 66.8273L99.1877 66.8264C99.1648 66.916 99.1527 67.0058 99.1505 67.0946C99.1465 67.1413 99.142 67.178 99.1374 67.2046C99.1333 67.2281 99.1208 67.2746 99.1005 67.3435L99.1002 67.3434C99.096 67.3574 99.0922 67.3714 99.0887 67.3853C99.0795 67.4123 99.0692 67.4392 99.0575 67.4662C99.0424 67.5014 99.0245 67.5364 99.0043 67.5705C98.9719 67.6254 98.9462 67.6656 98.927 67.6919C98.9061 67.7206 98.8749 67.7584 98.8347 67.804L98.8335 67.8028C98.8224 67.8154 98.8115 67.8283 98.801 67.8413C98.7826 67.8609 98.7672 67.8763 98.7557 67.8866C98.7324 67.9077 98.7063 67.9286 98.677 67.9493L98.675 67.9462C98.6549 67.9603 98.6356 67.975 98.6169 67.9901C98.5886 68.0097 98.5663 68.0245 98.5495 68.0346C98.5011 68.0634 98.4549 68.0891 98.4109 68.1112C98.3841 68.1245 98.3279 68.1495 98.2459 68.1843C98.1859 68.2098 98.1217 68.2347 98.0547 68.2589L98.0557 68.2618L98.0552 68.2619L98.0536 68.2571C98.0249 68.2674 97.9968 68.279 97.9694 68.2913C97.9235 68.3067 97.8782 68.3212 97.8333 68.3348L95.1833 62.2236V66.5962C95.1494 66.5963 95.1161 66.5976 95.0831 66.5999C94.9707 66.6083 94.8517 66.6306 94.7251 66.6661L94.7465 66.7462L94.744 66.7477L94.7209 66.6624C94.6642 66.6783 94.6097 66.6983 94.5575 66.7221C94.4875 66.7499 94.4195 66.7816 94.3539 66.8169L94.3633 66.835L94.3624 66.8355L94.3518 66.8151C94.3351 66.8241 94.3197 66.8365 94.3036 66.8462C94.2294 66.8892 94.1526 66.9366 94.075 66.994L94.0873 67.0112L94.0872 67.0114L94.0739 66.9927C94.0017 67.0461 93.9374 67.1065 93.8812 67.1724C93.8081 67.2487 93.7331 67.3341 93.6561 67.4285L93.6195 67.474V66.2162C93.6195 65.3394 93.6118 64.5722 93.5965 63.9146C93.5812 63.2569 93.4584 62.6934 93.2285 62.2236C92.9985 61.754 92.6228 61.386 92.1015 61.1198C91.5802 60.8536 90.7983 60.705 89.7556 60.6736V59.4523H99.5531L106.397 75.3404L106.357 75.3809L106.367 75.3906L106.367 75.3908L106.355 75.3789C106.3 75.438 106.251 75.5014 106.21 75.5681C106.171 75.6185 106.113 75.6929 106.033 75.7927C105.895 75.9648 105.775 76.1102 105.682 76.2201L105.679 76.2181L105.676 76.2222L105.675 76.2215C105.666 76.232 105.657 76.2427 105.649 76.2534L105.423 76.5148L105.422 76.5042C105.421 76.4399 105.416 76.3752 105.408 76.3105C105.403 76.2754 105.398 76.241 105.391 76.2074C105.496 76.1071 105.588 75.9942 105.669 75.8697C105.78 75.6966 105.858 75.5124 105.9 75.3177L105.904 75.3186C105.917 75.257 105.926 75.1956 105.93 75.1346C105.944 75.0014 105.943 74.8661 105.926 74.7292L105.886 74.7341L105.885 74.7312L105.929 74.7254C105.924 74.6839 105.917 74.6431 105.907 74.6031C105.888 74.5029 105.861 74.4072 105.827 74.3165C105.778 74.1853 105.711 74.0577 105.625 73.9347L105.628 73.9327C105.592 73.8816 105.553 73.8343 105.512 73.7908C105.452 73.722 105.386 73.6586 105.315 73.6004C105.221 73.5225 105.112 73.4528 104.988 73.3893L104.989 73.3874L104.985 73.3856L104.987 73.3831C104.95 73.3644 104.913 73.348 104.876 73.3336C104.568 73.1997 104.252 73.1628 103.927 73.225L103.927 73.2259L103.927 73.226L103.926 73.2223C103.871 73.2328 103.817 73.2473 103.765 73.2655C103.499 73.345 103.255 73.4907 103.032 73.7026L103.033 73.7035L103.032 73.7048L103.029 73.702C103.003 73.7267 102.979 73.7525 102.956 73.7789C102.903 73.8329 102.855 73.8892 102.811 73.9477L102.826 73.9594L102.825 73.9614L102.807 73.9473C102.78 73.9832 102.755 74.0201 102.733 74.0581C102.688 74.1283 102.648 74.2016 102.612 74.2779L102.61 74.2767C102.589 74.3221 102.571 74.3683 102.556 74.4149C102.527 74.4927 102.504 74.5698 102.486 74.6463C102.461 74.759 102.446 74.8754 102.441 74.9954L102.438 74.9953C102.435 75.0559 102.436 75.1158 102.443 75.1743C102.446 75.2447 102.453 75.3131 102.463 75.3796C102.466 75.3984 102.469 75.4169 102.472 75.4351C102.408 75.5127 102.355 75.598 102.313 75.6881L102.269 75.7517L102.282 75.7612L102.282 75.7619L102.264 75.7494C102.244 75.78 102.225 75.8111 102.207 75.8427C102.174 75.8947 102.144 75.9426 102.12 75.9859C102.097 76.027 102.056 76.1072 101.998 76.229L101.994 76.2269C101.979 76.2576 101.966 76.2888 101.954 76.3202C101.92 76.3897 101.898 76.4381 101.885 76.4678C101.862 76.5211 101.828 76.6052 101.784 76.7154C101.744 76.8193 101.709 76.9116 101.682 76.9898C101.668 77.0303 101.654 77.0717 101.64 77.1138ZM95.1833 72.2979V74.9369C95.1191 74.96 95.0552 74.9877 94.9919 75.0201C94.8482 75.0937 94.7221 75.1856 94.6152 75.2942L94.7428 75.4251L94.7424 75.4257L94.6124 75.2925C94.5606 75.3452 94.5147 75.4016 94.4749 75.461C94.4604 75.4815 94.4461 75.5023 94.4324 75.5237L94.4319 75.5234C94.4171 75.5445 94.4065 75.5649 94.3466 75.659L94.3446 75.6576L94.3437 75.659L94.3427 75.6584L94.3269 75.6838L94.3265 75.6836C94.316 75.7 94.306 75.7166 94.2963 75.7333L94.1771 75.9062L94.1691 75.9176C94.0456 76.0967 94.0199 76.1387 93.9685 76.2108L93.9644 76.2077C93.9453 76.2343 93.9277 76.2615 93.9113 76.289L93.8864 76.3244L93.84 76.3904C93.9358 76.0455 94.0438 75.6794 94.1638 75.2924C94.3036 74.8402 94.443 74.4078 94.5816 73.9952C94.7493 73.4967 94.8882 73.0973 94.9986 72.7957C95.0617 72.6228 95.1232 72.4568 95.1833 72.2979ZM95.1833 79.5181V83.7363C95.1833 84.5819 95.2063 85.3413 95.2523 86.0144C95.2984 86.6877 95.4518 87.2593 95.7124 87.7289C95.9729 88.1987 96.387 88.5666 96.9543 88.8327C97.5216 89.0989 98.3266 89.2633 99.3692 89.326V90.5472H89.7556V89.326C90.7676 89.2633 91.5419 89.0989 92.0785 88.8327C92.6152 88.5666 92.9985 88.1909 93.2285 87.7054C93.4584 87.2201 93.5812 86.6486 93.5965 85.991C93.6118 85.3334 93.6195 84.5819 93.6195 83.7363V81.1823C93.6428 81.1632 93.665 81.1432 93.6865 81.1226C93.759 81.063 93.8253 81.0065 93.8865 80.9522C93.9875 80.8627 94.0757 80.7813 94.1541 80.7059C94.1779 80.6831 94.2023 80.6616 94.2238 80.6373C94.2923 80.569 94.36 80.4991 94.4263 80.4277C94.5126 80.3352 94.5989 80.2378 94.6849 80.1357L94.6871 80.1376C94.7065 80.1146 94.7248 80.091 94.7421 80.067C94.8726 79.9123 95.0138 79.7372 95.1649 79.5421L95.1833 79.5181Z" fill="#B38C0A"/>
</svg>
