<svg width="150" height="150" viewBox="0 0 150 150" fill="none" xmlns="http://www.w3.org/2000/svg">
<g clip-path="url(#clip0_395_329)">
<path d="M144.049 79.8625C141.873 80.4488 137.291 87.566 136.329 89.5104C136.614 89.3095 136.933 89.1531 137.334 89.0222C137.704 88.9009 138.104 88.8225 138.49 88.8099C138.892 88.7962 139.244 88.8691 139.579 89.0193C139.915 89.1697 140.213 89.4227 140.435 89.7666C140.666 90.1251 140.763 90.4886 140.721 90.8913C140.68 91.2873 140.595 91.7015 140.505 92.1219C140.412 92.5557 140.338 92.9933 140.272 93.4384C140.204 93.8929 140.277 94.3508 140.475 94.8241C140.747 95.4752 141.095 95.985 141.549 96.3597C142.001 96.7323 142.555 96.9208 143.276 96.9202C144.013 96.919 144.666 96.7522 145.269 96.4102C145.855 96.0779 146.388 95.6534 146.809 95.1376C147.225 94.6278 147.584 94.0692 147.863 93.4489C148.135 92.8429 148.272 92.2593 148.363 91.7054C148.388 91.5558 148.464 91.4793 148.614 91.479C148.882 91.4786 149.084 91.604 149.184 91.85C149.184 91.8299 149.218 91.9144 149.218 92.1113C149.219 92.7442 149.01 93.476 148.635 94.3117C148.258 95.1494 147.696 95.9333 147.029 96.6893C146.374 97.4316 145.592 98.0811 144.668 98.6058C143.75 99.1282 142.776 99.3916 141.67 99.3928C140.715 99.3943 139.854 99.2066 139.022 98.7986C138.228 98.4099 137.651 97.8392 137.361 97.1182C137.046 96.338 137.007 95.637 137.241 94.999C137.475 94.3607 137.763 93.7708 138.16 93.2147C138.549 92.6699 138.794 92.3412 139.138 91.8864C139.48 91.4364 139.626 91.0063 139.556 90.6103C139.457 90.0573 139.018 89.762 138.247 89.7126C137.477 89.6635 136.656 90.0163 135.719 90.7657C135.117 92.037 134.784 93.1506 134.525 94.4548C134.451 94.8283 134.4 95.2748 134.326 95.786C134.251 96.2997 134.172 96.7905 134.127 97.268C134.073 97.8299 134.031 98.3985 133.961 98.9556C133.948 99.0618 133.711 99.1553 133.325 99.2376C132.907 99.327 132.538 99.3692 132.152 99.3698C131.834 99.3703 131.581 99.3448 131.348 99.2803C131.129 99.2198 130.992 99.122 130.928 98.9995C130.908 98.961 130.889 98.9263 130.878 98.8841C130.872 98.8598 130.895 98.8439 130.911 98.8439C130.911 98.7988 130.928 98.6128 130.944 98.2814C130.961 97.9601 130.985 97.5428 131.01 97.0307C131.034 96.518 131.059 95.9408 131.091 95.3027C131.124 94.665 131.201 94.0127 131.24 93.339C131.266 92.8874 131.33 92.1995 131.422 91.2744C131.512 90.3511 131.554 89.3807 131.636 88.3715C131.718 87.3567 131.738 83.3131 131.729 82.4292C131.719 81.5402 131.627 80.9222 131.492 80.5765C131.392 80.3199 131.257 80.1792 131.089 80.1399C130.939 80.1045 130.721 80.0851 130.469 80.0855C130.184 80.0857 129.97 79.9341 129.865 79.6392C129.785 79.4119 129.832 79.2976 130.083 79.2972C130.25 79.297 130.585 79.3113 131.139 79.3361C131.675 79.3599 132.127 79.3752 132.496 79.3746C132.864 79.3742 133.217 79.3663 133.468 79.3533C133.719 79.3407 133.937 79.3328 134.171 79.3324C134.44 79.3322 134.598 79.4106 134.658 79.5577C134.75 79.7874 134.809 80.3764 134.777 81.3356C134.745 82.2997 134.666 86.8458 134.502 88.7948C134.473 89.1386 134.398 89.8657 134.501 90.1226C136.093 86.9884 140.147 81.2952 143.043 79.1553C143.748 78.635 144.365 78.3021 144.852 78.1941C145.387 78.0747 145.807 78.0269 146.058 78.0265C146.896 78.0257 147.582 78.1486 148.153 78.3956C148.738 78.6488 149.188 78.961 149.495 79.3332C149.808 79.7135 149.981 80.0961 149.999 80.5127C150.016 80.9197 149.885 81.2936 149.615 81.6182C149.366 81.9167 149.096 82.0659 148.828 82.0663C148.56 82.0665 148.277 81.9778 148.023 81.8263C147.74 81.6573 147.439 81.4473 147.151 81.1895C146.851 80.9207 146.549 80.6756 146.228 80.4422C145.895 80.1991 145.574 80.0261 145.222 79.901C144.871 79.776 144.485 79.7452 144.049 79.8625ZM16.898 70.4011C15.6816 70.5062 14.4245 70.5611 13.1306 70.5776C12.2614 70.5886 11.3939 70.5704 10.5219 70.5075C9.65022 70.4446 8.77608 70.3287 7.90835 70.1628C4.4832 69.5076 1.69362 66.1763 2.42893 63.1066C2.5779 62.4843 2.8779 61.7361 3.24865 61.1953C4.12486 59.9173 6.78864 58.8042 8.5458 59.1408C9.23766 59.2735 9.73856 59.4932 10.0483 59.8002C10.3578 60.107 10.5717 60.4279 10.6901 60.7633C10.8084 61.0987 10.8972 61.4086 10.9566 61.6935C11.0161 61.9786 11.1415 62.1654 11.3331 62.2542C11.5636 62.2985 11.8108 62.2741 12.069 62.1739C12.3274 62.0736 12.5672 61.9308 12.7959 61.7467C13.0245 61.5623 13.2237 61.3532 13.3934 61.1185C13.563 60.8843 13.6739 60.658 13.7246 60.4463C13.8231 60.0355 13.7652 59.627 13.5516 59.2149C13.3383 58.8028 13.0261 58.4173 12.614 58.0646C12.2019 57.712 11.7217 57.4052 11.1676 57.1424C10.6131 56.8799 10.0408 56.6922 9.45739 56.5803C8.49387 56.3955 7.55374 56.4108 6.62974 56.6244C5.70595 56.8379 4.8523 57.202 4.07603 57.7176C3.29976 58.233 2.62176 58.8715 2.04183 59.633C1.4619 60.3946 1.03446 61.2309 0.759492 62.1421C0.416252 63.5742 0.399699 64.8867 0.711491 66.0731C1.02308 67.2594 1.53639 68.3154 2.24438 69.2392C2.95279 70.1628 3.79445 70.9432 4.76872 71.5858C5.74299 72.2284 6.71892 72.7151 7.70374 73.0471C8.0716 73.1696 8.44939 73.2811 8.83691 73.3815C9.22443 73.482 9.61504 73.5697 10.0083 73.6453C10.6346 73.7653 11.2621 73.8613 11.8882 73.9306C11.6625 79.5308 11.5092 83.7401 11.2818 89.8102C11.2028 91.9212 11.1254 94.0334 11.0523 96.1443C11.0389 96.536 10.9785 96.8714 10.9336 97.1476C10.8887 97.4225 10.7621 97.6528 10.5742 97.8339C10.389 98.0126 10.1343 98.15 9.83104 98.2536C9.52773 98.3579 9.10814 98.3958 8.55925 98.4365C8.46221 98.4436 8.40118 98.521 8.40429 98.6037C8.40801 98.6817 8.42725 98.7543 8.46243 98.8224C8.51394 98.8894 8.54953 98.9571 8.58449 99.0247C8.61987 99.0924 8.68628 99.122 8.87994 99.1145C8.94469 99.1123 9.13876 99.1019 9.46173 99.0783C9.80062 99.0531 10.1722 99.0324 10.5928 99.0161C11.0132 98.9997 11.4498 98.9776 11.8532 98.9488C12.3055 98.917 12.6775 98.8985 13.0007 98.8861C13.6801 98.8596 14.2627 98.8528 14.7808 98.854C15.2832 98.8549 15.7855 98.8549 16.2547 98.8476C16.7569 98.8402 17.3072 98.8329 17.8257 98.8377C18.3767 98.8423 19.0077 98.8238 19.784 98.7941C23.0339 98.6681 25.6873 98.211 27.7099 97.4101C29.7323 96.609 31.2913 95.6124 32.3285 94.4463C34.4069 92.1088 34.558 89.1144 33.245 86.3917C31.7696 83.3321 29.1679 80.9038 25.0805 79.5356C23.2141 78.911 18.4393 78.1301 16.8018 79.1557C16.4051 79.4044 16.2388 79.6872 16.2992 79.9353C16.3768 80.2535 16.5338 80.5504 16.8388 80.8076C17.1558 81.0741 17.4885 81.2611 17.8352 81.372C18.1948 81.4868 18.5536 81.4932 18.8891 81.3958C19.1937 81.3072 19.4416 81.0614 19.6029 80.6638C19.6495 80.6205 19.6567 80.6903 19.4767 80.6425C19.2804 80.5899 19.083 80.5332 18.838 80.4782C18.5763 80.4196 18.3911 80.3394 18.1795 80.2322C17.961 80.1217 17.8814 79.9988 17.9366 79.8594C18.214 79.1617 21.3491 79.7303 22.0662 79.895C24.5407 80.4641 25.6128 80.813 27.3979 82.5999C28.1742 83.3772 28.7922 84.242 29.2596 85.207C29.9121 86.5558 30.221 87.9734 30.2196 89.4513C30.2183 90.924 29.8635 92.282 29.1638 93.5246C27.5279 96.4299 23.8654 97.3625 20.7117 97.4842C19.6288 97.5258 18.7058 97.5545 17.9782 97.5713C17.234 97.5885 16.617 97.575 16.1294 97.5231C15.6413 97.4707 15.2834 97.3807 15.0494 97.2705C14.7879 97.1472 14.6335 96.9721 14.5079 96.7301C14.3691 96.463 14.331 96.2205 14.3312 96.0092C14.3434 88.8078 13.9383 81.0958 14.9325 74.328L14.9678 74.083C16.1474 74.0785 17.3407 74.0156 18.543 73.8875C19.7879 73.7551 21.0406 73.5911 22.2992 73.4026C23.5577 73.2141 24.8231 73.0268 26.0966 72.8344C27.7188 72.5897 32.5939 71.688 33.8545 71.7079C35.538 71.7344 38.748 71.7697 40.7696 73.1806C41.4784 73.6748 41.3106 74.4412 42.1701 74.8086C42.371 74.8943 42.6031 74.807 42.8183 74.6787C43.0337 74.5508 43.183 74.3123 43.2664 73.9637C43.398 73.4156 43.2981 72.9147 42.9685 72.4542C42.6389 71.9938 42.1761 71.586 41.5732 71.2293C40.9703 70.8729 40.278 70.5644 39.5015 70.3113C38.7249 70.0581 37.9633 69.8601 37.2172 69.7169C36.4031 69.5609 35.5802 69.4424 34.7481 69.3611C33.9164 69.2793 33.0648 69.2206 32.1938 69.184C31.3225 69.1471 30.4333 69.1267 29.5211 69.1145C25.137 69.0563 21.2494 70.0252 16.898 70.4011ZM49.3324 105.285C49.3142 105.29 49.2745 105.289 49.2656 105.256C49.2745 105.289 49.3142 105.29 49.3324 105.285ZM75.1519 114.319C74.9417 114.18 74.7508 114.033 74.5784 113.878L74.0064 114.045C74.2062 114.202 74.4206 114.356 74.6496 114.506C75.6504 115.16 76.6122 115.616 77.5668 115.903C78.5063 116.186 79.3941 116.32 80.2316 116.307C81.0694 116.293 81.8212 116.139 82.4932 115.862C83.1778 115.58 83.7441 115.208 84.1844 114.74C84.6813 114.212 85.0449 113.6 85.2209 112.875C85.3951 112.157 85.3525 111.383 85.1175 110.575C84.8814 109.762 84.4178 108.914 83.7069 108.051C82.9914 107.182 81.9954 106.335 80.7209 105.503C77.2662 103.247 72.7071 102.263 68.2164 102.415C67.9809 101.667 67.6247 100.956 67.1747 100.287C66.6847 99.5563 66.0254 98.9229 65.2454 98.3403C64.4821 97.7697 63.5519 97.3379 62.4959 97.0679C63.2991 96.2432 64.035 95.318 64.6876 94.2928C65.3395 93.2675 65.8886 92.2324 66.2753 91.1619C66.6566 90.1067 66.9177 89.0573 67.0087 88.032C67.0994 87.013 66.9398 86.083 66.62 85.2602C66.3684 84.6124 65.9635 84.103 65.4115 83.7246C64.8734 83.3557 64.1372 83.1639 63.2157 83.1649C62.3948 83.166 61.6197 83.4575 60.8708 84.0469C60.1301 84.6296 59.4467 85.3334 58.8289 86.1337C58.2088 86.9369 57.6779 87.7491 57.2236 88.5515C56.7585 89.3724 56.3855 90.0031 56.1535 90.4814C56.0344 90.7266 55.9696 90.9436 55.9868 91.1193C56.0037 91.2951 56.0526 91.4277 56.1546 91.496C56.2706 91.5732 56.4213 91.572 56.557 91.5155C56.7227 91.4462 56.8725 91.3131 56.9753 91.0779C57.307 90.3182 57.6326 89.5586 58.0615 88.8668C58.5024 88.1563 58.9222 87.5613 59.3832 87.0118C59.8255 86.4852 60.2534 86.0466 60.6885 85.7346C61.124 85.4226 61.5092 85.2664 61.8277 85.266C62.0788 85.2656 62.3825 85.3473 62.7159 85.526C63.0363 85.698 63.2912 85.9601 63.4375 86.3139C63.6945 86.9344 63.8248 87.6943 63.8592 88.5784C63.8937 89.4672 63.8349 90.4028 63.6616 91.3711C63.4857 92.3519 63.2273 93.32 62.8441 94.28C62.4591 95.2445 61.9919 96.0943 61.4734 96.8434C60.7023 96.819 59.9807 96.8958 59.3788 97.0718C58.7915 97.2438 58.3032 97.4691 57.8884 97.7465C57.4828 98.0178 57.2226 98.3318 57.0684 98.6467C56.9052 98.9803 56.893 99.2883 57.0194 99.5858C57.1787 99.9614 57.5731 100.148 58.1764 100.147C58.4445 100.147 58.7155 100.077 59.0474 99.92C59.3517 99.7754 59.6354 99.5902 59.9348 99.3713C60.2211 99.1625 60.535 98.9261 60.8221 98.6618C61.1041 98.4028 61.3913 98.1593 61.659 97.9328C62.1113 97.9824 62.5307 98.2584 62.9335 98.7547C63.3361 99.2515 63.6808 99.8221 63.9576 100.456C64.2355 101.092 64.4621 101.741 64.6472 102.404C64.6809 102.525 64.7147 102.645 64.7484 102.76C61.3406 103.332 54.5455 105.461 53.4792 109.499C53.2332 110.431 53.2146 111.212 53.5998 111.915C53.9534 112.562 54.5379 113.057 55.3439 113.374C56.1808 113.703 57.2219 113.757 58.545 113.561C61.4772 113.129 63.7532 112.157 65.3947 110.645C67.0451 109.124 68.7551 106.341 68.3908 104.016C73.612 103.639 78.6317 104.283 82.3989 108.712C85.0016 111.771 82.553 115.16 79.3256 115.419C78.6547 115.473 77.9854 115.435 77.2643 115.266C76.5605 115.1 75.8419 114.776 75.1519 114.319ZM64.7889 104.401C64.7064 105.421 64.5922 106.053 64.3178 107.05C64.0418 108.052 63.6355 108.976 63.1485 109.804C62.6656 110.624 62.0155 111.328 61.274 111.87C60.5087 112.43 59.6501 112.767 58.6448 112.923C58.0249 113.02 57.4415 112.962 56.9857 112.77C56.5028 112.566 56.1432 112.281 55.9288 111.877C55.6394 111.332 55.5337 110.668 55.608 109.894C55.9992 105.813 61.6315 104.953 64.7889 104.401ZM82.0639 87.6999C82.1585 86.504 82.1872 85.4993 82.1274 84.6813C82.068 83.8721 81.9362 83.2823 81.79 82.9088C81.7513 82.8103 81.7476 82.7224 81.7395 82.6628C81.7306 82.596 81.8394 82.5455 81.9739 82.5118C82.1409 82.47 82.4094 82.4512 82.7781 82.4505C83.1803 82.4499 83.6996 82.4493 84.3867 82.4487C84.5878 82.4483 84.7887 82.4747 84.923 82.508C85.0902 82.5496 85.1758 82.6171 85.2083 82.7137C85.2605 82.8701 85.3093 83.1205 85.2927 83.4819C85.2766 83.8436 85.2439 84.4063 85.1777 85.1696C85.1119 85.9282 85.0629 86.9276 84.9636 88.1683C84.8649 89.4039 84.7407 90.9618 84.6176 92.8346C84.5599 93.709 84.5525 94.3816 84.5864 94.8587C84.6203 95.3308 84.6696 95.6981 84.7722 95.9432C84.888 96.2201 85.0064 96.3736 85.158 96.4098C85.3415 96.4536 85.4599 96.4648 85.6442 96.4646C86.1133 96.464 86.5978 96.2209 87.1347 95.7543C87.6859 95.2754 88.0898 94.5887 88.4727 93.7288C88.524 93.6138 88.6231 93.573 88.7071 93.5728C88.9583 93.5724 89.1859 93.699 89.2773 93.9488C89.3038 94.0212 89.2941 94.0744 89.2941 94.1044C89.2277 94.3758 89.0526 94.8092 88.7764 95.3958C88.5011 95.9803 88.1371 96.5637 87.6559 97.16C87.1835 97.7453 86.6626 98.2425 86.0324 98.6939C85.4402 99.1181 84.7933 99.3535 84.0894 99.3543C83.4696 99.3552 82.9846 99.2186 82.631 98.9443C82.2801 98.672 82.0227 98.3039 81.8421 97.8554C81.6025 97.2597 81.4637 96.5648 81.4875 95.7817C81.5119 94.9878 81.5191 94.1995 81.6019 93.4009C81.5518 93.4009 81.5349 93.3858 81.5016 93.3608C81.4511 93.3105 81.4006 93.2857 81.3838 93.2857C81.3505 93.2857 81.317 93.3008 81.317 93.3208C81.2669 93.5519 81.093 93.8486 80.8323 94.2254C80.5745 94.5978 80.2358 94.9952 79.8619 95.4421C79.4994 95.8754 79.0716 96.3227 78.5732 96.7745C78.0841 97.2181 77.6022 97.6346 77.0835 97.9969C76.5644 98.3592 76.0439 98.648 75.5597 98.8778C75.0892 99.1011 74.6047 99.2155 74.1859 99.2161C73.5826 99.2167 73.1138 99.0864 72.761 98.8061C72.4261 98.5396 72.1687 98.1709 71.9889 97.7219C71.7485 97.1217 71.6271 96.4268 71.6345 95.6381C71.6418 94.8548 71.6496 94.0578 71.7154 93.2625C71.8476 91.6615 71.9544 90.3082 72.0454 89.1941C72.136 88.0831 72.2188 87.1601 72.2597 86.4213C72.3007 85.6833 72.2999 85.1011 72.2744 84.6786C72.2486 84.2522 72.2012 83.9425 72.1224 83.7445C72.0332 83.5206 71.8879 83.3758 71.7365 83.3282C71.5695 83.2758 71.3678 83.2533 71.1162 83.2537C70.9656 83.2539 70.8425 83.2169 70.714 83.1236C70.6073 83.0462 70.5529 82.9247 70.4958 82.8074C70.3847 82.5784 70.4786 82.4658 70.73 82.4656C70.7968 82.4656 70.9145 82.4729 71.1152 82.4851C71.3165 82.4973 71.5511 82.5047 71.7688 82.5043C71.9866 82.5043 72.238 82.5099 72.4729 82.5236C72.7406 82.5393 72.9586 82.543 73.143 82.5428C73.5117 82.5426 73.8301 82.5364 74.0813 82.5215C74.3494 82.5058 74.584 82.501 74.8186 82.5006C74.9192 82.5004 75.053 82.507 75.1203 82.5205C75.2037 82.5368 75.292 82.5991 75.3384 82.7261C75.393 82.8753 75.431 83.1374 75.4399 83.5144C75.4486 83.886 75.4075 84.4469 75.3415 85.1971C75.2753 85.9491 75.2093 86.9348 75.1106 88.1404C75.0112 89.3559 74.8892 90.8737 74.7475 92.6962C74.6914 93.4204 74.6904 94.028 74.733 94.5142C74.7754 94.9971 74.8528 95.3977 74.969 95.6943C75.2055 96.2962 75.6071 96.5927 76.1264 96.5919C76.713 96.591 77.3463 96.325 78.0023 95.8162C78.6688 95.299 79.2756 94.6299 79.8429 93.7948C80.4129 92.9561 80.9212 92.0085 81.3307 90.9453C81.7399 89.8831 81.977 88.7993 82.0639 87.6999ZM50.0195 83.2096C50.0586 83.1114 50.0967 83.0135 50.1699 82.9283C50.2477 82.8372 50.3543 82.7735 50.5717 82.7367C50.7732 82.7027 51.0411 82.6727 51.3593 82.6454C51.6945 82.6167 52.1636 82.6043 52.7333 82.6034C53.1353 82.603 53.3683 82.6636 53.4206 82.7886C53.4523 82.8645 53.4146 82.9603 53.3371 83.0901C53.264 83.2119 53.1867 83.3665 53.1031 83.5423C52.9862 83.7885 52.8432 84.2029 52.652 84.7783C52.4592 85.3587 52.2347 86.0093 52.0177 86.748C51.8009 87.4866 51.5766 88.2684 51.384 89.1093C51.1934 89.9416 51.0339 90.7721 50.9348 91.5808C50.8349 92.3944 50.7608 93.1481 50.7533 93.8511C50.7457 94.5444 50.8427 95.1266 51.0236 95.5735C51.2797 96.2062 51.7117 96.5068 52.3316 96.506C52.7675 96.5056 53.2349 96.2623 53.7217 95.7961C54.2222 95.317 54.6498 94.6313 55.0094 93.7303C55.051 93.626 55.1433 93.5844 55.2438 93.5844C55.512 93.584 55.7056 93.7102 55.8306 93.9906C55.8409 94.0133 55.814 94.0307 55.7973 94.0307C55.7805 94.0307 55.7973 94.0458 55.7973 94.0708C55.7973 94.0808 55.814 94.0959 55.814 94.106C55.7642 94.3773 55.5993 94.8072 55.3129 95.3972C55.0311 95.9784 54.6869 96.5825 54.2261 97.1817C53.7666 97.7792 53.2752 98.317 52.6696 98.7756C52.0533 99.2426 51.4305 99.4946 50.7101 99.5064C50.1068 99.5161 49.5923 99.3065 49.1843 98.9105C48.7703 98.5089 48.4688 98.0099 48.2106 97.4151C47.9478 96.8101 47.7813 96.1541 47.6888 95.4471C47.5951 94.7331 47.5531 94.0812 47.5856 93.4785C47.5856 93.4533 47.552 93.4334 47.5018 93.4032C47.3845 93.333 47.351 93.2929 47.3342 93.2929C47.3174 93.2929 47.2622 93.3155 47.2169 93.4036C47.0948 93.6421 46.8691 94.1089 46.5147 94.7354C46.1501 95.3805 45.6699 96.0343 45.0761 96.7011C44.4652 97.387 43.7708 97.9785 42.984 98.4864C42.1804 99.0049 41.3259 99.2571 40.3539 99.2581C39.4322 99.2594 38.6454 99.0432 38.0742 98.6432C37.4713 98.221 37.0254 97.6685 36.7316 96.9423C36.4202 96.1729 36.2686 95.2754 36.2926 94.2608C36.3164 93.2511 36.4904 92.2113 36.8082 91.1464C37.1245 90.0862 37.5555 89.0387 38.128 88.0208C38.7091 86.9882 39.3762 86.0646 40.1355 85.261C40.9157 84.4355 41.7927 83.7827 42.7471 83.2889C43.7185 82.7861 44.7234 82.5381 45.8294 82.5368C46.4998 82.5358 47.0702 82.6032 47.5221 82.7406C47.9586 82.8732 48.3281 83.0394 48.6118 83.2264C48.8981 83.4151 49.1207 83.6036 49.2662 83.8082C49.406 84.0049 49.5178 84.1694 49.6185 84.295C49.7354 83.9331 49.8747 83.5736 50.0195 83.2096ZM41.8254 96.705C42.6128 96.704 43.3152 96.4553 43.986 95.9538C44.6545 95.4543 45.2625 94.8403 45.8104 94.0984C46.3498 93.3676 46.7979 92.5657 47.1813 91.7162C47.5665 90.8623 47.8593 90.1007 48.0834 89.4298C48.4436 88.3522 48.6674 87.42 48.7167 86.6213C48.7659 85.8227 48.6879 85.1574 48.4796 84.6329C48.0995 83.6764 47.3551 83.213 46.2325 83.2142C45.4783 83.2152 44.7557 83.4281 44.0717 83.8698C43.3995 84.3039 42.7784 84.8778 42.2473 85.5949C41.7244 86.3005 41.2316 87.1076 40.8259 88.0173C40.4295 88.9067 40.1417 89.8115 39.9412 90.7156C39.7417 91.615 39.6416 92.4684 39.6259 93.2824C39.6102 94.0959 39.7175 94.7933 39.947 95.3612C40.1212 95.7924 40.3693 96.121 40.6688 96.3548C40.973 96.5925 41.3561 96.7056 41.8254 96.705ZM91.27 92.8615C91.4053 93.685 91.6562 94.3483 91.993 94.8494C92.3276 95.347 92.7159 95.7202 93.1004 95.973C93.4707 96.2165 93.805 96.3775 94.1398 96.4388C94.4586 96.4973 94.6763 96.5085 94.8101 96.453C95.3299 96.4524 95.8047 96.2211 96.217 95.7432C96.6246 95.2708 97.0268 94.6503 97.3709 93.8834C97.7119 93.1226 98.0313 92.253 98.3394 91.2804C98.6487 90.3039 98.9733 89.0197 99.3238 87.9947C99.6745 86.97 100.042 85.9746 100.443 85.0001C100.844 84.0254 101.329 83.1507 101.847 82.3717C102.031 82.2707 102.094 82.1975 102.115 82.1652C102.144 82.122 102.199 82.11 102.266 82.1098C102.35 82.1098 102.551 82.1183 102.819 82.1443C103.104 82.1723 103.573 82.1836 104.26 82.1828C104.478 82.1824 104.646 82.1956 104.846 82.2372C105.031 82.2753 105.106 82.3465 105.098 82.4429C105.04 83.1703 104.892 84.0337 104.666 85.05C104.442 86.058 104.258 87.144 104.1 88.3102C103.943 89.4693 103.818 90.9622 103.803 92.228C103.788 93.4884 103.904 94.735 104.193 95.9592C104.258 96.231 104.361 96.3879 104.546 96.4259C104.747 96.4673 104.881 96.4805 105.065 96.4803C105.518 96.4797 106.031 96.2312 106.556 95.7655C107.102 95.2808 107.524 94.6079 107.911 93.7398C107.958 93.633 108.011 93.589 108.128 93.5888C108.396 93.5884 108.564 93.7137 108.665 93.9647C108.715 94.0903 108.725 94.3139 108.615 94.6429C108.508 94.9673 108.333 95.3267 108.097 95.7283C107.864 96.1259 107.605 96.5397 107.261 96.9649C106.918 97.3892 106.54 97.778 106.14 98.1465C105.754 98.5021 105.336 98.7998 104.868 99.0322C104.432 99.248 103.98 99.3698 103.511 99.3705C102.874 99.3711 102.392 99.2209 102.069 98.9552C101.721 98.6691 101.441 98.3213 101.263 97.8713C100.97 97.1265 100.784 96.1839 100.707 95.0594C100.63 93.9341 100.612 92.7585 100.703 91.5188C100.793 90.2826 100.925 88.7776 101.133 87.5656C101.341 86.3565 101.549 85.2949 101.766 84.3956C101.465 84.7727 101.156 85.4087 100.863 86.3102C100.572 87.2069 99.8565 89.8094 99.4887 90.9246C99.1225 92.035 99.0952 91.8668 98.6768 93.0581C98.2606 94.2434 97.757 95.3137 97.206 96.2492C96.6534 97.1883 96.0153 97.9191 95.2986 98.4616C94.5925 98.9956 93.7581 99.1555 92.8024 98.9668C92.1153 98.8311 91.6126 98.6714 91.3105 98.4665C90.9921 98.2503 90.7469 97.922 90.5719 97.473C90.3265 96.8428 90.2351 96.0821 90.2843 95.1678C90.3333 94.2537 90.6677 93.4849 91.27 92.8615ZM121.258 87.6509C121.335 86.4552 121.381 85.4505 121.321 84.6325C121.262 83.8233 121.158 83.2287 121 82.86C120.956 82.7567 120.95 82.6812 120.95 82.6138C120.95 82.5465 121.017 82.501 121.167 82.463C121.336 82.4201 121.586 82.4021 121.972 82.4017C122.357 82.4011 122.893 82.4007 123.564 82.3996C123.782 82.3994 123.966 82.4176 124.133 82.4592C124.268 82.4925 124.37 82.5683 124.402 82.6649C124.454 82.8211 124.495 83.066 124.47 83.4331C124.445 83.7945 124.429 84.3567 124.371 85.1209C124.314 85.8786 124.248 86.8793 124.157 88.1195C124.067 89.3557 123.901 90.9066 123.778 92.7858C123.721 93.6541 123.729 94.3328 123.763 94.8099C123.797 95.2818 123.863 95.6492 123.966 95.8944C124.082 96.171 124.201 96.3214 124.368 96.361C124.519 96.3965 124.687 96.4158 124.838 96.4156C125.307 96.415 125.792 96.1721 126.328 95.7055C126.88 95.2266 127.282 94.537 127.666 93.6798C127.717 93.566 127.8 93.524 127.901 93.524C128.152 93.5236 128.337 93.6591 128.438 93.8999C128.471 93.9802 128.471 94.0255 128.471 94.0557C128.421 94.327 128.253 94.7635 127.987 95.347C127.719 95.9343 127.34 96.5372 126.883 97.1112C126.403 97.7139 125.865 98.2058 125.243 98.6451C124.626 99.0812 123.987 99.3045 123.283 99.3055C122.646 99.3061 122.16 99.1712 121.825 98.8954C121.489 98.6196 121.231 98.2495 121.053 97.8065C120.811 97.2051 120.682 96.5213 120.698 95.7326C120.714 94.9441 120.713 94.1507 120.796 93.3519C120.762 93.3519 120.745 93.337 120.729 93.3119C120.645 93.2619 120.594 93.2366 120.561 93.2366C120.544 93.2366 120.511 93.2519 120.494 93.272C120.461 93.5031 120.316 93.8035 120.059 94.1766C119.798 94.5574 119.434 94.9506 119.055 95.3933C118.681 95.8307 118.263 96.2662 117.767 96.7257C117.292 97.1664 116.796 97.5858 116.277 97.9481C115.758 98.3103 115.254 98.5992 114.753 98.8288C114.266 99.0525 113.798 99.1665 113.396 99.1671C112.776 99.1679 112.312 99.0272 111.972 98.757C111.624 98.4806 111.362 98.1218 111.183 97.6731C110.942 97.0727 110.796 96.3779 110.811 95.5894C110.827 94.8057 110.86 94.0123 110.926 93.2137C111.058 91.6113 111.173 90.26 111.256 89.1451C111.338 88.0349 111.412 87.1113 111.453 86.3725C111.494 85.6345 111.502 85.0514 111.485 84.6296C111.467 84.2027 111.403 83.8905 111.333 83.6956C111.251 83.4689 111.082 83.3269 110.93 83.2794C110.763 83.227 110.544 83.2045 110.293 83.2047C110.176 83.2049 110.043 83.1538 109.941 83.0745C109.825 82.9835 109.72 82.8803 109.673 82.7584C109.585 82.5339 109.655 82.417 109.907 82.4168C109.974 82.4166 110.125 82.4249 110.309 82.4363C110.527 82.4495 110.745 82.4559 110.962 82.4557C111.18 82.4553 111.415 82.4625 111.666 82.4747C111.918 82.4872 112.136 82.4944 112.337 82.4942C112.705 82.4936 113.024 82.4876 113.275 82.4729C113.543 82.457 113.778 82.452 114.012 82.4518C114.113 82.4516 114.247 82.4582 114.314 82.4714C114.398 82.488 114.479 82.5527 114.532 82.6771C114.597 82.8287 114.633 83.0888 114.634 83.4656C114.634 83.8372 114.609 84.3991 114.552 85.148C114.494 85.9009 114.386 86.8812 114.287 88.0918C114.188 89.3021 114.07 90.824 113.941 92.6474C113.889 93.3755 113.876 93.9786 113.927 94.4656C113.977 94.9477 114.056 95.3463 114.18 95.6453C114.426 96.2451 114.801 96.5437 115.32 96.543C115.907 96.5422 116.54 96.2763 117.196 95.7672C117.862 95.2501 118.484 94.5845 119.053 93.746C119.621 92.9106 120.122 91.9626 120.524 90.8964C120.924 89.8369 121.187 88.7505 121.258 87.6509Z" fill="#463A3A"/>
<path fill-rule="evenodd" clip-rule="evenodd" d="M67.3866 63.8894C67.5201 63.9151 67.6736 63.9474 67.847 63.9861C68.0206 64.0245 68.2008 64.0568 68.3876 64.0825C68.6812 64.1596 68.8279 64.3399 68.8279 64.6229C68.8279 64.7772 68.7679 64.9187 68.6479 65.0474C68.5277 65.1761 68.3876 65.2405 68.2273 65.2405L68.0272 65.202C67.2797 65.0218 66.479 64.9318 65.6249 64.9318C64.7973 64.9318 64.0099 65.0218 63.2626 65.202L63.1025 65.2405C62.8889 65.2405 62.7288 65.1761 62.622 65.0474C62.5153 64.9187 62.4619 64.7772 62.4619 64.6229C62.4619 64.3399 62.5954 64.1596 62.8623 64.0825C63.0758 64.031 63.276 63.9796 63.4629 63.9281C63.6497 63.8766 63.7964 63.851 63.9032 63.851V50.5722C62.8889 52.3993 61.8679 54.2136 60.8403 56.015C59.8126 57.8162 58.7916 59.6433 57.7774 61.4963V63.8894C57.9375 63.941 58.0977 63.973 58.2578 63.9861C58.4179 63.9989 58.5781 64.0181 58.7382 64.044C59.0585 64.1212 59.2188 64.314 59.2188 64.6229C59.2188 64.7772 59.152 64.9187 59.0185 65.0474C58.8851 65.1761 58.7382 65.2405 58.5781 65.2405L58.4179 65.202C57.6706 65.0218 56.8697 64.9318 56.0157 64.9318C55.6153 64.9318 55.2216 64.951 54.8345 64.9897C54.4474 65.0282 54.0272 65.1118 53.5733 65.2405C53.3331 65.2405 53.1462 65.1761 53.0128 65.0474C52.8793 64.9187 52.8125 64.7772 52.8125 64.6229C52.8125 64.314 52.9726 64.1212 53.2929 64.044C53.48 64.0181 53.6602 63.9925 53.8335 63.9666C54.0071 63.941 54.1472 63.9151 54.2539 63.8894V41.2695C53.907 41.218 53.5999 41.1537 53.3331 41.0765C52.9861 41.0765 52.8125 40.8835 52.8125 40.4974C52.8125 40.1113 53.0796 39.9185 53.6134 39.9185C54.3874 40.0985 55.1883 40.1885 56.0157 40.1885C56.843 40.1885 57.6839 40.0985 58.5381 39.9185C58.9919 39.9185 59.2188 40.1113 59.2188 40.4974C59.2188 40.8835 59.0585 41.0765 58.7382 41.0765C58.6048 41.1278 58.4647 41.1665 58.3178 41.1922C58.1711 41.218 57.9909 41.2437 57.7774 41.2695V54.162C58.7916 52.3865 59.8126 50.6173 60.8403 48.8545C61.8679 47.0918 62.8889 45.3224 63.9032 43.5468V41.308C63.5295 41.2824 63.2092 41.2052 62.9423 41.0765C62.622 41.0765 62.4619 40.8835 62.4619 40.4974C62.4619 40.1113 62.7288 39.9185 63.2626 39.9185C64.0099 40.0985 64.7973 40.1885 65.6249 40.1885C66.479 40.1885 67.2797 40.0985 68.0272 39.9185H68.2273C68.6278 39.9185 68.8279 40.1113 68.8279 40.4974C68.8279 40.8835 68.6677 41.0765 68.3475 41.0765C68.0806 41.1793 67.7603 41.2565 67.3866 41.308V63.8894ZM85.49 63.8894C85.7571 63.941 86.0906 64.0053 86.491 64.0825C86.7848 64.1596 86.9315 64.3399 86.9315 64.6229C86.9315 64.7772 86.8715 64.9187 86.7513 65.0474C86.6313 65.1761 86.491 65.2405 86.3309 65.2405L86.1308 65.202C85.3835 65.0218 84.5826 64.9318 83.7285 64.9318C82.9276 64.9318 82.1402 65.0218 81.3662 65.202L81.206 65.2405C80.9925 65.2405 80.8324 65.1761 80.7256 65.0474C80.6189 64.9187 80.5655 64.7772 80.5655 64.6229C80.5655 64.3399 80.6989 64.1596 80.9658 64.0825C81.1794 64.031 81.3796 63.9796 81.5665 63.9281C81.7533 63.8766 81.9 63.851 82.0067 63.851V52.4636H75.881V63.8894C76.1479 63.941 76.4814 64.0053 76.8819 64.0825C77.1755 64.1596 77.3222 64.3399 77.3222 64.6229C77.3222 64.7772 77.2688 64.9187 77.1621 65.0474C77.0553 65.1761 76.8952 65.2405 76.6817 65.2405L76.4814 65.202C75.7608 65.0218 74.9868 64.9318 74.1594 64.9318C73.3318 64.9318 72.5311 65.0218 71.7569 65.202L71.5968 65.2405C71.3833 65.2405 71.2231 65.1761 71.1164 65.0474C71.0096 64.9187 70.9562 64.7772 70.9562 64.6229C70.9562 64.3399 71.0897 64.1596 71.3566 64.0825C71.5701 64.031 71.7704 63.9796 71.9572 63.9281C72.144 63.8766 72.2909 63.851 72.3975 63.851V41.308C72.0238 41.2824 71.7035 41.2052 71.4366 41.0765C71.1164 41.0765 70.9562 40.8835 70.9562 40.4974C70.9562 40.1113 71.2231 39.9185 71.7569 39.9185C72.5311 40.0985 73.3318 40.1885 74.1594 40.1885C74.9868 40.1885 75.7608 40.0985 76.4814 39.9185H76.7218C77.1221 39.9185 77.3222 40.1113 77.3222 40.4974C77.3222 40.8835 77.1621 41.0765 76.8418 41.0765C76.5749 41.1793 76.2546 41.2565 75.881 41.308V49.0281H82.0067V41.308C81.6331 41.2824 81.3128 41.2052 81.0459 41.0765C80.7256 41.0765 80.5655 40.8835 80.5655 40.4974C80.5655 40.1113 80.8324 39.9185 81.3662 39.9185C82.1402 40.0985 82.9276 40.1885 83.7285 40.1885C84.5826 40.1885 85.3835 40.0985 86.1308 39.9185H86.3309C86.7314 39.9185 86.9315 40.1113 86.9315 40.4974C86.9315 40.8835 86.7713 41.0765 86.4511 41.0765C86.1842 41.1793 85.8639 41.2565 85.49 41.308V63.8894ZM102.112 43.8557C102.112 44.1644 102.059 44.5892 101.952 45.1296C101.845 45.67 101.665 46.2425 101.412 46.8472C101.158 47.452 100.824 48.0567 100.411 48.6615C99.9969 49.2663 99.4965 49.7874 98.9093 50.2248C100.27 51.563 101.285 53.0876 101.952 54.7991C102.619 56.5103 102.98 58.3438 103.033 60.2996C103.033 60.9687 102.906 61.5863 102.653 62.1526C102.399 62.7186 102.046 63.2139 101.592 63.6385C101.138 64.0632 100.611 64.3978 100.01 64.6421C99.4098 64.8867 98.7758 65.009 98.1084 65.009H90.501C90.4743 65.0861 90.4611 65.2148 90.4611 65.3948C90.381 65.7809 90.1808 65.9739 89.8605 65.9739C89.7003 65.9739 89.5535 65.9096 89.42 65.7809C89.2866 65.6522 89.2199 65.4592 89.2199 65.202C89.3267 64.8159 89.3801 64.3655 89.3801 63.851C89.3801 62.7958 89.1933 61.7665 88.8196 60.7628C88.7662 60.7113 88.7462 60.6728 88.7594 60.647C88.7728 60.6213 88.7795 60.5826 88.7795 60.5313C88.7795 60.3253 88.8463 60.1773 88.9795 60.0873C89.1132 59.9973 89.2733 59.9522 89.4601 59.9522C89.7537 59.9522 89.954 60.0809 90.0608 60.3383C90.0608 60.4411 90.074 60.5377 90.1007 60.6277C90.1274 60.7177 90.1541 60.8144 90.1808 60.9172C90.2341 61.0459 90.2675 61.1553 90.2809 61.2453C90.2941 61.3353 90.3277 61.4576 90.381 61.6119H97.9482C98.3753 61.6119 98.6956 61.4899 98.9093 61.2453C99.1228 61.0008 99.2428 60.6857 99.2695 60.2996C99.2962 59.5533 99.2229 58.7555 99.0494 57.9064C98.8758 57.0571 98.6223 56.2465 98.2886 55.4746C97.9549 54.7024 97.5345 54.0077 97.0274 53.3901C96.5203 52.7725 95.9331 52.3221 95.2656 52.0391C94.6251 52.0391 93.9845 52.0327 93.3438 52.0198C92.7032 52.0068 92.0627 52.0004 91.4219 52.0004L91.4621 52.0391C91.4621 52.0906 91.4354 52.1934 91.382 52.3478C91.3286 52.5023 91.2753 52.6695 91.2219 52.8497C91.0884 53.1584 90.8749 53.3129 90.5813 53.3129C90.421 53.3129 90.2809 53.2486 90.1609 53.1199C90.0407 52.9912 89.9807 52.8625 89.9807 52.7338L90.0206 52.5795C90.2608 51.9619 90.381 51.0998 90.381 49.9933C90.381 49.7616 90.3744 49.5365 90.361 49.3178C90.3477 49.0989 90.3277 48.8738 90.301 48.6423L90.2608 48.4492C90.2608 48.2434 90.3277 48.0952 90.4611 48.0052C90.5946 47.9152 90.7415 47.8701 90.9016 47.8701C91.2486 47.8701 91.4486 48.0375 91.502 48.3721C91.5287 48.4749 91.5488 48.5392 91.5622 48.5649C91.5754 48.5907 91.5688 48.6551 91.5421 48.7579H94.9454C95.3991 48.6551 95.8396 48.417 96.2666 48.0439C96.6936 47.6707 97.0675 47.2397 97.3878 46.7508C97.708 46.2617 97.9683 45.7536 98.1684 45.226C98.3687 44.6984 98.4688 44.2418 98.4688 43.8557C98.4688 43.6499 98.3219 43.5468 98.0283 43.5468H91.1017C91.075 43.7012 91.0483 43.8235 91.0216 43.9137C90.9949 44.0037 90.955 44.1001 90.9016 44.2031C90.8749 44.3059 90.8482 44.4026 90.8213 44.4926C90.7948 44.5828 90.7679 44.6792 90.7414 44.782C90.6345 45.0394 90.421 45.1681 90.1007 45.1681C89.7004 45.1681 89.5001 44.975 89.5001 44.5892C89.5001 44.4605 89.5135 44.3833 89.5402 44.3575C89.8872 43.3797 90.0608 42.3632 90.0608 41.308C90.0608 41.0506 90.0541 40.7997 90.0407 40.5553C90.0272 40.3108 89.9939 40.06 89.9406 39.8026C89.9406 39.5968 90.0006 39.4422 90.1208 39.3394C90.241 39.2364 90.381 39.1851 90.5412 39.1851C90.8881 39.1851 91.1017 39.3522 91.1817 39.6868L91.2219 40.1113H98.0283C98.5621 40.1113 99.076 40.208 99.5699 40.401C100.064 40.594 100.497 40.8512 100.871 41.1729C101.245 41.4946 101.545 41.8871 101.772 42.3504C101.999 42.8134 102.112 43.3153 102.112 43.8557Z" fill="#463A3A"/>
<path fill-rule="evenodd" clip-rule="evenodd" d="M49.0318 63.5804C49.1917 63.6125 49.3999 63.6526 49.6558 63.7006C49.9119 63.7486 50.184 63.8045 50.472 63.8686C50.7921 63.9646 50.952 64.1887 50.952 64.5406C50.952 64.7326 50.8959 64.9087 50.784 65.0688C50.6721 65.2288 50.4879 65.3088 50.232 65.3088L50.04 65.2608C49.1437 65.0368 48.1997 64.9246 47.2076 64.9246C46.7595 64.9246 46.3113 64.9408 45.8634 64.9728C45.4153 65.0047 44.9833 65.0688 44.5672 65.1648C44.5672 65.2608 44.5351 65.3088 44.4712 65.3088C44.4071 65.3088 44.2792 65.3088 44.0872 65.3088C43.895 65.3088 43.727 65.2288 43.583 65.0688C43.439 64.9087 43.367 64.7326 43.367 64.5406C43.367 64.1566 43.5751 63.9166 43.991 63.8206C44.0872 63.7886 44.1431 63.7726 44.1592 63.7726C44.1751 63.7726 44.2631 63.7565 44.4232 63.7246C43.7831 62.4764 43.1669 61.3002 42.575 60.196C41.9829 59.0918 41.3988 58.0038 40.8226 56.9316C40.2466 55.8595 39.6625 54.7634 39.0704 53.6432C38.4783 52.5231 37.8623 51.3388 37.2222 50.0906V63.6766C37.3821 63.7406 37.5501 63.7726 37.7262 63.7726C37.9022 63.7726 38.1023 63.7886 38.3264 63.8206C38.7104 63.9166 38.9024 64.1566 38.9024 64.5406C38.9024 64.7326 38.8385 64.9087 38.7104 65.0688C38.5823 65.2288 38.3903 65.3088 38.1342 65.3088L37.8942 65.2608C37.0302 65.0368 36.102 64.9246 35.1098 64.9246C34.1177 64.9246 33.1575 65.0368 32.2294 65.2608L32.0374 65.3088C31.7814 65.3088 31.5973 65.2288 31.4854 65.0688C31.3735 64.9087 31.3174 64.7326 31.3174 64.5406C31.3174 64.1566 31.4773 63.9166 31.7974 63.8206C32.0215 63.7886 32.2215 63.7646 32.3974 63.7486C32.5735 63.7325 32.7735 63.6926 32.9976 63.6286V35.4966C32.6454 35.4966 32.2614 35.4167 31.8454 35.2566C31.4932 35.2566 31.3174 35.0166 31.3174 34.5366C31.3174 34.2805 31.3813 34.0965 31.5094 33.9844C31.6374 33.8725 31.8775 33.8164 32.2294 33.8164C33.1575 34.0405 34.1177 34.1524 35.1098 34.1524C36.102 34.1524 37.0302 34.0405 37.8942 33.8164H38.1824C38.6624 33.8164 38.9024 34.0564 38.9024 34.5366C38.9024 35.0166 38.7104 35.2566 38.3264 35.2566C38.0063 35.3526 37.6383 35.4327 37.2222 35.4966V41.0654C37.5102 41.5454 37.7502 41.9855 37.9422 42.3856C38.1342 42.7858 38.3744 43.2577 38.6624 43.8018C39.4945 42.3616 40.3267 40.9454 41.1586 39.5532C41.9907 38.161 42.8228 36.7448 43.655 35.3046C43.5911 35.2725 43.559 35.2647 43.559 35.2806C43.559 35.2967 43.5269 35.2887 43.463 35.2566C43.0151 35.1927 42.791 34.9527 42.791 34.5366C42.791 34.0564 43.1111 33.8164 43.751 33.8164C44.6791 34.0405 45.6393 34.1524 46.6314 34.1524C47.5595 34.1524 48.5677 34.0405 49.6558 33.8164C50.1999 33.8164 50.472 34.0564 50.472 34.5366C50.472 35.0166 50.2639 35.2566 49.848 35.2566C49.5279 35.3847 49.0639 35.4807 48.4558 35.5446C47.1755 37.657 45.9273 39.7533 44.7112 41.8336C43.4951 43.9137 42.2469 46.01 40.9666 48.1224L49.0318 63.5804Z" fill="#463A3A"/>
<path fill-rule="evenodd" clip-rule="evenodd" d="M110.002 43.6626C111.017 44.0743 111.831 44.7498 112.445 45.6891C113.059 46.6284 113.579 47.7413 114.006 49.028H110.002V43.6626ZM106.479 63.8893C106.319 63.9409 106.166 63.9729 106.019 63.986C105.872 63.9988 105.718 64.018 105.558 64.0439C105.238 64.1211 105.078 64.3139 105.078 64.6228C105.078 64.7771 105.151 64.9253 105.298 65.0668C105.445 65.2083 105.625 65.2532 105.838 65.2019C106.586 65.0217 107.387 64.9317 108.241 64.9317C108.615 64.9317 109.008 64.9509 109.422 64.9896C109.836 65.0281 110.243 65.0989 110.643 65.2019L110.803 65.2404C111.017 65.2404 111.17 65.176 111.264 65.0473C111.357 64.9186 111.404 64.7771 111.404 64.6228C111.404 64.3139 111.27 64.1211 111.004 64.0439C110.817 64.018 110.65 63.9988 110.503 63.986C110.356 63.9729 110.189 63.9409 110.002 63.8893V52.4635H114.967C115.047 52.7466 115.121 53.0362 115.187 53.3321C115.254 53.6279 115.328 53.9176 115.408 54.2006C115.808 55.9247 116.235 57.6361 116.689 59.3345C117.143 61.0329 117.797 62.6027 118.651 64.0439H118.37C118.077 64.1211 117.93 64.3139 117.93 64.6228C117.93 64.7771 117.983 64.9186 118.09 65.0473C118.197 65.176 118.344 65.2404 118.531 65.2404L118.731 65.2019C119.452 65.0217 120.226 64.9317 121.053 64.9317C121.907 64.9317 122.708 65.0217 123.455 65.2019L123.615 65.2404C123.829 65.2404 123.989 65.176 124.096 65.0473C124.203 64.9186 124.256 64.7771 124.256 64.6228C124.256 64.3139 124.109 64.1211 123.816 64.0439C123.736 64.0439 123.629 64.0308 123.495 64.0052C123.362 63.9795 123.235 63.9601 123.115 63.9473C122.995 63.9344 122.902 63.9216 122.835 63.9086C122.768 63.8957 122.775 63.8893 122.855 63.8893C122.321 63.2718 121.847 62.5575 121.433 61.7469C121.02 60.9363 120.653 60.0808 120.332 59.18C120.012 58.2794 119.738 57.3401 119.512 56.3623C119.285 55.3843 119.064 54.4193 118.851 53.4672C118.451 51.7688 118.03 50.1219 117.59 48.5263C117.149 46.9307 116.562 45.5025 115.828 44.2417C115.094 42.9807 114.133 41.9514 112.945 41.1536C111.757 40.3558 110.229 39.9054 108.361 39.8025H108.401C108.241 39.7767 108.081 39.7639 107.921 39.7639C107.76 39.7639 107.6 39.751 107.44 39.7254C107.173 39.6995 106.913 39.6674 106.659 39.6288C106.406 39.5903 106.105 39.5452 105.758 39.4937C105.598 39.4937 105.445 39.558 105.298 39.6867C105.151 39.8154 105.078 39.9441 105.078 40.0728C105.078 40.4073 105.251 40.6132 105.598 40.6903H105.558C105.879 40.7675 106.186 40.8319 106.479 40.8834V63.8893Z" fill="#463A3A"/>
<path d="M134.173 52.2409C134.217 51.5742 134.244 51.0142 134.211 50.5582C134.178 50.1069 134.121 49.7755 134.033 49.5698C134.009 49.5121 134.005 49.4701 134.005 49.4327C134.005 49.395 134.043 49.3698 134.127 49.3487C134.221 49.3249 134.36 49.3149 134.575 49.3149C134.79 49.3149 135.089 49.3149 135.463 49.3149C135.584 49.3149 135.687 49.3253 135.78 49.3487C135.855 49.3673 135.912 49.4095 135.93 49.4633C135.959 49.5506 135.981 49.6869 135.967 49.8918C135.953 50.0931 135.944 50.4065 135.911 50.8325C135.879 51.255 135.841 51.8128 135.79 52.504C135.738 53.1932 135.645 54.0576 135.575 55.1051C135.542 55.5891 135.547 55.9675 135.565 56.2333C135.584 56.4965 135.621 56.7013 135.677 56.8381C135.742 56.9924 135.808 57.0764 135.902 57.0986C135.986 57.1184 136.079 57.1294 136.163 57.1294C136.425 57.1294 136.695 56.9943 136.995 56.7346C137.302 56.468 137.527 56.0837 137.742 55.6062C137.77 55.5427 137.817 55.5193 137.873 55.5193C138.013 55.5193 138.116 55.5951 138.172 55.7293C138.19 55.7742 138.19 55.7995 138.19 55.8162C138.162 55.9675 138.068 56.2108 137.919 56.5358C137.769 56.8631 137.558 57.1989 137.303 57.5186C137.035 57.8541 136.734 58.1279 136.387 58.3724C136.043 58.6151 135.687 58.7392 135.294 58.7392C134.939 58.7392 134.669 58.6635 134.482 58.5096C134.295 58.3557 134.151 58.149 134.052 57.9021C133.918 57.5666 133.847 57.1853 133.856 56.7458C133.865 56.3062 133.865 55.8638 133.912 55.4186C133.893 55.4186 133.884 55.4103 133.875 55.3962C133.828 55.3683 133.8 55.3542 133.781 55.3542C133.772 55.3542 133.753 55.3627 133.744 55.3739C133.725 55.5026 133.644 55.67 133.501 55.8779C133.355 56.0899 133.152 56.3088 132.94 56.5553C132.731 56.7988 132.498 57.0415 132.221 57.2974C131.956 57.5426 131.679 57.7762 131.39 57.9777C131.1 58.1792 130.819 58.3399 130.54 58.4676C130.268 58.5919 130.007 58.6553 129.783 58.6553C129.437 58.6553 129.178 58.5764 128.989 58.4256C128.795 58.2713 128.65 58.0712 128.55 57.8208C128.416 57.4861 128.335 57.0986 128.344 56.6589C128.354 56.2222 128.373 55.7798 128.41 55.3346C128.485 54.4414 128.55 53.6883 128.597 53.0668C128.643 52.448 128.685 51.933 128.709 51.5213C128.732 51.11 128.737 50.7849 128.727 50.5497C128.718 50.3118 128.682 50.1376 128.643 50.0289C128.598 49.9025 128.504 49.8233 128.419 49.7966C128.326 49.7672 128.204 49.7546 128.064 49.7546C127.999 49.7546 127.924 49.726 127.868 49.6818C127.803 49.6309 127.745 49.5734 127.719 49.5053C127.67 49.3801 127.709 49.3149 127.849 49.3149C127.887 49.3149 127.971 49.3197 128.074 49.3261C128.195 49.3338 128.316 49.3373 128.438 49.3373C128.559 49.3373 128.69 49.3416 128.83 49.3487C128.97 49.3555 129.092 49.3598 129.204 49.3598C129.409 49.3598 129.587 49.3567 129.727 49.3487C129.876 49.34 130.007 49.3373 130.138 49.3373C130.194 49.3373 130.269 49.341 130.306 49.3487C130.353 49.358 130.398 49.394 130.428 49.4633C130.463 49.5479 130.484 49.6929 130.484 49.9029C130.484 50.1102 130.47 50.4233 130.437 50.841C130.404 51.2606 130.343 51.8068 130.287 52.4817C130.231 53.1564 130.165 54.0046 130.091 55.0211C130.062 55.4269 130.054 55.7631 130.082 56.0345C130.11 56.3033 130.154 56.5257 130.222 56.6926C130.359 57.027 130.568 57.1937 130.857 57.1937C131.184 57.1937 131.537 57.0458 131.904 56.7626C132.275 56.4748 132.622 56.1042 132.94 55.6371C133.257 55.1717 133.537 54.6435 133.762 54.0495C133.986 53.4591 134.133 52.8537 134.173 52.2409Z" fill="#463A3A"/>
</g>
<defs>
<clipPath id="clip0_395_329">
<rect width="150" height="150" rx="30" fill="white"/>
</clipPath>
</defs>
</svg>
