<svg width="150" height="150" viewBox="0 0 150 150" fill="none" xmlns="http://www.w3.org/2000/svg">
<path fill-rule="evenodd" clip-rule="evenodd" d="M102.401 51.9796C96.9261 57.9554 96.5321 58.1061 93.0744 55.5493C88.4926 52.1614 87.4787 52.0989 84.1588 54.9973C82.4828 56.4612 80.8563 57.6597 80.5459 57.6606C80.2364 57.6625 78.5732 58.8674 76.8503 60.3396C70.4841 65.781 69.8725 65.8315 65.2641 61.3094C61.2829 57.4017 61.1553 57.3493 61.1553 59.6398C61.1553 62.0569 64.264 66.8426 65.8353 66.8426C66.3147 66.8426 66.0309 65.8094 65.2035 64.5466C62.4199 60.2982 64.4954 62.202 70.6063 69.5031C73.9455 73.4917 77.9102 77.6326 79.4163 78.7062L82.1567 80.6569L80.7305 77.7989C79.6156 75.5626 79.5274 74.4514 80.3255 72.6991C81.2613 70.6456 81.198 70.5382 79.577 71.406C76.6198 72.9884 74.1365 72.4778 72.478 69.9458C70.97 67.6453 70.9792 67.48 72.6864 66.2153C73.6682 65.4871 75.5398 64.6725 76.8448 64.4052C78.2711 64.1132 80.7985 61.9375 83.1807 58.9519C85.361 56.2206 87.6367 53.9853 88.2392 53.9853C88.8407 53.9853 90.4479 56.0324 91.8098 58.5349C93.6447 61.9072 94.6724 62.9367 95.78 62.5115C97.4211 61.8815 96.9105 63.2233 94.3941 66.1538C93.6346 67.0373 93.3876 67.7481 93.8449 67.7316C94.9103 67.6949 99.7272 63.474 99.7272 62.5776C99.7272 62.2039 101.441 59.0134 103.536 55.4868L107.336 49.537L111.044 53.4876C112.416 55.0264 121.862 66.9499 121.862 66.9499C121.862 66.9499 113.368 55.0356 113.003 54.4904C111.206 51.8042 107.279 47.5566 106.727 47.5566C106.576 47.5566 104.629 49.5468 102.401 51.9796ZM53.8082 58.6204C48.185 63.5713 47.1674 63.7431 42.4975 60.5306L38.4989 57.7791L35.718 60.5609C33.2733 63.0056 32.7112 63.2003 31.0673 62.1745C29.3858 61.1239 28.6777 61.505 23.9839 65.9913C21.1158 68.7326 17.4579 71.4473 15.8544 72.0232C14.2518 72.5999 10.2541 74.3559 6.97093 75.9254L1.00146 78.7797L5.9203 78.7806C10.0539 78.7815 11.1229 78.4206 12.618 76.5196C13.597 75.2761 15.7993 73.9949 17.5121 73.6735C19.2249 73.3521 21.3436 72.2978 22.2188 71.3298C23.0949 70.3618 25.3339 69.3268 27.1945 69.0293C29.8367 68.6068 31.3566 67.5038 34.1393 63.9919C36.0973 61.5188 37.9974 59.4956 38.3602 59.4956C39.3465 59.4956 43.7061 65.4586 43.7061 66.8068C43.7061 67.5442 44.4224 67.7876 45.6475 67.4671L47.5899 66.9592L45.6475 69.0265C42.6288 72.2399 43.3507 72.5834 47.3125 69.8181C49.2953 68.4341 51.1413 66.4752 51.414 65.465C52.2663 62.3049 57.5708 56.5779 59.1018 57.1656C60.2571 57.6092 60.2966 57.4604 59.336 56.3024C58.6977 55.5328 58.1228 54.9211 58.0585 54.9432C57.9933 54.9643 56.0812 56.6192 53.8082 58.6204ZM109.85 55.9396C109.829 57.4209 112.284 60.1017 113.003 59.3835C113.209 59.1769 112.588 57.9821 111.624 56.7267C110.317 55.0258 109.865 54.8247 109.85 55.9396ZM136.462 65.5844C136.462 66.0785 137.96 67.9061 139.791 69.6473C141.802 71.5576 142.745 72.0838 142.172 70.9753C140.966 68.6426 136.462 64.3896 136.462 65.5844ZM103.132 67.1383C102.859 67.8491 100.707 70.011 98.3496 71.9424C94.5824 75.0299 93.8404 75.3146 92.2139 74.2989C89.6764 72.7147 89.2035 73.5238 91.4691 75.5745C93.2792 77.212 93.4225 77.1835 97.2154 74.4376C101.365 71.4336 104.989 67.2063 104.142 66.3586C103.859 66.0767 103.404 66.4266 103.132 67.1383ZM130.886 68.3001C130.103 69.2432 128.64 69.6363 126.74 69.4141L121.862 66.9499L127.129 73.1298L130.455 77.1891L131.16 73.7975C131.547 71.9323 132.294 69.6042 132.818 68.6242C133.966 66.4789 132.589 66.2475 130.886 68.3001ZM46.4897 72.7827C44.2433 75.0722 42.8354 76.9448 43.3617 76.9448C45.012 76.9448 51.3479 70.9413 50.9521 69.7529C50.728 69.0816 48.9105 70.3159 46.4897 72.7827ZM143.053 74.1336C143.661 76.076 148.014 79.0708 149.454 78.5372C150.333 78.2112 150.161 77.8714 148.86 77.3736C147.85 76.987 146.037 75.8032 144.831 74.7416C143.434 73.5119 142.789 73.2915 143.053 74.1336ZM19.7309 77.2037C18.4148 78.3242 16.5551 79.7568 15.5982 80.3887C13.9681 81.4641 13.9956 81.522 16.0445 81.3071C17.2467 81.1803 19.2625 79.7348 20.5244 78.0927C23.206 74.6047 23.0242 74.3999 19.7309 77.2037Z" fill="url(#paint0_linear_395_285)"/>
<path d="M11.1763 99.059C10.5415 99.059 9.96966 98.9459 9.4609 98.7198C8.95648 98.4893 8.55643 98.1502 8.26074 97.7023C7.9694 97.2544 7.82373 96.7021 7.82373 96.0455C7.82373 95.4802 7.92809 95.0128 8.13681 94.6432C8.34554 94.2736 8.63036 93.9779 8.99127 93.7561C9.35219 93.5343 9.75876 93.3669 10.211 93.2539C10.6676 93.1365 11.1394 93.0517 11.6264 92.9995C12.2134 92.9386 12.6896 92.8843 13.0548 92.8364C13.4201 92.7843 13.6854 92.706 13.8506 92.6016C14.0202 92.4929 14.105 92.3255 14.105 92.0994V92.0602C14.105 91.5689 13.9593 91.1884 13.668 90.9188C13.3766 90.6492 12.957 90.5144 12.4091 90.5144C11.8308 90.5144 11.372 90.6405 11.0328 90.8927C10.698 91.1449 10.4719 91.4428 10.3545 91.7863L8.14986 91.4732C8.32379 90.8644 8.61079 90.3557 9.01084 89.9469C9.41089 89.5338 9.90008 89.2251 10.4784 89.0207C11.0568 88.812 11.696 88.7076 12.3961 88.7076C12.8787 88.7076 13.3592 88.7642 13.8375 88.8772C14.3159 88.9903 14.7529 89.1773 15.1486 89.4382C15.5443 89.6947 15.8617 90.0448 16.1009 90.4883C16.3444 90.9318 16.4661 91.4863 16.4661 92.1516V98.8568H14.1963V97.4805H14.118C13.9745 97.7588 13.7723 98.0197 13.5114 98.2632C13.2549 98.5024 12.9309 98.6959 12.5396 98.8437C12.1525 98.9872 11.6981 99.059 11.1763 99.059ZM11.7895 97.324C12.2634 97.324 12.6744 97.2305 13.0222 97.0435C13.3701 96.8522 13.6375 96.6 13.8245 96.2869C14.0158 95.9738 14.1115 95.6324 14.1115 95.2628V94.0822C14.0376 94.1431 13.9115 94.1997 13.7332 94.2518C13.5592 94.304 13.3636 94.3497 13.1462 94.3888C12.9287 94.4279 12.7135 94.4627 12.5004 94.4932C12.2873 94.5236 12.1025 94.5497 11.946 94.5714C11.5938 94.6193 11.2785 94.6975 11.0002 94.8062C10.7219 94.915 10.5023 95.0672 10.3414 95.2628C10.1806 95.4542 10.1001 95.702 10.1001 96.0064C10.1001 96.4412 10.2588 96.7695 10.5763 96.9913C10.8937 97.2131 11.2981 97.324 11.7895 97.324Z" fill="#006792"/>
<path d="M22.6459 95.7129L22.6394 92.8625H23.0177L26.6181 88.8381H29.3772L24.9484 93.7692H24.4592L22.6459 95.7129ZM20.4934 98.8568V85.4985H22.8546V98.8568H20.4934ZM26.7812 98.8568L23.5199 94.2975L25.1114 92.6342L29.6055 98.8568H26.7812Z" fill="#006792"/>
<path d="M41.6604 88.8381L38.0926 98.8568H35.4836L31.9157 88.8381H34.4334L36.7359 96.2804H36.8403L39.1492 88.8381H41.6604Z" fill="#006792"/>
<path d="M47.5434 99.059C46.9085 99.059 46.3367 98.9459 45.828 98.7198C45.3236 98.4893 44.9235 98.1502 44.6278 97.7023C44.3365 97.2544 44.1908 96.7021 44.1908 96.0455C44.1908 95.4802 44.2952 95.0128 44.5039 94.6432C44.7126 94.2736 44.9974 93.9779 45.3583 93.7561C45.7193 93.5343 46.1258 93.3669 46.5781 93.2539C47.0346 93.1365 47.5064 93.0517 47.9935 92.9995C48.5805 92.9386 49.0566 92.8843 49.4219 92.8364C49.7872 92.7843 50.0524 92.706 50.2177 92.6016C50.3873 92.4929 50.472 92.3255 50.472 92.0994V92.0602C50.472 91.5689 50.3264 91.1884 50.035 90.9188C49.7437 90.6492 49.3241 90.5144 48.7762 90.5144C48.1978 90.5144 47.7391 90.6405 47.3999 90.8927C47.0651 91.1449 46.839 91.4428 46.7216 91.7863L44.5169 91.4732C44.6909 90.8644 44.9779 90.3557 45.3779 89.9469C45.778 89.5338 46.2672 89.2251 46.8455 89.0207C47.4238 88.812 48.063 88.7076 48.7631 88.7076C49.2458 88.7076 49.7263 88.7642 50.2046 88.8772C50.6829 88.9903 51.12 89.1773 51.5157 89.4382C51.9114 89.6947 52.2288 90.0448 52.468 90.4883C52.7115 90.9318 52.8332 91.4863 52.8332 92.1516V98.8568H50.5634V97.4805H50.4851C50.3416 97.7588 50.1394 98.0197 49.8785 98.2632C49.6219 98.5024 49.298 98.6959 48.9066 98.8437C48.5196 98.9872 48.0652 99.059 47.5434 99.059ZM48.1565 97.324C48.6305 97.324 49.0414 97.2305 49.3893 97.0435C49.7372 96.8522 50.0046 96.6 50.1916 96.2869C50.3829 95.9738 50.4786 95.6324 50.4786 95.2628V94.0822C50.4046 94.1431 50.2785 94.1997 50.1003 94.2518C49.9263 94.304 49.7306 94.3497 49.5132 94.3888C49.2958 94.4279 49.0806 94.4627 48.8675 94.4932C48.6544 94.5236 48.4696 94.5497 48.3131 94.5714C47.9609 94.6193 47.6456 94.6975 47.3673 94.8062C47.089 94.915 46.8694 95.0672 46.7085 95.2628C46.5476 95.4542 46.4672 95.702 46.4672 96.0064C46.4672 96.4412 46.6259 96.7695 46.9433 96.9913C47.2608 97.2131 47.6652 97.324 48.1565 97.324Z" fill="#006792"/>
<path d="M62.933 92.3211V94.2649H56.9192V92.3211H62.933Z" fill="#006792"/>
<path d="M69.222 95.7129L69.2155 92.8625H69.5938L73.1943 88.8381H75.9533L71.5245 93.7692H71.0353L69.222 95.7129ZM67.0696 98.8568V85.4985H69.4308V98.8568H67.0696ZM73.3573 98.8568L70.0961 94.2975L71.6876 92.6342L76.1816 98.8568H73.3573Z" fill="#006792"/>
<path d="M82.063 99.059C81.4281 99.059 80.8563 98.9459 80.3475 98.7198C79.8431 98.4893 79.4431 98.1502 79.1474 97.7023C78.856 97.2544 78.7104 96.7021 78.7104 96.0455C78.7104 95.4802 78.8147 95.0128 79.0234 94.6432C79.2322 94.2736 79.517 93.9779 79.8779 93.7561C80.2388 93.5343 80.6454 93.3669 81.0976 93.2539C81.5542 93.1365 82.026 93.0517 82.513 92.9995C83.1001 92.9386 83.5762 92.8843 83.9415 92.8364C84.3067 92.7843 84.572 92.706 84.7372 92.6016C84.9068 92.4929 84.9916 92.3255 84.9916 92.0994V92.0602C84.9916 91.5689 84.8459 91.1884 84.5546 90.9188C84.2633 90.6492 83.8436 90.5144 83.2957 90.5144C82.7174 90.5144 82.2586 90.6405 81.9195 90.8927C81.5846 91.1449 81.3585 91.4428 81.2411 91.7863L79.0365 91.4732C79.2104 90.8644 79.4974 90.3557 79.8975 89.9469C80.2975 89.5338 80.7867 89.2251 81.3651 89.0207C81.9434 88.812 82.5826 88.7076 83.2827 88.7076C83.7654 88.7076 84.2459 88.7642 84.7242 88.8772C85.2025 88.9903 85.6395 89.1773 86.0352 89.4382C86.4309 89.6947 86.7484 90.0448 86.9875 90.4883C87.231 90.9318 87.3528 91.4863 87.3528 92.1516V98.8568H85.0829V97.4805H85.0046C84.8611 97.7588 84.659 98.0197 84.3981 98.2632C84.1415 98.5024 83.8175 98.6959 83.4262 98.8437C83.0392 98.9872 82.5848 99.059 82.063 99.059ZM82.6761 97.324C83.1501 97.324 83.561 97.2305 83.9089 97.0435C84.2567 96.8522 84.5241 96.6 84.7111 96.2869C84.9025 95.9738 84.9981 95.6324 84.9981 95.2628V94.0822C84.9242 94.1431 84.7981 94.1997 84.6198 94.2518C84.4459 94.304 84.2502 94.3497 84.0328 94.3888C83.8154 94.4279 83.6001 94.4627 83.3871 94.4932C83.174 94.5236 82.9892 94.5497 82.8326 94.5714C82.4804 94.6193 82.1652 94.6975 81.8869 94.8062C81.6086 94.915 81.389 95.0672 81.2281 95.2628C81.0672 95.4542 80.9867 95.702 80.9867 96.0064C80.9867 96.4412 81.1455 96.7695 81.4629 96.9913C81.7803 97.2131 82.1847 97.324 82.6761 97.324Z" fill="#006792"/>
<path d="M91.3801 98.8568V88.8381H93.6695V90.5079H93.7739C93.9565 89.9295 94.2696 89.4838 94.7131 89.1707C95.161 88.8533 95.6719 88.6946 96.2459 88.6946C96.3764 88.6946 96.522 88.7011 96.6829 88.7142C96.8482 88.7229 96.9851 88.7381 97.0938 88.7598V90.9318C96.9938 90.8971 96.8351 90.8666 96.6177 90.8405C96.4046 90.8101 96.1981 90.7949 95.9981 90.7949C95.5676 90.7949 95.1806 90.8884 94.837 91.0753C94.4979 91.258 94.2304 91.5123 94.0348 91.8385C93.8391 92.1646 93.7412 92.5407 93.7412 92.9669V98.8568H91.3801Z" fill="#006792"/>
<path d="M100.316 102.614V88.8381H102.638V90.4948H102.775C102.896 90.2513 103.068 89.9926 103.29 89.7186C103.512 89.4403 103.812 89.2034 104.19 89.0077C104.568 88.8077 105.051 88.7076 105.638 88.7076C106.412 88.7076 107.11 88.9055 107.732 89.3012C108.358 89.6926 108.854 90.2731 109.219 91.0427C109.589 91.808 109.773 92.7473 109.773 93.8605C109.773 94.9606 109.593 95.8955 109.232 96.6652C108.871 97.4348 108.38 98.0219 107.758 98.4263C107.136 98.8307 106.432 99.0329 105.645 99.0329C105.071 99.0329 104.594 98.9372 104.216 98.7459C103.838 98.5546 103.533 98.3241 103.303 98.0545C103.077 97.7805 102.901 97.5218 102.775 97.2783H102.677V102.614H100.316ZM102.631 93.8474C102.631 94.4953 102.722 95.0628 102.905 95.5498C103.092 96.0368 103.359 96.4173 103.707 96.6913C104.06 96.9609 104.486 97.0957 104.986 97.0957C105.508 97.0957 105.945 96.9565 106.297 96.6782C106.649 96.3956 106.914 96.0108 107.093 95.5237C107.275 95.0324 107.367 94.4736 107.367 93.8474C107.367 93.2256 107.277 92.6734 107.099 92.1907C106.921 91.708 106.656 91.3297 106.303 91.0558C105.951 90.7818 105.512 90.6448 104.986 90.6448C104.481 90.6448 104.053 90.7775 103.701 91.0427C103.349 91.308 103.081 91.6798 102.899 92.1581C102.72 92.6364 102.631 93.1995 102.631 93.8474Z" fill="#006792"/>
<path d="M116.331 99.059C115.697 99.059 115.125 98.9459 114.616 98.7198C114.112 98.4893 113.711 98.1502 113.416 97.7023C113.124 97.2544 112.979 96.7021 112.979 96.0455C112.979 95.4802 113.083 95.0128 113.292 94.6432C113.501 94.2736 113.785 93.9779 114.146 93.7561C114.507 93.5343 114.914 93.3669 115.366 93.2539C115.823 93.1365 116.294 93.0517 116.781 92.9995C117.368 92.9386 117.845 92.8843 118.21 92.8364C118.575 92.7843 118.84 92.706 119.006 92.6016C119.175 92.4929 119.26 92.3255 119.26 92.0994V92.0602C119.26 91.5689 119.114 91.1884 118.823 90.9188C118.532 90.6492 118.112 90.5144 117.564 90.5144C116.986 90.5144 116.527 90.6405 116.188 90.8927C115.853 91.1449 115.627 91.4428 115.51 91.7863L113.305 91.4732C113.479 90.8644 113.766 90.3557 114.166 89.9469C114.566 89.5338 115.055 89.2251 115.633 89.0207C116.212 88.812 116.851 88.7076 117.551 88.7076C118.034 88.7076 118.514 88.7642 118.993 88.8772C119.471 88.9903 119.908 89.1773 120.304 89.4382C120.699 89.6947 121.017 90.0448 121.256 90.4883C121.499 90.9318 121.621 91.4863 121.621 92.1516V98.8568H119.351V97.4805H119.273C119.13 97.7588 118.927 98.0197 118.666 98.2632C118.41 98.5024 118.086 98.6959 117.695 98.8437C117.308 98.9872 116.853 99.059 116.331 99.059ZM116.945 97.324C117.418 97.324 117.829 97.2305 118.177 97.0435C118.525 96.8522 118.793 96.6 118.98 96.2869C119.171 95.9738 119.267 95.6324 119.267 95.2628V94.0822C119.193 94.1431 119.067 94.1997 118.888 94.2518C118.714 94.304 118.519 94.3497 118.301 94.3888C118.084 94.4279 117.869 94.4627 117.655 94.4932C117.442 94.5236 117.258 94.5497 117.101 94.5714C116.749 94.6193 116.434 94.6975 116.155 94.8062C115.877 94.915 115.657 95.0672 115.497 95.2628C115.336 95.4542 115.255 95.702 115.255 96.0064C115.255 96.4412 115.414 96.7695 115.731 96.9913C116.049 97.2131 116.453 97.324 116.945 97.324Z" fill="#006792"/>
<path d="M130.651 88.8381V90.6644H124.892V88.8381H130.651ZM126.314 86.4378H128.675V95.8433C128.675 96.1608 128.723 96.4043 128.818 96.5739C128.918 96.7391 129.049 96.8522 129.21 96.913C129.371 96.9739 129.549 97.0044 129.745 97.0044C129.893 97.0044 130.027 96.9935 130.149 96.9717C130.275 96.95 130.371 96.9304 130.436 96.913L130.834 98.7589C130.708 98.8024 130.527 98.8502 130.293 98.9024C130.062 98.9546 129.779 98.985 129.445 98.9937C128.853 99.0111 128.321 98.922 127.847 98.7263C127.373 98.5263 126.997 98.2176 126.718 97.8001C126.444 97.3827 126.309 96.8609 126.314 96.2347V86.4378Z" fill="#006792"/>
<path d="M135.747 102.614C135.425 102.614 135.127 102.588 134.853 102.536C134.584 102.488 134.368 102.431 134.207 102.366L134.755 100.527C135.099 100.627 135.405 100.674 135.675 100.67C135.945 100.666 136.182 100.581 136.386 100.416C136.595 100.255 136.771 99.9852 136.914 99.6069L137.116 99.0655L133.483 88.8381H135.988L138.297 96.4043H138.401L140.717 88.8381H143.228L139.217 100.07C139.03 100.6 138.782 101.055 138.473 101.433C138.164 101.816 137.786 102.107 137.338 102.307C136.895 102.512 136.364 102.614 135.747 102.614Z" fill="#006792"/>
<defs>
<linearGradient id="paint0_linear_395_285" x1="75.5007" y1="47.5566" x2="75.5007" y2="81.4071" gradientUnits="userSpaceOnUse">
<stop stop-color="#1D7291"/>
<stop offset="1" stop-color="#024771"/>
</linearGradient>
</defs>
</svg>
