<svg width="150" height="150" viewBox="0 0 150 150" fill="none" xmlns="http://www.w3.org/2000/svg">
<path fill-rule="evenodd" clip-rule="evenodd" d="M66.9723 16.1891C66.6629 16.6861 65.7195 17.5922 64.4846 18.5787C63.9543 19.0024 62.9567 19.8926 62.2678 20.5572C61.0089 21.7716 60.9051 21.7942 61.7044 20.6803C62.068 20.1734 62.1042 20.0706 61.9317 20.0341C61.6883 19.9826 60.6057 21.1355 60.136 21.9463C59.9631 22.2447 59.4202 23.3496 58.9297 24.4015C57.906 26.5963 57.2432 27.592 56.2596 28.412C55.8777 28.7305 55.2339 29.3019 54.8291 29.6819C54.4244 30.0618 53.9497 30.4087 53.7745 30.4527C53.531 30.5138 53.4555 30.6079 53.4546 30.8512C53.454 31.0329 53.2706 31.3998 53.028 31.7052C52.4927 32.3788 51.8158 33.7402 51.5857 34.6059C51.4889 34.9706 51.4089 35.706 51.4081 36.2401C51.4062 37.4986 51.7554 38.2742 52.5213 38.7129C52.9635 38.9663 53.1829 39.0058 54.1187 39.0003C56.373 38.9871 58.2096 38.2431 63.1994 35.3215C64.0552 34.8204 64.1018 34.8079 64.6458 34.9312C64.9549 35.0014 65.5287 35.1774 65.9208 35.3227C67.7958 36.0167 69.6442 35.9331 72.308 35.0339C73.7462 34.5484 74.0541 34.4853 74.9883 34.4853C76.3813 34.4853 76.1906 34.2621 74.6491 34.0881C73.7019 33.9811 73.584 33.9454 73.9015 33.8619C74.1592 33.7941 74.3264 33.6469 74.4301 33.3967C74.627 32.9212 74.519 32.8293 74.1263 33.1384C73.839 33.3644 73.3987 33.4866 72.0991 33.7004C71.6711 33.7709 71.6406 33.7568 71.6772 33.5046C71.7106 33.2742 71.8913 33.1804 72.8617 32.8896C73.4915 32.7009 74.3475 32.5136 74.7639 32.4733C75.1804 32.433 75.5481 32.3565 75.5812 32.3031C75.6929 32.1222 74.3899 31.8328 73.4644 31.8328C72.321 31.8328 71.5868 32.0455 70.5307 32.6827C69.2842 33.4347 68.5425 33.6533 67.0158 33.7185L65.6899 33.7751L66.2323 33.2827C68.575 31.1554 74.3639 28.4166 76.103 28.6126C76.5323 28.6611 76.7278 28.6158 77.0716 28.3889C77.7005 27.9737 78.9259 27.69 79.6655 27.7885C80.0004 27.8331 80.4101 27.8595 80.5758 27.8471C81.5243 27.7761 83.8064 27.8399 84.7945 27.965C87.1593 28.2645 87.5083 28.4308 91.8484 31.3233C96.1598 34.1969 98.7177 35.7244 101.488 37.0803C105.133 38.8638 107.936 39.8176 111.272 40.4099C112.572 40.6407 113.233 40.6839 115.41 40.68C118.922 40.674 121.85 40.281 126.981 39.1273C128.274 38.8366 129.983 38.4811 130.778 38.3371C131.574 38.1932 132.408 37.9706 132.632 37.8426C133.612 37.2826 136.994 36.6574 139.049 36.6563C141.471 36.655 143.412 37.172 145.302 38.3224C146.737 39.1955 147.196 39.3909 147.38 39.2069C147.546 39.0414 147.638 39.1142 146.309 38.3611C142.138 35.9984 138.528 35.234 134.632 35.8891C133.279 36.1167 132.767 36.0602 132.767 35.6832C132.767 35.2952 133.286 34.8779 134.044 34.6576C134.602 34.4955 135.026 34.4688 136.136 34.5261C136.901 34.5655 137.691 34.631 137.89 34.6714L138.251 34.7449L137.95 34.4973C136.925 33.6555 134.445 33.4522 132.526 34.0526C130.29 34.7523 128.066 35.0928 128.066 34.7355C128.066 34.6848 128.717 34.4659 129.512 34.2492C130.308 34.0324 130.959 33.807 130.959 33.7482C130.959 33.5984 130.871 33.6088 129.673 33.8993C129.087 34.0412 128.202 34.1614 127.704 34.1666C126.882 34.1752 126.699 34.1291 125.677 33.6549C124.62 33.1644 124.502 33.1364 123.688 33.181C122.898 33.2243 122.639 33.3162 120.714 34.2331C117.812 35.6153 115.662 36.5588 115.522 36.512C115.457 36.4904 116.735 35.7436 118.362 34.8525C119.989 33.9612 121.303 33.1803 121.282 33.1169C121.261 33.0536 120.977 32.9341 120.651 32.8513C119.878 32.6549 119.387 32.1291 119.389 31.4994C119.391 31.2517 119.431 30.9872 119.48 30.9113C119.656 30.6364 121.629 29.5281 122.276 29.3399C122.904 29.1572 123.025 29.1612 124.549 29.4147C125.434 29.5619 126.185 29.6553 126.218 29.6219C126.31 29.5307 125.746 29.1916 125.087 28.9411C123.635 28.3894 120.327 28.3009 119.086 28.7807C118.569 28.9808 117.288 29.6822 115.487 30.7521L115.022 31.0284L115.207 30.6709C115.308 30.4743 115.724 30.0799 116.131 29.7944C116.538 29.5089 116.847 29.2515 116.818 29.2225C116.74 29.1445 111.805 30.2598 111.312 30.4668C110.974 30.6086 110.758 30.6185 110.227 30.5164C109.863 30.4462 109.051 30.3314 108.424 30.2612C107.796 30.1911 107.258 30.1086 107.227 30.0777C107.065 29.9161 108.159 29.4239 108.683 29.4222C108.795 29.4218 108.916 29.374 108.952 29.316C109.06 29.141 107.816 29.0722 106.852 29.1999C106.345 29.2672 104.678 29.734 103.055 30.2628C98.869 31.6274 97.803 31.8773 96.185 31.8737C94.1944 31.8693 93.4868 31.5514 89.9019 29.0507C88.4463 28.0354 88.1708 27.792 88.0035 27.3739C87.896 27.1048 87.8079 26.8377 87.8079 26.7802C87.8079 26.5681 88.5811 26.5727 89.5963 26.7909C91.0092 27.0945 93.6394 27.1939 95.6919 27.0212C96.6139 26.9436 97.4275 26.8418 97.4999 26.7949C97.5722 26.7481 96.71 26.601 95.5838 26.4682C93.7958 26.2571 93.5309 26.1982 93.4934 26.0034C93.4533 25.7944 93.5222 25.7855 94.5767 25.8636C95.7988 25.9542 97.6644 25.7913 98.8121 25.4937C99.6473 25.2773 100.892 24.7456 100.794 24.6474C100.756 24.6094 99.928 24.8051 98.9541 25.0819C97.7321 25.4294 97.1446 25.5467 97.0585 25.4605C96.9723 25.3743 97.0417 25.3116 97.2824 25.258C98.7711 24.9274 99.6171 24.5668 100.886 23.7221C101.766 23.136 105.332 19.5335 105.181 19.3825C105.123 19.324 104.892 19.2938 104.669 19.3151C104.31 19.3497 104.186 19.4697 103.575 20.3789C102.375 22.1629 100.821 23.3469 98.6089 24.1612C97.5365 24.5562 97.7513 24.5456 92.4484 24.4645C90.5542 24.4354 90.2551 24.462 88.4904 24.8174C85.7829 25.3623 84.0743 25.3252 83.4571 24.7078C83.3267 24.5773 83.0455 24.4401 82.8321 24.4028C82.6186 24.3656 81.3322 23.9657 79.9732 23.5141C76.3837 22.3216 75.9607 22.2466 72.8617 22.2532C70.5103 22.2582 70.1268 22.2892 68.7225 22.5877C66.2797 23.1069 64.0284 23.9127 61.5647 25.1496C60.3564 25.7562 59.3405 26.225 59.307 26.1915C59.2734 26.158 59.3582 25.9309 59.4952 25.6869C59.7961 25.1516 61.1856 24.1871 62.5377 23.5753C64.5676 22.6568 66.0765 21.3338 67.1876 19.4984C67.3403 19.2463 67.4361 19.0108 67.4006 18.9752C67.365 18.9397 66.8546 19.3201 66.2664 19.8204C65.0815 20.8286 64.2913 21.2564 63.8931 21.1054C63.7354 21.0456 63.6557 20.9254 63.6804 20.7847C63.7199 20.5596 63.8324 20.4301 65.7754 18.3737C66.7409 17.3518 67.1613 16.744 67.3701 16.0686C67.4948 15.6648 67.2531 15.7381 66.9723 16.1891ZM51.3328 19.5048C51.3675 19.6208 51.4589 19.9735 51.536 20.2885C51.7065 20.9841 51.9514 21.0308 52.0543 20.3871C52.1606 19.722 51.9757 19.2938 51.5823 19.2938C51.3411 19.2938 51.2842 19.3419 51.3328 19.5048ZM52.9798 19.7083C52.787 19.9406 52.9739 20.9214 53.2108 20.9214C53.4176 20.9214 53.6195 20.2055 53.5221 19.8175C53.4422 19.4987 53.1949 19.4491 52.9798 19.7083ZM50.0229 20.1304C49.9416 20.3864 50.4876 21.5846 50.6855 21.5846C50.9349 21.5846 50.6999 20.1783 50.421 20.0014C50.1809 19.8491 50.1043 19.8738 50.0229 20.1304ZM54.4441 20.1619C54.3646 20.2414 54.2995 20.567 54.2995 20.8853C54.2995 21.6418 54.5662 21.66 54.8478 20.9228C55.015 20.4847 55.0256 20.3468 54.9033 20.1994C54.7208 19.9793 54.6337 19.9722 54.4441 20.1619ZM48.8755 21.2417C48.8755 21.5627 49.4274 22.308 49.6651 22.308C49.8873 22.308 49.8851 22.1675 49.6543 21.6151C49.3835 20.9669 48.8755 20.7232 48.8755 21.2417ZM55.5198 21.2652C55.3254 21.4994 55.1971 22.5491 55.3629 22.5491C55.558 22.5491 56.1433 21.4902 56.0634 21.2817C55.9776 21.0579 55.6987 21.0495 55.5198 21.2652ZM48.0317 22.4787C48.0317 22.8146 48.9403 23.6176 49.1187 23.4391C49.2883 23.2695 48.5569 22.1874 48.2726 22.1874C48.0983 22.1874 48.0317 22.2678 48.0317 22.4787ZM56.2435 22.5907C56.0164 22.8645 55.9311 23.514 56.1226 23.5116C56.3459 23.5087 56.8277 22.8022 56.748 22.5944C56.6669 22.3831 56.4174 22.3813 56.2435 22.5907ZM101.91 23.7486C101.431 24.0032 100.746 24.6877 101.095 24.5621C101.21 24.5208 101.78 24.3409 102.361 24.1623C103.573 23.7898 103.591 23.78 103.353 23.6295C103.067 23.4487 102.365 23.5067 101.91 23.7486ZM47.7907 24.0402C47.7907 24.274 48.7364 24.8728 48.9664 24.7846C49.1208 24.7252 49.0805 24.6333 48.7512 24.2935C48.3428 23.8721 47.7907 23.7265 47.7907 24.0402ZM44.9602 24.3511C44.8729 24.6263 45.4427 25.5633 45.6974 25.5633C45.8953 25.5633 45.8975 25.5192 45.7314 24.9002C45.5453 24.2066 45.1054 23.8934 44.9602 24.3511ZM43.4547 24.5686C43.4582 24.7975 44.2234 25.6839 44.4173 25.6839C44.5967 25.6839 44.563 25.5042 44.2712 24.9034C44.0709 24.4911 43.9383 24.3576 43.7288 24.3576C43.5438 24.3576 43.4526 24.4279 43.4547 24.5686ZM46.4329 24.87C46.3607 25.0787 46.848 26.0585 46.9989 26.0082C47.1156 25.9693 47.1073 25.0019 46.9888 24.81C46.8977 24.6625 46.4893 24.7067 46.4329 24.87ZM42.0394 25.0446C41.9478 25.2837 42.9011 26.1653 43.2519 26.1658C43.4417 26.1662 43.4154 26.0848 43.0711 25.6066C42.6124 24.9699 42.1622 24.7246 42.0394 25.0446ZM47.7843 25.7609C47.7178 25.9359 47.6922 26.1078 47.7274 26.143C47.7626 26.1782 48.0668 26.078 48.4034 25.9203C48.8963 25.6893 48.9725 25.6166 48.7949 25.5467C48.2955 25.3499 47.9094 25.4318 47.7843 25.7609ZM40.7997 26.1077C40.7997 26.2081 40.9761 26.3991 41.1915 26.5321C42.1302 27.1118 42.7042 26.9175 41.8686 26.303C41.3179 25.8978 40.7997 25.8031 40.7997 26.1077ZM99.5123 26.2302C99.1545 26.3967 98.8931 26.5641 98.9312 26.6022C99.0641 26.7352 101.067 26.5052 101.067 26.3569C101.067 25.8591 100.422 25.8066 99.5123 26.2302ZM40.3162 27.6102C40.3863 27.7413 40.5383 27.8993 40.654 27.9612C40.9928 28.1425 41.764 28.2564 41.764 28.125C41.764 27.9186 40.8593 27.3718 40.5178 27.3718C40.2272 27.3718 40.2036 27.3998 40.3162 27.6102ZM40.1971 29.1231C40.1971 29.3484 40.674 29.5421 41.2294 29.5421C41.7601 29.5421 41.7558 29.3992 41.2175 29.1424C40.6786 28.8853 40.1971 28.8763 40.1971 29.1231ZM40.5285 30.3485C40.4125 30.3789 40.3176 30.4812 40.3176 30.5757C40.3176 30.7055 40.4948 30.7477 41.0408 30.7477C41.4386 30.7477 41.764 30.7178 41.764 30.6813C41.764 30.6024 40.9697 30.2593 40.8337 30.2795C40.7819 30.2872 40.6446 30.3183 40.5285 30.3485ZM41.4024 31.8931C41.4024 32.0886 41.7236 32.1243 42.3516 31.9986C42.9534 31.8782 42.7875 31.7123 42.0653 31.7123C41.5564 31.7123 41.4024 31.7542 41.4024 31.8931ZM42.8757 32.6234C42.5472 32.8535 42.5382 33.0466 42.8384 33.417C43.123 33.7682 43.1661 33.7277 43.2731 33.0084C43.3646 32.3935 43.2971 32.3281 42.8757 32.6234ZM41.094 33.332C40.8729 33.4954 40.8919 33.5191 41.4382 33.7622C42.1956 34.0992 42.3561 34.0257 41.9089 33.5468C41.5002 33.1092 41.423 33.0888 41.094 33.332ZM39.7953 33.9629C39.5105 34.2478 40.0839 34.6059 40.8248 34.6059C41.2654 34.6059 41.1707 34.4359 40.5553 34.122C40.0511 33.8647 39.9208 33.8373 39.7953 33.9629ZM38.7912 35.1565C38.6855 35.4322 38.8546 35.5357 39.5643 35.6298C40.404 35.7411 40.4305 35.4688 39.6084 35.1768C38.8907 34.9218 38.8813 34.9216 38.7912 35.1565ZM38.148 36.5655C38.148 36.9396 38.4779 37.0663 39.0017 36.8935C39.6066 36.6938 39.7188 36.535 39.255 36.535C39.0604 36.535 38.7319 36.5011 38.5247 36.4596C38.2365 36.402 38.148 36.4268 38.148 36.5655ZM134.914 37.544C133.785 37.7351 133.724 37.9057 134.816 37.8176C135.313 37.7775 136.723 37.7098 137.95 37.6675C139.176 37.6251 140.261 37.5445 140.361 37.4883C140.63 37.3361 135.854 37.3849 134.914 37.544ZM38.9917 37.9274C38.8923 37.9485 38.6076 37.9989 38.3589 38.0396C37.7246 38.143 37.7431 38.4641 38.3834 38.4641C38.9456 38.4641 39.4739 38.2503 39.4739 38.0227C39.4739 37.8666 39.3732 37.8468 38.9917 37.9274ZM143.012 37.9401C143.012 38.039 143.927 38.8358 144.266 39.0326C144.617 39.2356 145.022 39.2228 145.105 39.0062C145.156 38.8735 144.918 38.6956 144.217 38.343C143.278 37.8709 143.012 37.782 143.012 37.9401ZM39.2826 39.3012C38.7918 39.4185 38.6301 39.5265 38.6301 39.7372C38.6301 39.9823 39.0398 39.9527 39.5992 39.6674C40.3623 39.2779 40.1939 39.0832 39.2826 39.3012ZM66.3624 39.2938C66.1357 39.3348 65.9268 39.4392 65.8982 39.5258C65.8588 39.6451 66.0022 39.6742 66.4902 39.6464C66.9899 39.6177 67.1431 39.5622 67.1742 39.3985C67.217 39.1736 67.1061 39.1593 66.3624 39.2938ZM93.3909 39.3816C93.2702 39.6963 93.509 40.4462 93.7441 40.4912C93.919 40.5246 93.9551 40.4413 93.9551 40.0041C93.9551 39.3212 93.5749 38.9019 93.3909 39.3816ZM94.9193 39.9712C94.9193 40.5539 94.9485 40.6343 95.1604 40.6343C95.3723 40.6343 95.4015 40.5539 95.4015 39.9712C95.4015 39.3885 95.3723 39.3081 95.1604 39.3081C94.9485 39.3081 94.9193 39.3885 94.9193 39.9712ZM91.9645 39.9138C91.825 40.1395 92.2804 41.1166 92.5251 41.1166C92.7984 41.1166 92.8005 41.0674 92.5576 40.3543C92.3757 39.8205 92.1335 39.6405 91.9645 39.9138ZM96.3935 40.0616C96.3261 40.1446 96.2514 40.4701 96.2271 40.785C96.191 41.2563 96.2187 41.3577 96.3837 41.3577C96.6462 41.3577 96.9881 40.3984 96.8278 40.1118C96.6937 39.8723 96.5597 39.8568 96.3935 40.0616ZM40.0838 40.4838C39.5428 40.7587 39.4671 40.996 39.9203 40.996C40.1294 40.996 40.4316 40.8548 40.6838 40.6393C41.094 40.2885 41.0959 40.2824 40.7997 40.2777C40.634 40.2751 40.3118 40.3679 40.0838 40.4838ZM67.0761 40.6946C67.4717 40.9208 67.9732 40.9208 68.1609 40.6946C68.2916 40.537 68.2122 40.5143 67.5428 40.518C66.8158 40.5221 66.7909 40.5315 67.0761 40.6946ZM90.833 40.8656C90.6942 40.9536 90.7219 41.0713 90.9887 41.5269C91.1674 41.8317 91.3925 42.0811 91.4892 42.0811C91.7201 42.0811 91.7114 41.9682 91.4282 41.3074C91.1827 40.7346 91.1169 40.6858 90.833 40.8656ZM41.3 41.2379C40.7383 41.6449 40.6662 41.84 41.0774 41.84C41.3283 41.84 42.1256 41.1707 42.1256 40.9601C42.1256 40.7756 41.7755 40.8934 41.3 41.2379ZM97.3444 41.4111C97.1749 42.0841 97.1748 42.0811 97.3815 42.0811C97.6273 42.0811 98.0532 41.4973 98.0532 41.1606C98.0532 40.9406 97.9877 40.8754 97.7662 40.8754C97.5272 40.8754 97.4566 40.965 97.3444 41.4111ZM102.474 41.4481C102.35 41.6562 102.256 42.8045 102.362 42.8045C102.669 42.8045 103.167 41.8733 103.039 41.5397C102.967 41.3522 102.569 41.2877 102.474 41.4481ZM103.973 41.7903C103.833 41.9682 103.718 42.1832 103.718 42.2684C103.718 42.3535 103.685 42.5089 103.645 42.6138C103.503 42.9854 104.015 42.8102 104.301 42.3893C104.765 41.7086 104.465 41.1634 103.973 41.7903ZM101.022 41.8701C100.982 42.0193 100.949 42.3449 100.948 42.5935C100.946 42.9599 100.99 43.0457 101.178 43.0457C101.364 43.0457 101.431 42.9194 101.518 42.4127C101.578 42.0645 101.605 41.7391 101.58 41.6893C101.478 41.4879 101.091 41.6134 101.022 41.8701ZM67.1439 41.8123C66.9901 41.9662 67.1045 42.0681 67.6333 42.2484C68.2667 42.4643 68.622 42.3736 68.373 42.0597C68.2233 41.871 67.2759 41.6802 67.1439 41.8123ZM89.9275 42.1852C89.892 42.2424 90.0418 42.4961 90.2604 42.749C90.5441 43.0771 90.7173 43.1856 90.8666 43.1284C91.0508 43.0576 91.0296 42.9909 90.6872 42.5646C90.3105 42.0958 90.0599 41.9707 89.9275 42.1852ZM105.436 42.2318C105.294 42.4091 104.924 43.1246 104.924 43.2205C104.924 43.257 104.994 43.2868 105.081 43.2868C105.306 43.2868 106.008 42.5298 106.008 42.2863C106.008 42.0457 105.614 42.0082 105.436 42.2318ZM67.0761 43.2786C67.0761 43.4568 67.7508 43.8896 68.0288 43.8896C68.4323 43.8896 68.3252 43.534 67.8634 43.3409C67.3837 43.1404 67.0761 43.1161 67.0761 43.2786ZM106.199 43.6702C105.569 44.4058 105.68 44.6084 106.453 44.1368C106.944 43.8374 107.186 43.4199 106.955 43.2733C106.7 43.1119 106.657 43.1344 106.199 43.6702ZM86.8436 44.1284C86.8436 44.1934 86.9309 44.4646 87.0375 44.7312C87.1734 45.0709 87.3036 45.2159 87.4724 45.2159C87.7264 45.2159 87.7216 45.0358 87.4483 44.3169C87.3356 44.0206 86.8436 43.8671 86.8436 44.1284ZM43.4515 44.3385C43.352 44.3759 43.1428 44.4539 42.9863 44.5118C42.7517 44.5987 42.7279 44.6483 42.8505 44.796C43.0696 45.06 43.2814 45.0164 43.7208 44.6166C44.0555 44.312 44.0784 44.2593 43.8733 44.2644C43.7408 44.2677 43.5509 44.301 43.4515 44.3385ZM85.4004 44.4623C85.4022 44.5783 85.5616 44.8632 85.7546 45.0953C86.0308 45.4276 86.137 45.4861 86.2536 45.3706C86.4956 45.1308 86.0452 44.2514 85.6802 44.2514C85.4898 44.2514 85.3983 44.3204 85.4004 44.4623ZM66.4734 44.4689C66.4734 44.6786 67.2841 45.3365 67.5426 45.3365C67.9687 45.3365 67.8136 44.9645 67.2559 44.6485C66.7579 44.3664 66.4734 44.301 66.4734 44.4689ZM83.8841 44.8646C83.7811 45.0313 84.5355 45.8187 84.7981 45.8187C85.18 45.8187 85.1566 45.6485 84.7122 45.1933C84.253 44.7229 84.0271 44.6332 83.8841 44.8646ZM106.682 45.1046C106.39 45.4522 106.287 45.6982 106.434 45.6982C106.668 45.6982 107.696 45.0579 107.696 44.9124C107.696 44.5717 107.023 44.6993 106.682 45.1046ZM65.3886 45.3085C65.3886 45.3594 65.5261 45.6035 65.6943 45.851C65.9083 46.1661 66.089 46.301 66.297 46.301C66.7486 46.301 66.6609 45.9893 66.0937 45.5783C65.5912 45.2142 65.3886 45.1367 65.3886 45.3085ZM43.4518 45.7888C42.9391 46.0452 42.8128 46.4216 43.2393 46.4216C43.4976 46.4216 44.1747 45.8713 44.1747 45.6614C44.1747 45.5188 43.8922 45.5686 43.4518 45.7888ZM64.1837 45.9092C64.1845 46.27 64.6438 46.9038 64.9047 46.9038C65.2466 46.9038 65.207 46.6692 64.7771 46.1476C64.3733 45.6577 64.183 45.5811 64.1837 45.9092ZM62.8574 46.052C62.8574 46.3742 63.0839 46.9404 63.2567 47.0502C63.687 47.324 63.7767 46.849 63.4016 46.2821C63.0669 45.7761 62.8574 45.6876 62.8574 46.052ZM82.6249 46.0306C82.6249 46.1578 83.6807 46.7833 83.8955 46.7833C84.1591 46.7833 84.1094 46.6238 83.7332 46.2633C83.416 45.9592 82.6249 45.7932 82.6249 46.0306ZM106.882 46.4342C106.107 46.8865 106.064 47.0755 106.762 46.9632C107.215 46.8901 107.816 46.6199 107.816 46.489C107.816 46.3573 107.66 46.0602 107.593 46.0625C107.55 46.064 107.23 46.2312 106.882 46.4342ZM44.0218 47.089C43.5309 47.4228 43.4065 47.8684 43.8043 47.8684C44.0171 47.8684 44.7773 47.0934 44.7773 46.8764C44.7773 46.6983 44.469 46.7851 44.0218 47.089ZM82.1446 47.356C82.1492 47.5766 82.3707 47.7539 82.856 47.9252C83.4895 48.1487 83.5897 48.1533 83.5878 47.9588C83.5856 47.7413 82.802 47.2656 82.4458 47.2656C82.2791 47.2656 82.1436 47.3062 82.1446 47.356ZM106.28 47.8721C105.86 48.0408 105.959 48.2301 106.466 48.2301C106.895 48.2301 107.214 48.0656 107.214 47.8443C107.214 47.7168 106.622 47.7344 106.28 47.8721ZM44.9215 48.266C44.4619 48.7403 44.4068 49.1094 44.8042 49.0524C45.0384 49.0186 45.6128 48.2479 45.6192 47.9588C45.6237 47.7457 45.2783 47.8978 44.9215 48.266ZM59.603 48.1121C59.603 48.3859 60.2498 49.2034 60.4159 49.1398C60.51 49.1036 60.6097 49.0741 60.6374 49.0741C60.828 49.0741 60.6174 48.6755 60.2617 48.3632C59.8246 47.9793 59.603 47.8948 59.603 48.1121ZM49.0406 48.8335C48.9726 49.1655 48.9438 49.4639 48.9766 49.4967C49.1251 49.6453 49.4783 49.539 49.4795 49.3453C49.4802 49.2294 49.5144 48.931 49.5555 48.6822C49.6204 48.2899 49.5994 48.2301 49.3972 48.2301C49.2143 48.2301 49.1375 48.3601 49.0406 48.8335ZM46.4387 48.5617C45.8818 49.2003 45.8778 49.9313 46.4332 49.5784C46.6632 49.4324 46.9625 48.3507 46.773 48.3507C46.6903 48.3507 46.5399 48.4457 46.4387 48.5617ZM47.7007 48.9836C47.4378 49.6691 47.4498 49.7975 47.7771 49.7975C47.9345 49.7975 48.0273 49.6372 48.1316 49.1855C48.3103 48.4108 48.3086 48.3507 48.1082 48.3507C48.0177 48.3507 47.8342 48.6354 47.7007 48.9836ZM82.1583 48.8745C81.9515 49.1239 82.242 49.3098 82.9737 49.3965C83.9592 49.5132 83.7051 49.1539 82.541 48.7843C82.3957 48.7382 82.2413 48.7746 82.1583 48.8745ZM52.7539 49.4236C52.4201 50.0175 52.5285 50.444 52.9457 50.179C53.093 50.0855 53.3352 49.4176 53.3352 49.1051C53.3352 48.7916 53.0084 48.9707 52.7539 49.4236ZM105.668 49.0439C105.69 49.0937 105.787 49.3379 105.883 49.5865C106.065 50.06 106.293 50.1715 106.417 49.8479C106.569 49.4534 106.488 49.1876 106.181 49.0711C105.812 48.9306 105.612 48.92 105.668 49.0439ZM107.343 49.5236C106.933 50.0207 106.907 50.1041 107.115 50.2331C107.28 50.335 108.212 49.3479 108.109 49.1808C107.975 48.9642 107.704 49.0858 107.343 49.5236ZM58.9472 49.4659C59.1095 49.9923 59.3777 50.4151 59.5197 50.3684C59.7807 50.2825 59.7535 49.7847 59.4714 49.4842C59.117 49.1069 58.8334 49.097 58.9472 49.4659ZM108.67 49.7629C108.46 50.0176 108.347 50.2558 108.407 50.3157C108.601 50.5103 109.745 49.7583 109.745 49.4358C109.745 49.3695 109.586 49.3152 109.392 49.3152C109.132 49.3152 108.943 49.4324 108.67 49.7629ZM53.8109 50.3702C53.7442 50.5526 53.6674 50.7656 53.6402 50.8436C53.613 50.9217 53.6687 51.0504 53.7642 51.1296C54.039 51.3577 54.2995 51.0543 54.2995 50.5062C54.2995 49.9417 53.9981 49.8578 53.8109 50.3702ZM57.95 50.7676C58.0404 51.225 58.1182 51.3668 58.2641 51.3391C58.5706 51.2807 58.5717 50.7743 58.266 50.4488C57.8716 50.0288 57.8152 50.0859 57.95 50.7676ZM82.4676 50.2931C81.958 50.5896 82.9901 50.9382 83.6396 50.6888C83.965 50.5639 83.852 50.4344 83.2947 50.2941C82.6641 50.1352 82.7388 50.1353 82.4676 50.2931ZM109.956 50.4142C109.774 50.5503 109.624 50.7384 109.624 50.8323C109.624 51.0462 109.632 51.0458 110.255 50.8005C110.745 50.6073 110.944 50.4492 110.949 50.2496C110.952 50.0636 110.275 50.1759 109.956 50.4142ZM32.6034 50.5307C30.4876 50.7046 27.6405 51.1797 23.2487 52.0916C18.399 53.0986 18.3325 53.1149 17.0546 53.6038C15.3847 54.2427 14.0698 54.44 11.5101 54.4354C9.58212 54.432 9.14481 54.3947 8.28023 54.1601C7.06947 53.8317 6.1633 53.4404 5.19011 52.826C4.09133 52.1325 3.432 51.8222 3.22541 51.9015C2.88526 52.0321 3.37416 52.389 5.10092 53.2708C8.34195 54.9258 10.4523 55.5034 13.2578 55.5029C14.3851 55.5028 15.2454 55.4363 15.8493 55.3027C16.8973 55.0708 17.1641 55.0583 17.593 55.2215C17.8979 55.3375 17.9011 55.3501 17.719 55.7027C17.6161 55.9017 17.3024 56.1843 17.0219 56.3306C16.3318 56.6907 14.4584 56.7756 13.2805 56.5001C12.1803 56.2429 12.0047 56.2492 12.3676 56.5328C13.2166 57.1959 14.6227 57.5889 15.7262 57.4716C16.0923 57.4327 17.4222 57.1774 18.6818 56.9044C19.9414 56.6314 21.2493 56.3787 21.5882 56.3429C22.3114 56.2666 22.5577 56.4679 21.9674 56.653C21.7514 56.7207 20.9237 56.9793 20.1282 57.2277C18.3273 57.79 18.5773 57.8971 20.5042 57.3887C21.504 57.1249 22.2217 57.0092 22.8821 57.0054C23.7436 57.0003 23.9037 57.0395 24.6799 57.4451C26.3549 58.3203 27.0021 58.2539 29.8312 56.9169C32.9444 55.4456 35.1347 54.5199 35.1347 54.6753C35.1347 54.6963 33.8052 55.4369 32.1804 56.3211C30.5555 57.2052 29.2416 57.9751 29.2606 58.032C29.2795 58.0889 29.5785 58.2315 29.9249 58.3488C30.7039 58.6126 31.001 58.8729 31.1537 59.426C31.2449 59.7566 31.2313 59.9176 31.0944 60.1267C30.8351 60.5225 29.5471 61.3619 28.7624 61.6464C27.7993 61.9956 26.318 61.9882 25.1447 61.6283C23.9506 61.262 23.7897 61.4594 24.8746 61.9597C26.0909 62.5204 27.4147 62.7391 29.1682 62.6688C31.3723 62.5805 32.5573 62.1283 34.8626 60.4962C36.7857 59.1345 39.0256 58.1233 40.4984 57.9517C41.0759 57.8845 41.0602 57.8959 40.1236 58.2263C38.7209 58.721 36.8916 59.6926 35.4015 60.7343C34.6912 61.2309 34.0876 61.659 34.0599 61.6855C33.8777 61.8604 34.4002 61.7891 36.5271 61.3481C38.6692 60.9041 39.1222 60.8486 40.6792 60.8396C41.6405 60.834 42.6304 60.8726 42.8789 60.9253C43.7198 61.1037 43.3505 61.4594 42.0941 61.681C41.428 61.7986 41.4406 61.9408 42.1255 62.0351C43.3141 62.1986 44.3548 61.9638 48.2728 60.648C51.7995 59.4635 52.6951 59.2756 54.4678 59.348C56.7665 59.442 58.2621 60.1179 60.9708 62.2869C63.3727 64.2103 63.3398 64.8816 60.8686 64.3713C60.272 64.248 59.1058 64.113 58.2771 64.0712C56.6229 63.9878 53.3872 64.1957 52.874 64.4184C52.599 64.5378 52.7725 64.5689 54.0584 64.6305C55.714 64.7098 56.9513 64.9437 56.9513 65.1775C56.9513 65.2906 56.4992 65.3274 55.1131 65.3269C52.6387 65.326 50.8105 65.7223 49.9603 66.4437C49.7118 66.6547 49.7011 66.6852 49.9 66.6178C50.0326 66.573 50.6101 66.378 51.1835 66.1846C51.7911 65.9796 52.4696 65.8353 52.8107 65.8386C53.3802 65.8439 53.3604 65.8558 52.0611 66.2907C50.1158 66.9417 49.551 67.3264 47.4744 69.4139C45.7701 71.1274 45.2349 71.8614 45.6903 71.8614C46.1373 71.8614 46.4855 71.5558 47.1133 70.6121C48.4414 68.6154 50.1818 67.4589 52.889 66.7741C53.7391 66.5591 54.0344 66.5388 55.0217 66.628C55.6521 66.685 57.0899 66.7269 58.2169 66.7211C60.0016 66.712 60.5122 66.6618 62.1748 66.3322C65.2601 65.7203 65.8469 65.7785 68.4995 66.9601C71.4103 68.2566 73.8145 68.8278 76.7925 68.9307C80.9839 69.0752 84.4639 68.2499 88.918 66.0551C90.1079 65.4688 91.135 64.989 91.2002 64.989C91.2654 64.989 91.1933 65.215 91.0398 65.4912C90.7057 66.0929 89.8451 66.6764 87.6873 67.7643C86.3293 68.449 86.0736 68.632 85.0959 69.6199C84.1657 70.5598 83.1544 71.982 83.4164 71.982C83.4623 71.982 83.6965 71.8042 83.9369 71.5869C84.1773 71.3696 84.7916 70.9315 85.3021 70.6133C86.3164 69.9809 86.7556 69.9173 86.823 70.3929C86.8537 70.6104 86.5828 70.9586 85.6033 71.9603C84.405 73.1856 82.9865 74.9586 82.9865 75.2309C82.9865 75.526 83.3622 75.321 83.6931 74.8455C84.1328 74.2137 84.8526 73.5272 85.8793 72.7607C87.5206 71.5355 88.6712 70.4103 89.3918 69.3258C89.5005 69.162 89.6206 69.0577 89.6585 69.0939C89.6964 69.1302 89.4603 69.5617 89.1337 70.0529C88.8072 70.5441 88.5625 70.9685 88.5901 70.9961C88.6177 71.0237 88.819 70.9418 89.0377 70.8142C89.706 70.4239 90.5229 69.2724 91.1914 67.7783C92.6725 64.4677 93.2721 63.5374 94.5935 62.5004C95.0711 62.1256 95.7437 61.5467 96.0884 61.2138C96.6292 60.6915 96.7412 60.6306 96.9071 60.7683C97.1679 60.9849 97.3981 60.7631 97.237 60.4505C97.0903 60.166 97.1515 59.9917 97.6333 59.3223C98.6352 57.9306 99.1438 56.453 99.153 54.9072C99.1624 53.3284 98.5667 52.4782 97.2615 52.2071C95.3851 51.8175 92.3355 52.8811 88.1118 55.3983C87.3839 55.8321 86.6178 56.219 86.4092 56.2581C86.1492 56.3069 85.6842 56.2106 84.9307 55.9519C83.5882 55.4907 82.2738 55.3271 81.0356 55.4668C79.911 55.5937 79.4701 55.7051 77.6752 56.316C76.6098 56.6786 76.0843 56.7927 75.4453 56.7999C74.5832 56.8097 74.6661 56.9205 75.6601 57.0867C76.0814 57.1571 76.1039 57.1829 76.0368 57.5185C75.9709 57.8482 75.9921 57.8754 76.312 57.8741C76.5025 57.8734 76.9568 57.7926 77.3214 57.6947C77.6861 57.5968 78.2487 57.516 78.5716 57.5153C79.076 57.5141 79.1381 57.5389 79.0112 57.6919C78.6409 58.1383 77.5918 58.4938 76.2191 58.6384L74.8505 58.7823L75.4176 59.0605C76.6853 59.6821 77.9717 59.4916 80.2187 58.3496C80.855 58.0262 81.7245 57.6844 82.151 57.5899C83.1134 57.3767 84.7625 57.2438 84.8421 57.3729C84.9171 57.4941 82.6019 59.2468 81.4798 59.9183C79.0014 61.4018 75.4868 62.6799 72.3193 63.2498C70.8399 63.5159 67.8362 63.6106 66.6012 63.43C63.7191 63.0085 63.2429 62.7725 55.7459 58.0536C48.6396 53.5805 45.309 52.0177 40.7395 51.0121C38.5415 50.5285 35.1044 50.3251 32.6034 50.5307ZM55.1432 51.1237C55.1432 51.6787 55.1843 51.8471 55.3198 51.8471C55.6245 51.8471 55.7428 51.4537 55.6034 50.9042C55.4048 50.1217 55.1432 50.2464 55.1432 51.1237ZM56.5897 51.0536C56.5897 51.7415 56.6823 51.9677 56.9641 51.9677C57.2323 51.9677 57.2358 51.9336 57.0511 51.1329C56.8707 50.3514 56.5897 50.303 56.5897 51.0536ZM110.92 51.4912C110.136 51.9095 110.465 52.1178 111.47 51.8388C111.8 51.7471 111.918 51.6541 111.891 51.5079C111.835 51.218 111.445 51.2114 110.92 51.4912ZM111.402 52.8477C111.22 52.9198 111.071 53.0226 111.071 53.0761C111.071 53.2484 112.357 53.186 112.506 53.0066C112.764 52.6954 112.048 52.5925 111.402 52.8477ZM111.321 54.2437C111.16 54.2886 111.006 54.3917 110.979 54.4729C110.944 54.579 111.152 54.6202 111.724 54.6202C112.517 54.6202 112.644 54.5542 112.373 54.2826C112.217 54.1273 111.793 54.1116 111.321 54.2437ZM110.348 55.5568C110.348 55.8736 111.467 56.2813 111.782 56.0789C112.092 55.8793 111.833 55.5849 111.346 55.583C111.095 55.5822 110.768 55.5487 110.619 55.5088C110.47 55.4688 110.348 55.4903 110.348 55.5568ZM109.383 56.6477C109.383 56.7966 110.286 57.2727 110.568 57.2727C110.861 57.2727 110.97 57.1379 110.844 56.9332C110.676 56.6621 109.383 56.4094 109.383 56.6477ZM108.178 57.2433C108.178 57.4374 109.008 58.0165 109.226 57.9743C109.54 57.9133 109.544 57.6662 109.234 57.463C108.871 57.2248 108.178 57.0807 108.178 57.2433ZM107.29 57.6645C107.163 58.138 107.204 58.7198 107.364 58.7157C107.582 58.7101 107.937 58.4168 107.937 58.2425C107.937 58.0559 107.552 57.3933 107.443 57.3933C107.399 57.3933 107.33 57.5154 107.29 57.6645ZM108.66 60.4655C108.66 60.5636 108.796 60.6721 108.962 60.7066C109.127 60.7409 109.404 60.7986 109.576 60.8346C109.975 60.9183 110.288 60.6868 110.093 60.4517C109.895 60.213 108.66 60.2248 108.66 60.4655ZM108.781 61.7131C108.781 61.9072 109.945 62.3659 110.218 62.2792C110.797 62.0952 110.133 61.6178 109.293 61.615C109.011 61.614 108.781 61.6581 108.781 61.7131ZM108.781 63.0456C108.781 63.267 109.619 63.7834 109.978 63.7834C110.606 63.7834 110.404 63.3954 109.634 63.1237C109.042 62.9148 108.781 62.8909 108.781 63.0456ZM108.299 64.3626C108.299 64.5995 109.113 65.2302 109.419 65.2302C109.781 65.2302 109.8 65.1963 109.621 64.8618C109.407 64.462 108.299 64.0435 108.299 64.3626ZM102.307 64.9935C102.189 65.3075 102.125 65.3486 101.859 65.2819C101.356 65.1558 101.476 65.5293 101.989 65.6867C102.734 65.9154 103.041 65.6064 102.735 64.9344C102.553 64.5366 102.475 64.5473 102.307 64.9935ZM107.274 65.1099C107.14 65.326 107.949 66.3153 108.259 66.3153C108.714 66.3153 108.601 65.8992 108.015 65.4191C107.446 64.9529 107.386 64.9279 107.274 65.1099ZM103.423 65.7923C103.47 66.1131 103.531 66.4163 103.56 66.466C103.667 66.6528 104.067 66.547 104.141 66.312C104.237 66.0087 103.848 65.3072 103.552 65.2502C103.363 65.2137 103.348 65.2746 103.423 65.7923ZM105.888 65.5356C105.888 65.7446 106.512 66.78 106.676 66.8428C107.271 67.0714 107.248 66.5148 106.636 65.9178C106.233 65.5236 105.888 65.3476 105.888 65.5356ZM104.738 66.044C104.84 66.601 105.11 67.0387 105.352 67.0387C105.678 67.0387 105.678 66.691 105.353 66.1359C104.946 65.4417 104.619 65.3928 104.738 66.044ZM101.603 66.4462C101.495 66.62 102.259 67.4004 102.537 67.4004C102.926 67.4004 102.777 66.9656 102.274 66.6328C101.73 66.2721 101.713 66.2674 101.603 66.4462ZM93.9637 68.0511C93.6564 68.4978 93.6258 68.6034 93.7693 68.7225C94.0334 68.9419 94.4072 68.6736 94.548 68.1638C94.7714 67.3542 94.4815 67.2982 93.9637 68.0511ZM101.312 67.7923C101.319 68.0874 101.985 68.9081 102.247 68.9461C102.668 69.0071 102.577 68.5972 102.056 68.088C101.591 67.6341 101.304 67.5201 101.312 67.7923ZM94.6902 69.1555C94.3609 69.7137 94.3537 70.1735 94.6741 70.1735C94.9594 70.1735 95.1257 69.8904 95.2323 69.224C95.3357 68.5768 95.0527 68.5411 94.6902 69.1555ZM100.705 68.9498C100.705 69.2363 101.002 69.8971 101.214 70.083C101.526 70.3559 101.635 70.3491 101.73 70.0511C101.784 69.8821 101.692 69.662 101.427 69.3277C101.08 68.8903 100.705 68.6937 100.705 68.9498ZM95.7091 70.1547C95.5118 70.7487 95.5526 71.138 95.8121 71.138C96.103 71.138 96.2452 70.833 96.2452 70.2096C96.2452 69.3731 95.9776 69.3456 95.7091 70.1547ZM99.695 69.7881C99.6126 69.9215 99.8445 70.9123 100.003 71.1032C100.074 71.1887 100.203 71.2586 100.29 71.2586C100.582 71.2586 100.597 70.8079 100.324 70.2458C100.073 69.7297 99.8372 69.558 99.695 69.7881ZM97.0347 70.7176C96.9419 71.3372 97.0319 71.7409 97.2631 71.7409C97.5829 71.7409 97.7049 71.4163 97.6215 70.7873C97.5586 70.313 97.4919 70.1735 97.3282 70.1735C97.1693 70.1735 97.096 70.3098 97.0347 70.7176ZM98.5354 71.0212C98.5354 71.5592 98.5828 71.7667 98.7177 71.8184C98.9372 71.9027 99.2631 71.6595 99.1971 71.4608C99.1712 71.3828 99.0909 71.0883 99.0188 70.8065C98.9396 70.4972 98.8178 70.294 98.7115 70.294C98.5765 70.294 98.5354 70.4638 98.5354 71.0212Z" fill="#FF9236"/>
<path fill-rule="evenodd" clip-rule="evenodd" d="M28.0808 77.8081C27.0646 78.8246 27.729 80.4211 29.1682 80.4211C30.6073 80.4211 31.2717 78.8246 30.2555 77.8081C29.8957 77.4482 29.7855 77.4077 29.1682 77.4077C28.5508 77.4077 28.4406 77.4482 28.0808 77.8081ZM28.2871 82.2336C27.794 82.5343 27.4929 83.2022 27.598 83.7624C27.8311 85.0056 29.4955 85.476 30.3352 84.5359C31.2491 83.5128 30.5512 81.9901 29.1682 81.9901C28.8967 81.9901 28.5116 82.0965 28.2871 82.2336ZM49.464 88.8594C45.5065 89.2421 42.2074 90.733 39.6438 93.2974C38.6215 94.3199 37.4533 95.9274 36.8278 97.1723C34.3791 102.046 34.3791 108.472 36.8278 113.346C38.6017 116.876 41.7885 119.613 45.5861 120.867C49.5769 122.184 54.5145 122.001 57.8283 120.412C59.0475 119.827 60.6896 118.721 60.6845 118.488C60.6827 118.407 60.5248 118.152 60.3335 117.921L59.9856 117.501L59.4026 117.989C57.4375 119.631 55.6681 120.324 52.747 120.594C48.27 121.007 44.6992 119.436 42.105 115.91C40.8717 114.234 39.748 111.463 39.2767 108.936C38.9333 107.094 38.9654 103.016 39.337 101.28C40.4405 96.1257 42.9395 92.5508 46.6308 90.8468C50.3722 89.1197 55.7519 89.7713 59.1695 92.3655L60.0015 92.9972L60.3414 92.5872C60.5282 92.3618 60.6827 92.1144 60.6845 92.0374C60.6884 91.865 59.4942 91.1017 58.2116 90.457C55.6206 89.1545 52.4329 88.5723 49.464 88.8594ZM0.501287 89.5449C0.457051 89.5891 0.420898 96.6966 0.420898 105.339V121.053H2.34943H4.27797V113.699V106.344L6.59824 106.346L8.91852 106.348L13.961 113.701L19.0034 121.053H21.4122H23.8208L23.5452 120.662C21.5512 117.828 13.7264 106.974 13.607 106.876C13.5192 106.805 12.808 106.672 12.0266 106.582C10.642 106.422 10.6213 106.415 11.2087 106.317C15.0285 105.675 16.8438 104.893 18.5624 103.152C20.8583 100.825 21.4166 97.6943 20.0568 94.7722C18.7632 91.9928 15.6603 90.0836 11.6336 89.5898C10.5232 89.4535 0.632428 89.4136 0.501287 89.5449ZM27.2999 105.259V121.053H29.1682H31.0364V105.259V89.4645H29.1682H27.2999V105.259ZM63.9421 105.259V121.053H65.8104H67.6787V113.396V105.74L76.327 105.771L84.9753 105.801L85.0062 113.427L85.0373 121.053H86.9051H88.7729L88.7424 105.289L88.7118 89.5248L86.8737 89.4915L85.0355 89.4583V97.0572V104.656H76.3571H67.6787V97.0603V89.4645H65.8104H63.9421V105.259ZM92.7497 105.259V121.053H94.6179H96.4862V116.778V112.502L98.8455 109.604C100.143 108.01 101.247 106.706 101.299 106.706C101.35 106.706 102.007 107.614 102.759 108.725C108.534 117.262 112.257 122.141 115.817 125.837C119.967 130.146 123.696 132.587 127.214 133.297C128.82 133.622 130.918 133.5 132.424 132.995C134.412 132.329 136.342 131.018 138.085 129.151C138.865 128.315 138.918 128.227 138.721 128.083C138.603 127.996 138.435 127.926 138.347 127.926C138.26 127.926 137.717 128.332 137.141 128.828C135.885 129.911 134.311 130.743 133.008 131.016C128.981 131.859 124.074 129.214 118.67 123.289C115.828 120.173 113.292 116.882 108.723 110.383C107.278 108.327 105.903 106.407 105.668 106.115L105.24 105.585L103.625 105.658L102.01 105.732L102.421 105.224C102.647 104.945 105.533 101.38 108.835 97.3014C112.137 93.2232 114.921 89.7916 115.022 89.6755C115.195 89.4775 115.161 89.4645 114.473 89.4645H113.741L105.144 100.007L96.5465 110.55L96.5157 100.007L96.4849 89.4645H94.6173H92.7497V105.259ZM134.657 89.7901C134.35 90.3942 120.834 120.891 120.834 120.98C120.834 121.027 121.109 121.05 121.445 121.029L122.057 120.993L127.972 107.64C131.225 100.296 133.92 94.2889 133.96 94.2911C134 94.2931 136.701 100.302 139.962 107.644L145.892 120.993L147.947 121.026C149.078 121.044 150.002 121.017 150 120.966C149.998 120.914 146.862 113.819 143.03 105.199L136.063 89.5248L135.446 89.4886C134.875 89.4551 134.816 89.4777 134.657 89.7901ZM10.3046 90.7218C14.029 91.3963 16.5102 93.9788 16.7637 97.4446C16.9717 100.29 15.4077 102.998 12.8236 104.266C11.1213 105.101 10.745 105.166 7.32144 105.227L4.27797 105.28V97.9149V90.5496L6.83931 90.5539C8.45434 90.5565 9.73465 90.6185 10.3046 90.7218Z" fill="#278780"/>
</svg>
