<svg width="150" height="150" viewBox="0 0 150 150" fill="none" xmlns="http://www.w3.org/2000/svg">
<path d="M108.519 46.0332H118.719L111.239 73.574H101.379L108.519 46.0332Z" fill="#3E3B46"/>
<path d="M39.1576 76.2939H49.3579L42.2177 103.155H32.3574L39.1576 76.2939Z" fill="#3E3B46"/>
<path d="M129.259 57.2534H139.46L129.939 92.2744H120.079L129.259 57.2534Z" fill="#5A585C"/>
<path d="M15.6953 76.2935H25.8956L21.4755 92.2739H11.6152L15.6953 76.2935Z" fill="#5A585C"/>
<path d="M139.799 63.0337H150L143.539 86.4944H133.679L139.799 63.0337Z" fill="#5A585C"/>
<path d="M7.19635 63.0337H17.3966L10.9365 86.4944H1.07617L7.19635 63.0337Z" fill="#5A585C"/>
<path d="M118.721 52.1528H128.921L116.681 97.3741H106.82L118.721 52.1528Z" fill="#5A585C"/>
<path d="M27.2556 76.2939H37.4559L32.0157 97.7146H21.8154L27.2556 76.2939Z" fill="#5A585C"/>
<path d="M51.398 75.9536H110.56L106.14 92.6141H47.3179L51.398 75.9536Z" fill="#D81D16"/>
<path d="M47.7716 96.4521L47.5267 97.6766H49.6779L49.4991 98.537H47.3613L47.0237 100.225H45.9448L46.8715 95.5916H50.3728L50.1941 96.4521H47.7716Z" fill="white"/>
<path d="M51.1649 95.5916H52.2438L51.3172 100.225H50.2383L51.1649 95.5916Z" fill="white"/>
<path d="M54.184 96.4653H52.7013L52.88 95.5916H56.9175L56.7388 96.4653H55.2628L54.5083 100.225H53.436L54.184 96.4653Z" fill="white"/>
<path d="M61.81 95.5916L60.8833 100.225H60.003L58.2755 97.3258L57.693 100.225H56.634L57.5607 95.5916H58.4476L60.1751 98.4973L60.7509 95.5916H61.81Z" fill="white"/>
<path d="M63.8659 96.4521L63.6673 97.4582H65.8184L65.653 98.2921H63.4952L63.2834 99.3644H65.8118L65.6331 100.225H62.0457L62.9723 95.5916H66.4737L66.295 96.4521H63.8659Z" fill="white"/>
<path d="M68.1675 100.304C67.8012 100.304 67.4504 100.256 67.1151 100.159C66.7797 100.062 66.5105 99.938 66.3076 99.788L66.7444 98.9606C66.9562 99.1151 67.1945 99.2342 67.4592 99.318C67.724 99.4019 67.9954 99.4438 68.2734 99.4438C68.569 99.4438 68.8029 99.3953 68.975 99.2982C69.1471 99.2011 69.2331 99.0687 69.2331 98.9011C69.2331 98.7643 69.1647 98.6606 69.0279 98.59C68.8911 98.515 68.6727 98.4355 68.3727 98.3517C68.0726 98.2634 67.8277 98.1796 67.638 98.1002C67.4482 98.0163 67.2827 97.8928 67.1415 97.7295C67.0048 97.5663 66.9364 97.35 66.9364 97.0809C66.9364 96.7676 67.0224 96.4918 67.1945 96.2535C67.371 96.0152 67.6181 95.8321 67.9358 95.7042C68.2579 95.5762 68.6308 95.5122 69.0544 95.5122C69.3677 95.5122 69.6633 95.5475 69.9413 95.6181C70.2193 95.6843 70.4576 95.7814 70.6562 95.9093L70.2524 96.7301C70.0803 96.6109 69.8862 96.5227 69.6699 96.4653C69.4537 96.4035 69.2287 96.3727 68.9948 96.3727C68.6904 96.3727 68.4499 96.4256 68.2734 96.5315C68.0969 96.6374 68.0086 96.7742 68.0086 96.9419C68.0086 97.0434 68.0461 97.1294 68.1211 97.2C68.1961 97.2662 68.291 97.3214 68.4057 97.3655C68.5205 97.4052 68.6815 97.4537 68.8889 97.5111C69.1846 97.5905 69.4273 97.6722 69.617 97.756C69.8067 97.8354 69.9678 97.9546 70.1002 98.1134C70.237 98.2679 70.3054 98.473 70.3054 98.729C70.3054 99.0467 70.2171 99.3247 70.0406 99.5629C69.8641 99.7968 69.6148 99.9799 69.2927 100.112C68.9706 100.24 68.5955 100.304 68.1675 100.304Z" fill="white"/>
<path d="M72.4545 100.304C72.0882 100.304 71.7374 100.256 71.4021 100.159C71.0667 100.062 70.7975 99.938 70.5946 99.788L71.0314 98.9606C71.2432 99.1151 71.4815 99.2342 71.7462 99.318C72.011 99.4019 72.2824 99.4438 72.5604 99.4438C72.856 99.4438 73.0899 99.3953 73.262 99.2982C73.4341 99.2011 73.5201 99.0687 73.5201 98.9011C73.5201 98.7643 73.4517 98.6606 73.3149 98.59C73.1781 98.515 72.9597 98.4355 72.6597 98.3517C72.3596 98.2634 72.1147 98.1796 71.925 98.1002C71.7352 98.0163 71.5697 97.8928 71.4285 97.7295C71.2918 97.5663 71.2234 97.35 71.2234 97.0809C71.2234 96.7676 71.3094 96.4918 71.4815 96.2535C71.658 96.0152 71.9051 95.8321 72.2228 95.7042C72.5449 95.5762 72.9178 95.5122 73.3414 95.5122C73.6547 95.5122 73.9503 95.5475 74.2283 95.6181C74.5063 95.6843 74.7446 95.7814 74.9432 95.9093L74.5394 96.7301C74.3673 96.6109 74.1732 96.5227 73.9569 96.4653C73.7407 96.4035 73.5157 96.3727 73.2818 96.3727C72.9774 96.3727 72.7369 96.4256 72.5604 96.5315C72.3839 96.6374 72.2956 96.7742 72.2956 96.9419C72.2956 97.0434 72.3331 97.1294 72.4081 97.2C72.4831 97.2662 72.578 97.3214 72.6927 97.3655C72.8075 97.4052 72.9685 97.4537 73.1759 97.5111C73.4716 97.5905 73.7143 97.6722 73.904 97.756C74.0937 97.8354 74.2548 97.9546 74.3872 98.1134C74.524 98.2679 74.5924 98.473 74.5924 98.729C74.5924 99.0467 74.5041 99.3247 74.3276 99.5629C74.1511 99.7968 73.9018 99.9799 73.5797 100.112C73.2576 100.24 72.8825 100.304 72.4545 100.304Z" fill="white"/>
<path d="M79.5029 100.304C79.0396 100.304 78.6336 100.22 78.285 100.053C77.9408 99.8851 77.6761 99.649 77.4907 99.3445C77.3054 99.0401 77.2127 98.6893 77.2127 98.2921C77.2127 97.767 77.3319 97.2949 77.5702 96.8757C77.8129 96.4521 78.1526 96.1189 78.5895 95.8762C79.0263 95.6336 79.5271 95.5122 80.092 95.5122C80.5067 95.5122 80.873 95.5828 81.1907 95.724C81.5084 95.8652 81.7489 96.0682 81.9121 96.3329L81.1377 96.9684C80.8906 96.6065 80.5178 96.4256 80.0191 96.4256C79.6794 96.4256 79.3793 96.505 79.119 96.6639C78.8586 96.8227 78.6557 97.039 78.51 97.3125C78.3688 97.5861 78.2982 97.8906 78.2982 98.2259C78.2982 98.5834 78.4108 98.868 78.6358 99.0798C78.8653 99.2872 79.1852 99.3909 79.5955 99.3909C80.0853 99.3909 80.4957 99.2121 80.8266 98.8547L81.4621 99.5034C81.0031 100.037 80.3501 100.304 79.5029 100.304Z" fill="white"/>
<path d="M82.9142 95.5916H83.9931L83.2385 99.3511H85.5618L85.3831 100.225H81.9876L82.9142 95.5916Z" fill="white"/>
<path d="M88.1744 100.304C87.5919 100.304 87.1352 100.161 86.8043 99.874C86.4734 99.5828 86.3079 99.1857 86.3079 98.6826C86.3079 98.537 86.3255 98.3716 86.3608 98.1862L86.8771 95.5916H87.956L87.4397 98.1664C87.4132 98.312 87.4 98.4422 87.4 98.5569C87.4 98.8349 87.475 99.0445 87.625 99.1857C87.7795 99.3225 88.0023 99.3909 88.2935 99.3909C88.6201 99.3909 88.8804 99.2938 89.0746 99.0996C89.2687 98.9055 89.4099 98.5944 89.4982 98.1664L90.0144 95.5916H91.0668L90.5439 98.2326C90.2615 99.6137 89.4717 100.304 88.1744 100.304Z" fill="white"/>
<path d="M95.1645 97.8354C95.363 97.9149 95.5153 98.034 95.6212 98.1928C95.7315 98.3473 95.7866 98.537 95.7866 98.7621C95.7866 99.243 95.5969 99.6071 95.2174 99.8542C94.8379 100.101 94.3327 100.225 93.7017 100.225H91.2726L92.1992 95.5916H94.4364C94.935 95.5916 95.3189 95.6843 95.5881 95.8696C95.8572 96.0505 95.9918 96.3109 95.9918 96.6507C95.9918 96.9331 95.9168 97.1757 95.7668 97.3787C95.6212 97.5773 95.4204 97.7295 95.1645 97.8354ZM93.0994 96.3991L92.881 97.4912H93.9731C94.2555 97.4912 94.4739 97.4361 94.6283 97.3258C94.7872 97.211 94.8666 97.0478 94.8666 96.836C94.8666 96.5447 94.6394 96.3991 94.1849 96.3991H93.0994ZM93.7679 99.4173C94.068 99.4173 94.3018 99.36 94.4695 99.2452C94.6372 99.1305 94.721 98.965 94.721 98.7488C94.721 98.4311 94.4894 98.2723 94.026 98.2723H92.7287L92.5037 99.4173H93.7679Z" fill="white"/>
<path d="M26.7925 58.3753C28.7283 58.3753 30.2285 58.797 31.2932 59.6405C32.3579 60.4839 32.8902 61.6661 32.8902 63.1871C32.8902 64.4039 32.586 65.4755 31.9776 66.4019C31.3831 67.3283 30.5258 68.0473 29.4058 68.5589C28.2996 69.0705 27.0137 69.3263 25.548 69.3263H23.0384L22.3333 72.8937H17.4385L20.3422 58.3753H26.7925ZM25.7969 65.5516C26.4745 65.5516 26.9999 65.3856 27.3732 65.0538C27.7466 64.7081 27.9332 64.2311 27.9332 63.6227C27.9332 62.641 27.3248 62.1501 26.108 62.1501H24.4695L23.7851 65.5516H25.7969Z" fill="#D81D16"/>
<path d="M40.1943 73.2256C38.7148 73.2256 37.4151 72.9559 36.2951 72.4167C35.1889 71.8636 34.3316 71.0962 33.7232 70.1145C33.1287 69.1328 32.8314 68.0059 32.8314 66.7338C32.8314 65.0469 33.2186 63.5466 33.9929 62.2331C34.781 60.9057 35.8664 59.8755 37.2492 59.1427C38.6457 58.4099 40.222 58.0435 41.978 58.0435C43.4575 58.0435 44.7503 58.32 45.8565 58.8731C46.9765 59.4123 47.8338 60.1728 48.4283 61.1545C49.0367 62.1363 49.3409 63.2632 49.3409 64.5353C49.3409 66.2222 48.9468 67.7293 48.1587 69.0567C47.3844 70.3703 46.299 71.3935 44.9024 72.1263C43.5197 72.8592 41.9504 73.2256 40.1943 73.2256ZM40.6091 69.2641C41.3834 69.2641 42.0541 69.0636 42.621 68.6626C43.2017 68.2617 43.6442 67.7224 43.9484 67.0449C44.2526 66.3673 44.4047 65.6276 44.4047 64.8256C44.4047 63.9684 44.1489 63.2839 43.6373 62.7723C43.1395 62.2607 42.4481 62.0049 41.5632 62.0049C40.7889 62.0049 40.1114 62.2054 39.5306 62.6064C38.9637 63.0074 38.5282 63.5466 38.224 64.2242C37.9198 64.9017 37.7677 65.6414 37.7677 66.4434C37.7677 67.3007 38.0166 67.9851 38.5143 68.4967C39.0259 69.0083 39.7242 69.2641 40.6091 69.2641Z" fill="#D81D16"/>
<path d="M74.7744 58.3753L67.2248 72.8937H61.9774L61.1478 65.2404L57.1656 72.8937H51.9183L50.1761 58.3753H55.0086L55.9419 66.6508L60.256 58.3753H64.7567L65.5863 66.7752L69.9626 58.3753H74.7744Z" fill="#D81D16"/>
<path d="M79.0969 62.0671L78.765 63.7679H84.9042L84.1991 67.2938H78.0391L77.6658 69.2019H84.9457L84.1991 72.8937H72.128L75.0317 58.3753H86.8331L86.0864 62.0671H79.0969Z" fill="#D81D16"/>
<path d="M100.705 63.1456C100.705 64.4316 100.36 65.5585 99.6685 66.5264C98.9909 67.4804 98.03 68.1925 96.7855 68.6626L99.2122 72.8937H94.1307L92.0774 69.2434H90.8745L90.1485 72.8937H85.2537L88.1574 58.3753H94.67C96.5781 58.3753 98.0576 58.797 99.1085 59.6405C100.173 60.4701 100.705 61.6385 100.705 63.1456ZM95.7485 63.6227C95.7485 62.641 95.1401 62.1501 93.9233 62.1501H92.2848L91.6004 65.5516H93.6122C94.2897 65.5516 94.8152 65.3856 95.1885 65.0538C95.5618 64.7081 95.7485 64.2311 95.7485 63.6227Z" fill="#D81D16"/>
<path d="M62.9172 83.9406H67.169L65.9246 90.2043C65.1503 90.7574 64.2584 91.186 63.249 91.4902C62.2535 91.7806 61.1819 91.9258 60.0343 91.9258C58.5548 91.9258 57.2481 91.6561 56.1143 91.1169C54.9943 90.5638 54.1232 89.7964 53.501 88.8147C52.8926 87.833 52.5884 86.706 52.5884 85.434C52.5884 83.7471 52.9825 82.2468 53.7706 80.9333C54.5587 79.6197 55.658 78.5965 57.0683 77.8636C58.4787 77.117 60.0965 76.7437 61.9216 76.7437C64.9359 76.7437 67.1344 77.6908 68.5172 79.5851L65.012 82.3021C64.5557 81.7214 64.0648 81.3135 63.5394 81.0784C63.014 80.8295 62.3987 80.7051 61.6935 80.7051C60.85 80.7051 60.1103 80.8918 59.4743 81.2651C58.852 81.6384 58.3681 82.1639 58.0224 82.8414C57.6906 83.5051 57.5246 84.2656 57.5246 85.1229C57.5246 85.9801 57.8081 86.6715 58.375 87.1969C58.9419 87.7085 59.7231 87.9643 60.7187 87.9643C61.2165 87.9643 61.6935 87.8952 62.1498 87.7569L62.9172 83.9406Z" fill="white"/>
<path d="M77.5923 86.3258L76.5553 91.5939H71.6605L72.7183 86.2636L69.0887 77.0755H74.0042L75.9745 82.0947L80.0189 77.0755H84.9345L77.5923 86.3258Z" fill="white"/>
<path d="M103.144 77.0755L100.282 91.5939H95.8225L97.1084 84.9777L93.0225 90.2873H90.8655L88.6255 85.0606L87.3188 91.5939H82.8596L85.7633 77.0755H89.7455L92.898 84.791L98.975 77.0755H103.144Z" fill="white"/>
</svg>
