<svg width="150" height="150" viewBox="0 0 150 150" fill="none" xmlns="http://www.w3.org/2000/svg">
<g clip-path="url(#clip0_395_244)">
<path d="M75.8573 71.6637C75.8573 75.4113 69.9969 75.6206 67.878 75.6206C64.5184 75.6206 59.3452 75.0689 59.3452 71.1122H61.9603C61.9603 73.2426 66.2556 73.3759 67.8016 73.3759C68.6035 73.3759 73.2994 73.4139 73.2994 71.7398C73.2994 70.3891 70.9132 70.1988 68.2981 69.9136L66.5229 69.7233C63.2777 69.3809 59.5172 68.9244 59.5172 65.9567C59.5172 62.4181 65.0529 61.9237 67.5536 61.9237C70.1307 61.9237 75.4563 62.4755 75.4371 66.185H72.6314C72.6314 64.3397 68.6415 64.1684 67.0953 64.1684C66.4272 64.1684 62.0751 64.2065 62.0751 65.8616C62.0751 67.079 63.6977 67.1932 66.4654 67.5166L69.348 67.859C71.6385 68.1253 75.8573 68.4868 75.8573 71.6637Z" fill="url(#paint0_radial_395_244)"/>
<path d="M82.1757 70.0275L84.0466 66.299C84.9055 64.5678 85.1917 64.2064 86.1842 64.2064C87.1771 64.2064 87.5588 64.7011 88.3415 66.299L90.2044 70.0275H82.1757ZM92.9038 75.4302H95.7669L90.4983 65.3097C89.315 63.0267 88.4941 61.9235 86.2416 61.9235C83.9894 61.9235 83.1683 63.0267 81.9849 65.3097L76.7163 75.4302H79.4652L81.1068 72.1582H91.2689L92.9038 75.4302Z" fill="url(#paint1_radial_395_244)"/>
<path d="M56.6534 64.3967V62.1137H42.3369V75.4302H56.6534V73.1474H44.742V69.7991H55.2856V67.6687H44.742V64.3967H56.6534Z" fill="url(#paint2_radial_395_244)"/>
<path d="M75.865 83.0751C74.7326 81.6215 73.6387 80.1296 71.2013 80.1296C68.764 80.1296 67.6891 81.6597 66.5377 83.1133C65.482 84.452 65.0024 85.2938 63.7165 85.2938C62.4304 85.2938 61.9508 84.4331 60.8951 83.0751C59.7435 81.6407 58.669 80.1296 56.2314 80.1296C53.7941 80.1296 52.7194 81.6597 51.5678 83.1133C50.5123 84.452 50.0325 85.2938 48.7466 85.2938V87.5889C51.0881 87.5889 52.3354 85.9634 53.4103 84.5096C54.5233 83.0177 54.9842 82.4249 56.2314 82.4249C57.4791 82.4249 57.9395 83.0177 59.0528 84.5096C60.1275 85.9634 61.3747 87.5889 63.7165 87.5889C66.0578 87.5889 67.3051 85.9634 68.38 84.5096C69.493 83.0177 69.9539 82.4249 71.2013 82.4249C72.4488 82.4249 72.9094 83.0177 74.0225 84.5096C75.0972 85.9634 76.3447 87.5889 78.6862 87.5889V85.2938C77.4001 85.2938 76.9205 84.4331 75.865 83.0751Z" fill="url(#paint3_radial_395_244)"/>
<path d="M44.1208 83.1516C43.0843 81.7172 41.9137 80.1296 39.3419 80.1296C36.7703 80.1296 35.6187 81.7362 34.5632 83.1516C33.738 84.28 32.9703 85.2938 31.665 85.2938V87.5889C34.1984 87.5889 35.3501 85.9634 36.4247 84.5286C37.5186 83.0751 38.0562 82.4249 39.3419 82.4249C40.6086 82.4249 41.146 83.0751 42.2209 84.5286C43.3147 85.9634 44.4662 87.5889 47.0188 87.5889V85.2938C45.7137 85.2938 44.946 84.28 44.1208 83.1516Z" fill="url(#paint4_radial_395_244)"/>
<path d="M86.2343 86.349C85.9752 86.349 85.7571 86.1535 85.7571 85.7781C85.7571 85.4027 85.9752 85.2074 86.2343 85.2074C86.494 85.2074 86.7116 85.4027 86.7116 85.7781C86.7116 86.1535 86.494 86.349 86.2343 86.349ZM86.2343 84.8633C85.6886 84.8633 85.3145 85.227 85.3145 85.7781C85.3145 86.3293 85.6886 86.6929 86.2343 86.6929C86.7777 86.6929 87.155 86.3293 87.155 85.7781C87.155 85.227 86.7777 84.8633 86.2343 84.8633Z" fill="url(#paint5_radial_395_244)"/>
<path d="M88.0227 86.3102H87.8489V85.2444H88.0227C88.3313 85.2444 88.6104 85.3103 88.6104 85.7761C88.6104 86.2446 88.3313 86.3102 88.0227 86.3102ZM88.0158 84.8932H87.4307V86.6616H88.0158C88.5958 86.6616 89.0532 86.4519 89.0532 85.7761C89.0532 85.1029 88.5958 84.8932 88.0158 84.8932Z" fill="url(#paint6_radial_395_244)"/>
<path d="M90.1219 85.5952L89.8796 85.5465C89.7573 85.5197 89.674 85.4561 89.674 85.3684C89.674 85.2587 89.7939 85.1978 89.9555 85.1978C90.1344 85.1978 90.2639 85.2733 90.3054 85.4051H90.7193C90.658 85.0147 90.3274 84.8633 89.98 84.8633C89.6324 84.8633 89.2434 85.0316 89.2434 85.3926C89.2434 85.7097 89.5051 85.8465 89.7939 85.9076L90.0097 85.9513C90.2027 85.9927 90.3401 86.0487 90.3401 86.1636C90.3401 86.3097 90.1781 86.3564 90.0362 86.3564C89.8183 86.3564 89.6718 86.2709 89.6251 86.0856H89.209C89.2725 86.466 89.5712 86.6929 90.0267 86.6929C90.3959 86.6929 90.7706 86.4832 90.7706 86.1123C90.7706 85.7417 90.4084 85.6538 90.1219 85.5952Z" fill="url(#paint7_radial_395_244)"/>
<path d="M37.4113 86.349C37.152 86.349 36.9338 86.1535 36.9338 85.7781C36.9338 85.4027 37.152 85.2074 37.4113 85.2074C37.6708 85.2074 37.8885 85.4027 37.8885 85.7781C37.8885 86.1535 37.6708 86.349 37.4113 86.349ZM37.4113 84.8633C36.8655 84.8633 36.4912 85.227 36.4912 85.7781C36.4912 86.3293 36.8655 86.6929 37.4113 86.6929C37.9546 86.6929 38.3317 86.3293 38.3317 85.7781C38.3317 85.227 37.9546 84.8633 37.4113 84.8633Z" fill="url(#paint8_radial_395_244)"/>
<path d="M39.2008 86.3102H39.0272V85.2444H39.2008C39.5096 85.2444 39.7885 85.3103 39.7885 85.7761C39.7885 86.2446 39.5096 86.3102 39.2008 86.3102ZM39.1938 84.8933H38.6089V86.6616H39.1938C39.7736 86.6616 40.2313 86.4519 40.2313 85.7761C40.2313 85.1029 39.7736 84.8933 39.1938 84.8933Z" fill="url(#paint9_radial_395_244)"/>
<path d="M41.2974 85.5952L41.0551 85.5465C40.9328 85.5197 40.8497 85.4561 40.8497 85.3684C40.8497 85.2587 40.9694 85.1978 41.1311 85.1978C41.3099 85.1978 41.4393 85.2733 41.4809 85.4051H41.8948C41.8335 85.0147 41.5031 84.8633 41.1555 84.8633C40.8081 84.8633 40.4189 85.0316 40.4189 85.3926C40.4189 85.7097 40.6806 85.8465 40.9694 85.9076L41.185 85.9513C41.3782 85.9927 41.5156 86.0487 41.5156 86.1636C41.5156 86.3097 41.3538 86.3564 41.2119 86.3564C40.9938 86.3564 40.8473 86.2709 40.8006 86.0856H40.3843C40.4482 86.466 40.7465 86.6929 41.2022 86.6929C41.5714 86.6929 41.9461 86.4832 41.9461 86.1123C41.9461 85.7417 41.5839 85.6538 41.2974 85.5952Z" fill="url(#paint10_radial_395_244)"/>
<path d="M27.1168 83.0751C25.9845 81.6215 24.8906 80.1296 22.4533 80.1296C20.0157 80.1296 18.941 81.6597 17.7896 83.1133C16.734 84.452 16.2542 85.2938 14.9683 85.2938C13.6824 85.2938 13.2027 84.4331 12.147 83.0751C10.9955 81.6407 9.92073 80.1296 7.48348 80.1296C5.04608 80.1296 3.97127 81.6597 2.81976 83.1133C1.76423 84.452 1.28443 85.2938 -0.00146484 85.2938L-0.00146484 87.5889C2.33998 87.5889 3.58737 85.9634 4.66218 84.5096C5.77524 83.0177 6.23595 82.4249 7.48348 82.4249C8.73088 82.4249 9.19157 83.0177 10.3047 84.5096C11.3794 85.9634 12.6268 87.5889 14.9683 87.5889C17.3098 87.5889 18.5572 85.9634 19.632 84.5096C20.7452 83.0177 21.2056 82.4249 22.4533 82.4249C23.7008 82.4249 24.1612 83.0177 25.2745 84.5096C26.3493 85.9634 27.5966 87.5889 29.9381 87.5889V85.2938C28.6523 85.2938 28.1722 84.4331 27.1168 83.0751Z" fill="url(#paint11_radial_395_244)"/>
<path d="M92.8686 83.1516C91.8322 81.7172 90.6617 80.1296 88.0898 80.1296C85.518 80.1296 84.3667 81.7362 83.3113 83.1516C82.4858 84.28 81.7182 85.2938 80.4131 85.2938V87.5889C82.9464 87.5889 84.0977 85.9634 85.1728 84.5286C86.2666 83.0751 86.8041 82.4249 88.0898 82.4249C89.3566 82.4249 89.8941 83.0751 90.9687 84.5286C92.0626 85.9634 93.2141 87.5889 95.7668 87.5889V85.2938C94.4617 85.2938 93.6939 84.28 92.8686 83.1516Z" fill="url(#paint12_radial_395_244)"/>
<path d="M30.1601 73.1474H25.0823V64.3965H30.1601C34.7222 64.3965 37.0893 65.8994 37.0893 68.7719C37.0893 71.6446 34.7222 73.1474 30.1601 73.1474ZM30.3509 62.1137H22.6772L22.6772 75.4302H30.3509C36.2874 75.4302 39.647 72.9952 39.647 68.7719C39.647 64.5486 36.2874 62.1137 30.3509 62.1137Z" fill="url(#paint13_radial_395_244)"/>
<path d="M9.94369 75.6206C16.2621 75.6206 19.8888 73.1285 19.8888 68.7721C19.8888 64.4158 16.2621 61.9237 9.94369 61.9237C3.62542 61.9237 -0.00146484 64.4158 -0.00146484 68.7721C-0.00146484 73.1285 3.62542 75.6206 9.94369 75.6206ZM9.94369 73.3759C4.92345 73.3759 2.55649 71.7778 2.55649 68.7721C2.55649 65.7664 4.92345 64.1685 9.94369 64.1685C14.9642 64.1685 17.3311 65.7664 17.3311 68.7721C17.3311 71.7778 14.9642 73.3759 9.94369 73.3759Z" fill="url(#paint14_radial_395_244)"/>
<path d="M100.428 66.9487H101.14V62.042H100.428V66.9487Z" fill="url(#paint15_radial_395_244)"/>
<path d="M106.371 64.3076C106.155 63.8003 105.527 63.4598 104.683 63.4598C103.899 63.4598 103.498 63.6764 103.163 64.0542V63.557H102.5V66.9487H103.163V65.3364C103.163 64.4329 103.665 64.0228 104.564 64.0228C105.408 64.0228 105.827 64.3842 105.827 65.1557V66.9487H106.482V65.1139C106.482 64.8359 106.482 64.5718 106.371 64.3076Z" fill="url(#paint16_radial_395_244)"/>
<path d="M108.63 64.0999H109.739V63.5576H108.651V62.5916H107.995V63.5576H107.402V64.0999H107.981V65.9138C107.981 66.6297 108.274 66.998 108.923 66.998C109.195 66.998 109.46 66.9771 109.725 66.9493V66.3656C109.606 66.3865 109.376 66.4143 109.104 66.4143C108.693 66.4143 108.63 66.2543 108.63 65.8235V64.0999Z" fill="url(#paint17_radial_395_244)"/>
<path d="M111.162 65.3299H114.655V65.2327C114.655 64.6071 114.084 63.4464 112.549 63.4464C111.685 63.4464 110.478 63.8843 110.478 65.2465C110.478 66.4213 111.461 67.0537 112.563 67.0537C113.254 67.0537 114.181 66.8381 114.586 65.9624L113.951 65.7886C113.728 66.296 113.177 66.5254 112.654 66.5254C111.678 66.5254 111.189 65.907 111.162 65.3299ZM113.909 64.8366H111.183C111.405 64.2319 111.977 63.94 112.591 63.94C113.351 63.94 113.735 64.343 113.909 64.8366Z" fill="url(#paint18_radial_395_244)"/>
<path d="M117.579 63.5016C116.977 63.5016 116.584 63.7655 116.331 64.0611V63.557H115.668V66.9487H116.331V65.0583C116.331 64.1479 117.223 64.0853 117.481 64.0853C117.746 64.0853 117.907 64.1062 118.032 64.1341V63.557C117.934 63.5363 117.809 63.5016 117.579 63.5016Z" fill="url(#paint19_radial_395_244)"/>
<path d="M122.668 64.3076C122.452 63.8003 121.824 63.4598 120.98 63.4598C120.196 63.4598 119.795 63.6764 119.46 64.0542V63.557H118.797V66.9487H119.46V65.3364C119.46 64.4329 119.962 64.0228 120.862 64.0228C121.706 64.0228 122.124 64.3842 122.124 65.1557V66.9487H122.779V65.1139C122.779 64.8359 122.779 64.5718 122.668 64.3076Z" fill="url(#paint20_radial_395_244)"/>
<path d="M128.193 66.949V66.4418C128.193 66.4418 128.032 66.4763 127.921 66.4763C127.621 66.4763 127.565 66.3514 127.565 65.99V64.732C127.565 63.7241 126.686 63.4531 125.78 63.4531C124.866 63.4531 124.134 63.6198 123.938 64.315L124.608 64.3775C124.747 64.0508 125.263 63.9674 125.745 63.9674C126.903 63.9674 126.944 64.3775 126.944 64.6555V64.8362H125.975C125.173 64.8362 124.643 64.85 124.315 64.996C124.134 65.0725 123.715 65.3226 123.715 65.9066C123.715 66.379 124.015 67.0742 125.312 67.0742C126.331 67.0742 126.826 66.657 126.951 66.4068C126.979 66.657 127.028 66.9837 127.607 66.9837C127.865 66.9837 128.053 66.9699 128.193 66.949ZM125.703 65.3435H126.951C126.951 66.1983 126.261 66.5668 125.361 66.5668C124.685 66.5668 124.378 66.2332 124.378 65.8997C124.378 65.3436 125.033 65.3435 125.703 65.3435Z" fill="url(#paint21_radial_395_244)"/>
<path d="M129.866 64.0999H130.975V63.5576H129.887V62.5916H129.231V63.5576H128.638V64.0999H129.217V65.9138C129.217 66.6297 129.51 66.998 130.159 66.998C130.431 66.998 130.696 66.9771 130.961 66.9493V66.3656C130.842 66.3865 130.612 66.4143 130.34 66.4143C129.928 66.4143 129.866 66.2543 129.866 65.8235V64.0999Z" fill="url(#paint22_radial_395_244)"/>
<path d="M132 62.9871H132.711V62.3061H132V62.9871ZM132.027 66.9487H132.69V63.557H132.027V66.9487Z" fill="url(#paint23_radial_395_244)"/>
<path d="M138.145 65.2676C138.145 63.9469 136.987 63.4744 135.913 63.4744C134.999 63.4744 133.702 63.9331 133.702 65.323C133.702 66.4003 134.644 67.0537 135.934 67.0537C137.343 67.0537 138.145 66.2475 138.145 65.2676ZM137.482 65.2536C137.482 66.1571 136.631 66.5045 135.969 66.5045C135.006 66.5045 134.372 65.9904 134.372 65.2814C134.372 64.4473 135.139 64.0165 135.899 64.0165C136.582 64.0165 137.482 64.3223 137.482 65.2536Z" fill="url(#paint24_radial_395_244)"/>
<path d="M143.027 64.3076C142.811 63.8003 142.183 63.4598 141.34 63.4598C140.555 63.4598 140.154 63.6764 139.819 64.0542V63.557H139.157V66.9487H139.819V65.3364C139.819 64.4329 140.321 64.0228 141.221 64.0228C142.065 64.0228 142.483 64.3842 142.483 65.1557V66.9487H143.139V65.1139C143.139 64.8359 143.139 64.5718 143.027 64.3076Z" fill="url(#paint25_radial_395_244)"/>
<path d="M148.55 66.949V66.4418C148.55 66.4418 148.39 66.4763 148.278 66.4763C147.979 66.4763 147.923 66.3514 147.923 65.99V64.732C147.923 63.7241 147.044 63.4531 146.138 63.4531C145.224 63.4531 144.492 63.6198 144.296 64.315L144.966 64.3775C145.105 64.0508 145.621 63.9674 146.103 63.9674C147.26 63.9674 147.302 64.3775 147.302 64.6555V64.8362H146.333C145.531 64.8362 145.001 64.85 144.673 64.996C144.492 65.0725 144.073 65.3226 144.073 65.9066C144.073 66.379 144.373 67.0742 145.67 67.0742C146.689 67.0742 147.184 66.657 147.309 66.4068C147.337 66.657 147.386 66.9837 147.965 66.9837C148.223 66.9837 148.411 66.9699 148.55 66.949ZM146.061 65.3435H147.309C147.309 66.1983 146.619 66.5668 145.719 66.5668C145.043 66.5668 144.736 66.2332 144.736 65.8997C144.736 65.3435 145.391 65.3435 146.061 65.3435Z" fill="url(#paint26_radial_395_244)"/>
<path d="M149.344 66.9487H150V62.042H149.344V66.9487Z" fill="url(#paint27_radial_395_244)"/>
<path d="M104.91 75.4194H105.719L103.194 70.5127H102.448L99.8955 75.4194H100.684L101.283 74.2101H104.31L104.91 75.4194ZM102.804 71.2145L104.01 73.6471H101.576L102.804 71.2145Z" fill="url(#paint28_radial_395_244)"/>
<path d="M106.382 71.4579H107.093V70.7767H106.382V71.4579ZM106.41 75.4194H107.072V72.0278H106.41V75.4194Z" fill="url(#paint29_radial_395_244)"/>
<path d="M110.237 71.9722C109.636 71.9722 109.243 72.2362 108.989 72.5316V72.0278H108.327V75.4194H108.989V73.529C108.989 72.6186 109.882 72.556 110.14 72.556C110.405 72.556 110.565 72.5769 110.691 72.6046V72.0278C110.593 72.0069 110.467 71.9722 110.237 71.9722Z" fill="url(#paint30_radial_395_244)"/>
<path d="M113.55 74.954C112.901 74.954 112.085 74.6481 112.085 73.7446C112.085 73.0289 112.552 72.4658 113.522 72.4658C114.429 72.4658 114.952 73.0079 114.952 73.6752C114.952 74.4257 114.4 74.954 113.55 74.954ZM113.592 71.9447C112.999 71.9447 112.439 72.149 112.12 72.5527V72.028H111.458V76.7749H112.12V74.9014C112.307 75.1128 112.728 75.4822 113.724 75.4822C115.042 75.4822 115.67 74.5995 115.67 73.696C115.67 72.7508 114.917 71.9447 113.592 71.9447Z" fill="url(#paint31_radial_395_244)"/>
<path d="M120.881 73.7377C120.881 72.4172 119.723 71.9447 118.649 71.9447C117.735 71.9447 116.438 72.4033 116.438 73.7933C116.438 74.8706 117.379 75.5239 118.67 75.5239C120.078 75.5239 120.881 74.7177 120.881 73.7377ZM120.218 73.7238C120.218 74.6273 119.367 74.9749 118.705 74.9749C117.742 74.9749 117.107 74.4605 117.107 73.7517C117.107 72.9176 117.875 72.4868 118.635 72.4868C119.318 72.4868 120.218 72.7925 120.218 73.7238Z" fill="url(#paint32_radial_395_244)"/>
<path d="M123.802 71.9722C123.2 71.9722 122.807 72.2362 122.553 72.5316V72.0278H121.891V75.4194H122.553V73.529C122.553 72.6186 123.446 72.556 123.704 72.556C123.969 72.556 124.129 72.5769 124.255 72.6046V72.0278C124.157 72.0069 124.032 71.9722 123.802 71.9722Z" fill="url(#paint33_radial_395_244)"/>
<path d="M125.949 72.5701H127.059V72.028H125.971V71.0619H125.315V72.028H124.722V72.5701H125.301V74.384C125.301 75.0999 125.594 75.4683 126.243 75.4683C126.515 75.4683 126.779 75.4474 127.045 75.4196V74.8357C126.926 74.8567 126.696 74.8845 126.424 74.8845C126.012 74.8845 125.949 74.7246 125.949 74.2938V72.5701Z" fill="url(#paint34_radial_395_244)"/>
</g>
<defs>
<radialGradient id="paint0_radial_395_244" cx="0" cy="0" r="1" gradientUnits="userSpaceOnUse" gradientTransform="translate(75.2897 75.6206) rotate(-140.041) scale(20.5324 19.4215)">
<stop stop-color="#0654F2"/>
<stop offset="1" stop-color="#103C96"/>
</radialGradient>
<radialGradient id="paint1_radial_395_244" cx="0" cy="0" r="1" gradientUnits="userSpaceOnUse" gradientTransform="translate(95.1121 75.4302) rotate(-144.392) scale(22.3337 20.3139)">
<stop stop-color="#0654F2"/>
<stop offset="1" stop-color="#103C96"/>
</radialGradient>
<radialGradient id="paint2_radial_395_244" cx="0" cy="0" r="1" gradientUnits="userSpaceOnUse" gradientTransform="translate(56.1613 75.4302) rotate(-136.785) scale(18.7233 17.9531)">
<stop stop-color="#0654F2"/>
<stop offset="1" stop-color="#103C96"/>
</radialGradient>
<radialGradient id="paint3_radial_395_244" cx="0" cy="0" r="1" gradientUnits="userSpaceOnUse" gradientTransform="translate(77.657 87.5889) rotate(-165.874) scale(29.426 13.3816)">
<stop stop-color="#0654F2"/>
<stop offset="1" stop-color="#103C96"/>
</radialGradient>
<radialGradient id="paint4_radial_395_244" cx="0" cy="0" r="1" gradientUnits="userSpaceOnUse" gradientTransform="translate(46.491 87.5889) rotate(-153.861) scale(16.3012 12.3877)">
<stop stop-color="#0654F2"/>
<stop offset="1" stop-color="#103C96"/>
</radialGradient>
<radialGradient id="paint5_radial_395_244" cx="0" cy="0" r="1" gradientUnits="userSpaceOnUse" gradientTransform="translate(87.0917 86.6929) rotate(-134.884) scale(2.48597 2.38833)">
<stop stop-color="#0654F2"/>
<stop offset="1" stop-color="#103C96"/>
</radialGradient>
<radialGradient id="paint6_radial_395_244" cx="0" cy="0" r="1" gradientUnits="userSpaceOnUse" gradientTransform="translate(88.9975 86.6616) rotate(-132.251) scale(2.30006 2.19957)">
<stop stop-color="#0654F2"/>
<stop offset="1" stop-color="#103C96"/>
</radialGradient>
<radialGradient id="paint7_radial_395_244" cx="0" cy="0" r="1" gradientUnits="userSpaceOnUse" gradientTransform="translate(90.7169 86.6929) rotate(-130.199) scale(2.30607 2.18447)">
<stop stop-color="#0654F2"/>
<stop offset="1" stop-color="#103C96"/>
</radialGradient>
<radialGradient id="paint8_radial_395_244" cx="0" cy="0" r="1" gradientUnits="userSpaceOnUse" gradientTransform="translate(38.2685 86.6929) rotate(-134.883) scale(2.48595 2.38831)">
<stop stop-color="#0654F2"/>
<stop offset="1" stop-color="#103C96"/>
</radialGradient>
<radialGradient id="paint9_radial_395_244" cx="0" cy="0" r="1" gradientUnits="userSpaceOnUse" gradientTransform="translate(40.1755 86.6616) rotate(-132.248) scale(2.29993 2.19942)">
<stop stop-color="#0654F2"/>
<stop offset="1" stop-color="#103C96"/>
</radialGradient>
<radialGradient id="paint10_radial_395_244" cx="0" cy="0" r="1" gradientUnits="userSpaceOnUse" gradientTransform="translate(41.8924 86.6929) rotate(-130.202) scale(2.30619 2.18462)">
<stop stop-color="#0654F2"/>
<stop offset="1" stop-color="#103C96"/>
</radialGradient>
<radialGradient id="paint11_radial_395_244" cx="0" cy="0" r="1" gradientUnits="userSpaceOnUse" gradientTransform="translate(28.909 87.5889) rotate(-165.874) scale(29.426 13.3816)">
<stop stop-color="#0654F2"/>
<stop offset="1" stop-color="#103C96"/>
</radialGradient>
<radialGradient id="paint12_radial_395_244" cx="0" cy="0" r="1" gradientUnits="userSpaceOnUse" gradientTransform="translate(95.239 87.5889) rotate(-153.861) scale(16.3012 12.3877)">
<stop stop-color="#0654F2"/>
<stop offset="1" stop-color="#103C96"/>
</radialGradient>
<radialGradient id="paint13_radial_395_244" cx="0" cy="0" r="1" gradientUnits="userSpaceOnUse" gradientTransform="translate(39.0637 75.4302) rotate(-141.598) scale(20.6391 19.305)">
<stop stop-color="#0654F2"/>
<stop offset="1" stop-color="#103C96"/>
</radialGradient>
<radialGradient id="paint14_radial_395_244" cx="0" cy="0" r="1" gradientUnits="userSpaceOnUse" gradientTransform="translate(19.2051 75.6206) rotate(-145.178) scale(23.0932 20.8007)">
<stop stop-color="#0654F2"/>
<stop offset="1" stop-color="#103C96"/>
</radialGradient>
<radialGradient id="paint15_radial_395_244" cx="0" cy="0" r="1" gradientUnits="userSpaceOnUse" gradientTransform="translate(101.115 66.9487) rotate(-98.1683) scale(4.77242 1.28967)">
<stop stop-color="#0654F2"/>
<stop offset="1" stop-color="#103C96"/>
</radialGradient>
<radialGradient id="paint16_radial_395_244" cx="0" cy="0" r="1" gradientUnits="userSpaceOnUse" gradientTransform="translate(106.345 66.9487) rotate(-138.491) scale(5.0684 4.83325)">
<stop stop-color="#0654F2"/>
<stop offset="1" stop-color="#103C96"/>
</radialGradient>
<radialGradient id="paint17_radial_395_244" cx="0" cy="0" r="1" gradientUnits="userSpaceOnUse" gradientTransform="translate(109.658 66.998) rotate(-117.696) scale(4.7913 3.78862)">
<stop stop-color="#0654F2"/>
<stop offset="1" stop-color="#103C96"/>
</radialGradient>
<radialGradient id="paint18_radial_395_244" cx="0" cy="0" r="1" gradientUnits="userSpaceOnUse" gradientTransform="translate(114.512 67.0537) rotate(-138.903) scale(5.28335 5.02885)">
<stop stop-color="#0654F2"/>
<stop offset="1" stop-color="#103C96"/>
</radialGradient>
<radialGradient id="paint19_radial_395_244" cx="0" cy="0" r="1" gradientUnits="userSpaceOnUse" gradientTransform="translate(117.951 66.9487) rotate(-124.175) scale(4.0114 3.58198)">
<stop stop-color="#0654F2"/>
<stop offset="1" stop-color="#103C96"/>
</radialGradient>
<radialGradient id="paint20_radial_395_244" cx="0" cy="0" r="1" gradientUnits="userSpaceOnUse" gradientTransform="translate(122.643 66.9487) rotate(-138.491) scale(5.06839 4.83324)">
<stop stop-color="#0654F2"/>
<stop offset="1" stop-color="#103C96"/>
</radialGradient>
<radialGradient id="paint21_radial_395_244" cx="0" cy="0" r="1" gradientUnits="userSpaceOnUse" gradientTransform="translate(128.039 67.0742) rotate(-140.752) scale(5.51036 5.1876)">
<stop stop-color="#0654F2"/>
<stop offset="1" stop-color="#103C96"/>
</radialGradient>
<radialGradient id="paint22_radial_395_244" cx="0" cy="0" r="1" gradientUnits="userSpaceOnUse" gradientTransform="translate(130.894 66.998) rotate(-117.696) scale(4.7913 3.78862)">
<stop stop-color="#0654F2"/>
<stop offset="1" stop-color="#103C96"/>
</radialGradient>
<radialGradient id="paint23_radial_395_244" cx="0" cy="0" r="1" gradientUnits="userSpaceOnUse" gradientTransform="translate(132.686 66.9487) rotate(-98.624) scale(4.52081 1.28781)">
<stop stop-color="#0654F2"/>
<stop offset="1" stop-color="#103C96"/>
</radialGradient>
<radialGradient id="paint24_radial_395_244" cx="0" cy="0" r="1" gradientUnits="userSpaceOnUse" gradientTransform="translate(137.992 67.0537) rotate(-140.86) scale(5.45934 5.13559)">
<stop stop-color="#0654F2"/>
<stop offset="1" stop-color="#103C96"/>
</radialGradient>
<radialGradient id="paint25_radial_395_244" cx="0" cy="0" r="1" gradientUnits="userSpaceOnUse" gradientTransform="translate(143.002 66.9487) rotate(-138.491) scale(5.0684 4.83325)">
<stop stop-color="#0654F2"/>
<stop offset="1" stop-color="#103C96"/>
</radialGradient>
<radialGradient id="paint26_radial_395_244" cx="0" cy="0" r="1" gradientUnits="userSpaceOnUse" gradientTransform="translate(148.397 67.0742) rotate(-140.752) scale(5.51037 5.18761)">
<stop stop-color="#0654F2"/>
<stop offset="1" stop-color="#103C96"/>
</radialGradient>
<radialGradient id="paint27_radial_395_244" cx="0" cy="0" r="1" gradientUnits="userSpaceOnUse" gradientTransform="translate(149.977 66.9487) rotate(-97.5327) scale(4.76513 1.18992)">
<stop stop-color="#0654F2"/>
<stop offset="1" stop-color="#103C96"/>
</radialGradient>
<radialGradient id="paint28_radial_395_244" cx="0" cy="0" r="1" gradientUnits="userSpaceOnUse" gradientTransform="translate(105.519 75.4194) rotate(-139.598) scale(7.28848 6.91226)">
<stop stop-color="#0654F2"/>
<stop offset="1" stop-color="#103C96"/>
</radialGradient>
<radialGradient id="paint29_radial_395_244" cx="0" cy="0" r="1" gradientUnits="userSpaceOnUse" gradientTransform="translate(107.069 75.4194) rotate(-98.6237) scale(4.52088 1.28779)">
<stop stop-color="#0654F2"/>
<stop offset="1" stop-color="#103C96"/>
</radialGradient>
<radialGradient id="paint30_radial_395_244" cx="0" cy="0" r="1" gradientUnits="userSpaceOnUse" gradientTransform="translate(110.61 75.4194) rotate(-124.174) scale(4.01151 3.58205)">
<stop stop-color="#0654F2"/>
<stop offset="1" stop-color="#103C96"/>
</radialGradient>
<radialGradient id="paint31_radial_395_244" cx="0" cy="0" r="1" gradientUnits="userSpaceOnUse" gradientTransform="translate(115.525 76.7749) rotate(-130.805) scale(6.14357 5.83914)">
<stop stop-color="#0654F2"/>
<stop offset="1" stop-color="#103C96"/>
</radialGradient>
<radialGradient id="paint32_radial_395_244" cx="0" cy="0" r="1" gradientUnits="userSpaceOnUse" gradientTransform="translate(120.728 75.5239) rotate(-140.861) scale(5.45932 5.13554)">
<stop stop-color="#0654F2"/>
<stop offset="1" stop-color="#103C96"/>
</radialGradient>
<radialGradient id="paint33_radial_395_244" cx="0" cy="0" r="1" gradientUnits="userSpaceOnUse" gradientTransform="translate(124.174 75.4194) rotate(-124.176) scale(4.01162 3.58226)">
<stop stop-color="#0654F2"/>
<stop offset="1" stop-color="#103C96"/>
</radialGradient>
<radialGradient id="paint34_radial_395_244" cx="0" cy="0" r="1" gradientUnits="userSpaceOnUse" gradientTransform="translate(126.978 75.4683) rotate(-117.696) scale(4.79118 3.78859)">
<stop stop-color="#0654F2"/>
<stop offset="1" stop-color="#103C96"/>
</radialGradient>
<clipPath id="clip0_395_244">
<rect width="150" height="150" rx="30" fill="white"/>
</clipPath>
</defs>
</svg>
