<svg width="35" height="35" viewBox="0 0 35 35" fill="none" xmlns="http://www.w3.org/2000/svg">
<path d="M17.0001 26.3913C17.7132 26.3913 18.3777 26.125 18.8801 25.6394C19.3826 25.1537 19.6581 24.5114 19.6581 23.8221C19.6581 23.1329 19.3826 22.4906 18.8801 22.0049C18.3939 21.5349 17.7132 21.2686 17.0001 21.2686C16.2869 21.2686 15.6062 21.5349 15.1362 22.0049C14.6338 22.4906 14.3582 23.1329 14.3582 23.8221C14.3582 24.5114 14.6338 25.1537 15.1362 25.6394C15.6386 26.125 16.3031 26.3913 17.0163 26.3913H17.0001Z" fill="white"/>
<path d="M25.6872 3.26893C24.8444 2.45431 23.7099 2 22.5105 2H11.4895C10.2901 2 9.15559 2.45431 8.3128 3.26893C7.47002 4.08355 7 5.18016 7 6.33943V27.6606C7 28.8198 7.47002 29.9008 8.3128 30.7311C9.15559 31.5457 10.2901 32 11.4895 32H22.5105C23.7099 32 24.8444 31.5457 25.6872 30.7311C26.53 29.9165 27 28.8198 27 27.6606V6.33943C27 5.18016 26.53 4.09922 25.6872 3.26893ZM10.4522 6.33943C10.4522 6.07311 10.5656 5.82245 10.7601 5.63446C10.9546 5.44648 11.2139 5.33681 11.4895 5.33681H22.5105C22.7861 5.33681 23.0454 5.44648 23.2399 5.63446C23.4344 5.82245 23.5478 6.07311 23.5478 6.33943V27.6606C23.5478 27.9269 23.4344 28.1775 23.2399 28.3655C23.0454 28.5535 22.7861 28.6632 22.5105 28.6632H11.4895C11.2139 28.6632 10.9546 28.5535 10.7601 28.3655C10.5656 28.1775 10.4522 27.9269 10.4522 27.6606V6.33943Z" fill="white"/>
</svg>
