<svg width="41" height="19" viewBox="0 0 41 19" fill="none" xmlns="http://www.w3.org/2000/svg">
<g opacity="0.4">
<path d="M14.3629 2.36439C14.8467 1.87851 15.6312 1.87851 16.1151 2.36439L27.5369 13.8342C28.0207 14.3201 28.0207 15.1078 27.5369 15.5937C27.053 16.0796 26.2686 16.0796 25.7847 15.5937L14.3629 4.12392C13.879 3.63804 13.879 2.85027 14.3629 2.36439Z" fill="black"/>
<path d="M14.4631 15.6356C13.9793 15.1497 13.9793 14.3619 14.4631 13.876L25.8849 2.40625C26.3688 1.92037 27.1533 1.92037 27.6371 2.40625C28.121 2.89213 28.121 3.6799 27.6371 4.16578L16.2153 15.6356C15.7314 16.1215 14.947 16.1215 14.4631 15.6356Z" fill="black"/>
</g>
</svg>
